<svg xmlns="http://www.w3.org/2000/svg" width="326.55" height="184.52">
  <defs>
    <clipPath id="a">
      <path d="M0 0h245v139H0z"/>
    </clipPath>
  </defs>
  <g clip-path="url(#a)" transform="scale(1.3333)">
    <path fill="#4f5358" d="M242.54 110.3h-1.77c-1.2 0-1.3-.2-1.3-1.85V98.1h3c.37 0 .67-.3.67-.66v-1.95c0-.36-.3-.66-.67-.66h-3v-3.4c0-.32-.23-.5-.53-.5h-.13l-3.1.53c-.37.07-.67.3-.67.66v2.71h-3.13c-.37 0-.67.3-.67.66v1.49c0 .36.3.6.67.66l3.13.46v10.36c0 4.42 1.53 5.25 5.3 5.25.73 0 1.47-.1 2.27-.23.43-.07.63-.27.63-.6v-2.08c0-.33-.27-.5-.7-.5m-15.81-15.46h-3.06c-.37 0-.67.33-.67.7v13.2c-.93.49-2.54 1.31-3.77 1.31-1.03 0-1.6-.2-2.06-.59-.64-.56-.77-1.52-.77-3.17V95.52c0-.37-.3-.7-.67-.7h-3.06c-.37 0-.67.33-.67.7v10.75c0 2.74.43 4.8 1.67 6 .96.97 2.43 1.4 4.1 1.4 2.13 0 3.5-.53 5.23-1.65v.75c0 .37.3.67.67.67h3.06c.37 0 .67-.3.67-.67V95.52c0-.36-.3-.7-.67-.7M207.3 110.3h-1.77c-1.2 0-1.3-.2-1.3-1.85V98.1h3c.37 0 .67-.3.67-.66v-1.95c0-.36-.3-.66-.67-.66h-3v-3.4c0-.32-.23-.49-.53-.49h-.13l-3.1.53c-.37.06-.67.3-.67.66v2.7h-3.13c-.37 0-.67.3-.67.66v1.49c0 .36.3.6.67.66l3.13.46v10.36c0 4.42 1.54 5.25 5.3 5.25.74 0 1.47-.1 2.27-.23.43-.07.63-.26.63-.6v-2.07c0-.34-.27-.5-.7-.5m-15.78-22.17h-3.23c-.37 0-.7.3-.7.66v2.9c0 .37.33.67.7.67h3.23c.37 0 .66-.3.66-.66v-2.9c0-.37-.3-.67-.66-.67m-.1 6.7h-3.07c-.36 0-.66.3-.66.66v17.26c0 .36.3.7.66.7h3.07c.37 0 .67-.34.67-.7V95.49c0-.36-.3-.66-.67-.66m-8.53 15.48h-1.77c-1.2 0-1.3-.2-1.3-1.85V98.09h3c.37 0 .67-.3.67-.65v-1.95c0-.37-.3-.66-.67-.66h-3v-3.4c0-.33-.23-.5-.53-.5h-.14l-3.1.53c-.36.07-.66.3-.66.66v2.7h-3.14c-.36 0-.66.3-.66.67v1.48c0 .37.3.6.66.66l3.14.46v10.37c0 4.42 1.53 5.24 5.3 5.24.73 0 1.46-.1 2.26-.23.44-.06.64-.26.64-.6v-2.07c0-.33-.27-.5-.7-.5m-17.33-6.76l-4.37-2.64c-.83-.5-1.33-.83-1.33-1.35 0-1.03.7-1.39 2.3-1.39 1.9 0 4.56.27 5.5.4h.13c.33 0 .53-.24.53-.63v-1.91c0-.4-.2-.66-.6-.76-1.7-.37-3.23-.66-5.93-.66-4.23 0-6.34 1.65-6.34 4.95a5.42 5.42 0 0 0 2.8 4.55l4.57 2.77c1.07.66 1.47 1.06 1.47 1.69 0 .89-.3 1.58-2.37 1.58-1 0-4-.16-5.6-.36h-.13c-.33 0-.57.26-.57.52v1.98c0 .4.24.67.64.76 1.86.5 4.66.66 5.96.66 4.37 0 6.53-2.27 6.53-5.14 0-1.69-.4-3.34-3.2-5.02m-20.54-8.92a8.7 8.7 0 0 0-5.4 1.58v-.7c0-.35-.3-.65-.67-.65h-2.9c-.37 0-.67.3-.67.66v17.26c0 .36.3.7.67.7h3.07c.36 0 .66-.34.66-.7V99.5c1.4-.73 2.64-1.19 3.77-1.19 2.56 0 2.83.83 2.83 3.7v10.75c0 .37.3.7.67.7h3.06c.37 0 .67-.33.67-.7V102c0-4.19-.96-7.39-5.76-7.39m-15.97-5.67h-3.3c-.36 0-.66.26-.66.62v23.24c0 .36.3.66.66.66h3.3c.37 0 .67-.3.67-.66V89.57c0-.36-.3-.63-.67-.63m115.21-26.32a7.7 7.7 0 0 0-4.72 1.58v-.7c0-.36-.3-.65-.66-.65H236c-.37 0-.66.3-.66.66v17.26c0 .36.3.7.66.7h3.04c.35 0 .65-.34.65-.7V67.5a9.36 9.36 0 0 1 4.56-1.19c.36 0 .66-.3.66-.66v-2.37c0-.37-.3-.66-.66-.66m-23.8 7.82c0-2.6 1.49-4.06 3.53-4.06s3.47 1.48 3.47 4.06v.13h-7zm10.73 3.23c.46 0 .66-.3.66-.83V71c0-4.92-2.77-8.38-7.86-8.38-5.04 0-7.91 3.23-7.91 8.38v2.44c0 6.5 4.68 8.28 7.98 8.28 2.97 0 4.26-.16 6.4-.56.6-.1.7-.33.7-.86v-2.17c0-.33-.27-.5-.6-.5h-.1a65.3 65.3 0 0 1-6.07.33c-3.16 0-3.96-2.28-3.96-4.19v-.1zm-18.61 7.1V70c0-4.2-.96-7.4-5.71-7.4-2.18 0-3.43.37-5.35 1.59v-.7c0-.36-.3-.65-.66-.65h-2.87c-.36 0-.66.3-.66.66v17.26c0 .36.3.7.66.7h3.04c.36 0 .66-.34.66-.7V67.5c1.38-.73 2.6-1.19 3.73-1.19 2.54 0 2.8.83 2.8 3.7v10.76c0 .36.3.7.66.7h3.04c.36 0 .66-.34.66-.7m-19.5-2.45h-1.75c-1.19 0-1.3-.19-1.3-1.84V66.12H193c.36 0 .66-.3.66-.67v-1.94c0-.37-.3-.66-.66-.66h-2.97v-3.4c0-.33-.23-.5-.53-.5h-.13l-3.07.53c-.36.07-.66.3-.66.66v2.7h-2.15c-.36 0-.66.3-.66.67v1.48c0 .37.3.6.66.66l2.15.47v10.36c0 4.42 1.52 5.24 5.25 5.24.72 0 1.45-.1 2.24-.23.43-.06.63-.26.63-.6v-2.07c0-.33-.26-.5-.7-.5m-19.66-1.84c0 4.42 1.53 5.24 5.25 5.24.73 0 1.46-.1 2.25-.23.42-.06.62-.26.62-.6v-2.07c0-.33-.26-.5-.69-.5h-1.75c-1.19 0-1.29-.19-1.29-1.84V66.12h2.03c.36 0 .66-.3.66-.67v-1.94c0-.37-.3-.66-.66-.66h-2.03v-3.4c0-.33-.23-.5-.52-.5h-.13l-3.07.53c-.37.07-.67.3-.67.66v2.7h-3.1c-.36 0-.66.3-.66.67v1.48c0 .37.3.6.66.66l3.1.47zm-15.83-.26v-.14c0-1.85.66-2.8 3.66-2.8h2.08v4.06c-.96.52-2.18.92-3.37.92-1.65 0-2.37-.43-2.37-2.04m5.97 4.05v.53c0 .36.3.66.66.66h2.8c.37 0 .66-.3.66-.66V68.92c0-4.22-2.57-6.3-7.26-6.3-2.28 0-4.19.26-5.5.52-.44.1-.63.34-.63.7v2.11c0 .46.26.56.59.56h.17c1.08-.13 3.26-.26 5.37-.26 1.95 0 2.9.52 2.9 2.67v1.45h-2.07c-5.74 0-8.05 1.95-8.05 5.71v.14c0 4.45 2.97 5.5 5.7 5.5 1.6 0 3.14-.52 4.66-1.45m-17.59 1.2h3.07c.36 0 .63-.34.63-.7V57a.64.64 0 0 0-.63-.66h-3.07c-.36 0-.66.3-.66.66v23.77c0 .36.3.7.66.7m-8.45-16.88c0 2.65-1.38 3.97-4.95 3.97-.56 0-2.4-.07-2.93-.1V60.6c.6-.07 2.24-.14 2.93-.14 3.3 0 4.95 1.06 4.95 3.83zm4.56 0v-.29c0-5.84-4.42-7.62-9.5-7.62-2.42 0-4.76.16-6.47.43-.66.1-1.06.33-1.06.98V80.8c0 .36.3.66.66.66h3.3c.36 0 .63-.3.63-.66v-8.6c.75.03 2.08.13 2.93.13 5.09 0 9.5-1.88 9.5-7.73m60.3-25.76c0-2.7 1.22-4.45 3.53-4.45 2.3 0 3.53 1.75 3.53 4.45v2.67c0 2.71-1.22 4.46-3.53 4.46-2.31 0-3.53-1.75-3.53-4.46zm3.53 10.9c5.18 0 7.89-3.5 7.89-8.23v-2.67c0-4.71-2.71-8.21-7.9-8.21-5.17 0-7.88 3.5-7.88 8.21v2.67c0 4.73 2.7 8.22 7.89 8.22m-14.13-10.16l-4.32-2.64c-.82-.5-1.32-.83-1.32-1.35 0-1.03.7-1.39 2.28-1.39 1.88 0 4.52.27 5.44.4h.13c.33 0 .53-.24.53-.63v-1.91c0-.4-.2-.66-.6-.76a23.94 23.94 0 0 0-5.87-.66c-4.19 0-6.27 1.65-6.27 4.95a5.44 5.44 0 0 0 2.78 4.55l4.52 2.77c1.06.66 1.45 1.06 1.45 1.68 0 .9-.3 1.6-2.34 1.6-1 0-3.96-.17-5.55-.37h-.13a.55.55 0 0 0-.56.52v1.98c0 .4.23.67.63.77 1.84.49 4.62.65 5.9.65 4.33 0 6.47-2.27 6.47-5.15 0-1.68-.4-3.33-3.17-5m-23.36.55l4.52 2.77c1.06.66 1.45 1.06 1.45 1.68 0 .9-.3 1.6-2.34 1.6-1 0-3.96-.17-5.54-.37h-.14a.55.55 0 0 0-.56.52v1.98c0 .4.24.67.63.77 1.85.49 4.62.65 5.9.65 4.33 0 6.47-2.27 6.47-5.15 0-1.68-.39-3.33-3.16-5l-4.33-2.65c-.82-.5-1.31-.83-1.31-1.35 0-1.03.69-1.39 2.27-1.39 1.88 0 4.52.27 5.45.4h.13c.33 0 .53-.24.53-.63v-1.91c0-.4-.2-.66-.6-.76-1.68-.37-3.2-.66-5.87-.66-4.2 0-6.27 1.65-6.27 4.95a5.44 5.44 0 0 0 2.77 4.55m-16.5 3.96c0-1.85.66-2.8 3.66-2.8h2.08v4.05a7.2 7.2 0 0 1-3.36.93c-1.65 0-2.38-.43-2.38-2.05zm1.32 5.64c1.58 0 3.14-.52 4.65-1.45v.53c0 .36.3.66.66.66h2.8c.37 0 .67-.3.67-.66V36.92c0-4.22-2.58-6.3-7.26-6.3-2.28 0-4.2.26-5.51.52-.43.1-.63.34-.63.7v2.11c0 .46.27.56.6.56h.16c1.09-.13 3.27-.26 5.38-.26 1.95 0 2.9.53 2.9 2.67v1.45h-2.08c-5.74 0-8.05 1.95-8.05 5.7v.14c0 4.46 2.97 5.51 5.71 5.51m-27.53-.26h3.27c.36 0 .66-.3.66-.66V38.7h9.37v10.1c0 .36.3.66.66.66h3.27c.36 0 .66-.3.66-.66V25.57c0-.37-.3-.63-.66-.63h-3.27c-.36 0-.66.26-.66.63v9.1h-9.37v-9.1c0-.37-.3-.63-.66-.63h-3.27c-.36 0-.66.26-.66.63V48.8c0 .36.3.66.66.66"/>
    <path fill="#b00c36" d="M.13 14.18h99.2v99.2H.14z"/>
    <path fill="#f89c0e" d="M28.47 0h85.04v85.04H28.47z"/>
    <path fill="#e25517" d="M28.47 14.18h70.87v70.86H28.47z"/>
    <path fill="#fff" d="M87.74 25.18h-3.27a.64.64 0 0 0-.66.63v23.23c0 .37.3.66.66.66h3.27c.36 0 .66-.3.66-.66V25.8c0-.36-.3-.63-.66-.63m-12.3 7.66c0 2.64-1.39 3.96-4.95 3.96-.56 0-2.41-.07-2.94-.1v-7.85c.6-.07 2.25-.13 2.94-.13 3.3 0 4.95 1.05 4.95 3.82zm-4.95-7.92c-2.41 0-4.75.16-6.47.43-.66.1-1.05.33-1.05.99v22.7c0 .37.3.66.65.66h3.3c.36 0 .63-.3.63-.66v-8.61c.76.03 2.08.13 2.94.13 5.08 0 9.5-1.88 9.5-7.72v-.3c0-5.84-4.42-7.62-9.5-7.62m-13.2.26h-3.26a.64.64 0 0 0-.66.63v9.1H44v-9.1c0-.36-.3-.63-.66-.63h-3.27a.64.64 0 0 0-.66.63v23.23c0 .37.3.66.66.66h3.27c.36 0 .66-.3.66-.66v-10.1h9.37v10.1c0 .37.3.66.66.66h3.27c.36 0 .66-.3.66-.66V25.8c0-.36-.3-.63-.66-.63"/>
    <path fill="#4f5358" d="M6.86 131.57v-1.83c0-2.93-1.6-4.21-4.11-4.21-1.03 0-2.07.06-2.46.13-.18.02-.29.14-.29.34v9.3c0 .21.1.32.29.35.39.06 1.43.13 2.46.13 2.5 0 4.1-1.31 4.1-4.21m-1.22 0c0 2.44-1.25 3.16-2.88 3.16-.64 0-1.07 0-1.5-.03v-8.08c.44-.03.86-.04 1.5-.04 1.63 0 2.88.7 2.88 3.16zm4.3-4.8v-1.08a.27.27 0 0 0-.28-.27h-.69a.27.27 0 0 0-.27.27v1.08c0 .15.12.27.27.27h.69c.15 0 .27-.12.27-.27m-.02 8.64v-6.9a.28.28 0 0 0-.28-.28h-.65a.27.27 0 0 0-.27.27v6.91c0 .16.12.28.27.28h.65c.15 0 .28-.12.28-.28m8.06-6.52v-.35c0-.17-.15-.3-.31-.3h-2.97c-2.33 0-3 1.19-3 2.4v.1a2 2 0 0 0 .62 1.58c-.38.21-.56.6-.56.97v.01c0 .42.2.87.62 1.06l.1.04a2.2 2.2 0 0 0-.85 1.72v.12c0 1.33.97 2.16 3.11 2.16 2.23 0 3.1-.8 3.1-2.1v-.1c0-1.29-1.28-1.66-2.6-2l-2.03-.52c-.31-.08-.42-.2-.42-.43 0-.2.1-.35.34-.46a4 4 0 0 0 1.57.27c2.09 0 3-.83 3-2.32v-.1c0-.74-.2-1.14-.45-1.4l.49-.1c.15-.02.24-.08.24-.25m-1.45 1.85c0 .82-.36 1.39-1.83 1.39-1.56 0-1.83-.79-1.83-1.39v-.1c0-.76.31-1.46 1.83-1.46 1.47 0 1.83.64 1.83 1.45zm.11 5.56c0 .74-.35 1.18-1.9 1.18-1.5 0-1.95-.48-1.95-1.24v-.12c0-.7.27-1.04.66-1.38l1.54.4c1.22.3 1.65.52 1.65 1.05zm4.08-9.53v-1.08a.27.27 0 0 0-.27-.27h-.7a.27.27 0 0 0-.26.27v1.08c0 .15.12.27.26.27h.7c.14 0 .27-.12.27-.27m-.03 8.64v-6.9a.27.27 0 0 0-.27-.28h-.65a.28.28 0 0 0-.27.27v6.91c0 .16.12.28.27.28h.65c.15 0 .27-.12.27-.28m5.98.07v-.47c0-.13-.1-.19-.3-.19h-.75c-.54 0-.73-.1-.73-.85v-4.73h1.46c.15 0 .27-.12.27-.27v-.48a.27.27 0 0 0-.27-.27h-1.46v-1.48c0-.13-.1-.23-.2-.23h-.04l-.7.1c-.16.04-.25.15-.25.28v1.33h-1.32c-.14 0-.25.1-.25.24v.37c0 .14.1.23.25.24l1.32.15v4.73c0 1.49.6 1.81 1.84 1.81.26 0 .6-.02.88-.06.17-.03.25-.11.25-.23m6.57-.07v-4.73c0-1.6-.75-2.55-2.64-2.55-.92 0-1.54.08-2.1.18-.2.03-.28.1-.28.26v.47c0 .17.12.22.24.22h.07c.54-.06 1.19-.11 2.07-.11 1.06 0 1.45.39 1.45 1.53v.54h-1c-2.42 0-3.27.73-3.27 2.2v.16c0 1.7 1.06 2.2 2.2 2.2.77 0 1.45-.3 2.1-.67v.3c0 .15.12.27.27.27h.62c.15 0 .27-.12.27-.27zm-1.19-1.15c-.65.35-1.2.54-1.83.54-.79 0-1.25-.26-1.25-1.23v-.17c0-.96.44-1.33 2.08-1.33h1zm4.32 1.15v-9.66c0-.15-.11-.26-.24-.26h-.7c-.16 0-.25.12-.25.26v9.66c0 .15.1.27.24.27h.7c.15 0 .25-.14.25-.27m11.26.1v-.68c0-.1-.05-.17-.15-.17h-2.62c-1.43 0-1.66-.38-1.66-1.4v-2.28h4.16c.15 0 .27-.13.27-.27v-.52a.27.27 0 0 0-.27-.27h-4.16v-1.88c0-1.03.23-1.41 1.66-1.41h2.62c.1 0 .15-.07.15-.17v-.67c0-.08-.05-.18-.14-.19-.57-.05-1.84-.08-2.64-.08-1.9 0-2.88.71-2.88 2.52v5.21c0 1.8.98 2.52 2.88 2.52.8 0 2.13 0 2.64-.06.09-.02.14-.11.14-.2m7.4-.1v-4.46c0-1.8-.72-2.82-2.35-2.82-.8 0-1.41.2-2.16.63v-.26c0-.15-.1-.27-.25-.27h-.68a.26.26 0 0 0-.26.27v6.9c0 .16.12.28.26.28h.66c.15 0 .27-.14.27-.27v-5.72a4.27 4.27 0 0 1 1.83-.53c1.03 0 1.5.42 1.5 1.79v4.46c0 .15.11.27.26.27h.65c.16 0 .28-.12.28-.27m8.03-6.53v-.35c0-.17-.15-.3-.32-.3h-2.96c-2.33 0-3 1.19-3 2.4v.1a2 2 0 0 0 .61 1.58c-.38.21-.55.6-.55.97v.01c0 .43.19.87.62 1.06l.1.04a2.2 2.2 0 0 0-.85 1.72v.13c0 1.32.97 2.15 3.1 2.15 2.23 0 3.1-.8 3.1-2.1v-.1c0-1.28-1.27-1.66-2.6-2l-2.02-.51c-.32-.08-.42-.2-.42-.44 0-.2.1-.35.34-.46.39.16.85.27 1.57.27 2.08 0 3-.82 3-2.31v-.11c0-.73-.21-1.14-.45-1.4l.49-.1c.14-.02.24-.07.24-.25m-1.45 1.86c0 .8-.37 1.38-1.83 1.38-1.56 0-1.83-.79-1.83-1.38v-.11c0-.76.31-1.45 1.83-1.45 1.46 0 1.83.63 1.83 1.45zm.1 5.55c0 .75-.35 1.18-1.9 1.18-1.5 0-1.94-.47-1.94-1.23v-.13c0-.7.27-1.04.66-1.38l1.53.4c1.22.3 1.66.52 1.66 1.06zm4.15-9.52v-1.09a.27.27 0 0 0-.27-.27h-.69a.27.27 0 0 0-.27.27v1.09c0 .14.12.27.27.27h.69c.15 0 .27-.13.27-.27m-.03 8.64v-6.91a.27.27 0 0 0-.26-.27h-.66a.27.27 0 0 0-.27.27v6.9c0 .16.12.28.27.28h.65c.15 0 .27-.12.27-.27m7.72 0v-4.46c0-1.8-.73-2.82-2.35-2.82-.8 0-1.41.2-2.16.63v-.27c0-.15-.1-.27-.26-.27h-.67a.26.26 0 0 0-.26.27v6.9c0 .16.13.28.26.28h.66c.15 0 .27-.13.27-.27v-5.72a4.3 4.3 0 0 1 1.83-.53c1.03 0 1.5.43 1.5 1.8v4.45c0 .15.12.27.27.27h.64c.15 0 .27-.12.27-.27m7.68-3.37v-.73c0-1.93-1-3.17-2.97-3.17-1.95 0-3.01 1.23-3.01 3.17v1.22c0 2.52 1.51 3.25 3.07 3.25.9 0 1.65-.09 2.43-.23.21-.04.27-.14.27-.31v-.46c0-.14-.11-.2-.22-.2h-.07a18 18 0 0 1-2.4.15c-1.25 0-1.9-.59-1.9-2.2v-.2h4.55c.16 0 .25-.12.25-.3m-1.2-.61h-3.6v-.12c0-1.47.66-2.13 1.83-2.13 1.19 0 1.77.6 1.77 2.13zm8.7.6v-.72c0-1.93-1.01-3.17-2.99-3.17-1.94 0-3 1.23-3 3.17v1.22c0 2.52 1.5 3.25 3.07 3.25a13 13 0 0 0 2.42-.23c.22-.04.27-.14.27-.31v-.46c0-.14-.1-.2-.21-.2h-.07a18 18 0 0 1-2.41.15c-1.25 0-1.89-.6-1.89-2.2v-.2h4.54c.16 0 .26-.12.26-.3m-1.2-.6h-3.6v-.12c0-1.47.65-2.13 1.82-2.13 1.2 0 1.77.6 1.77 2.13zm6.2-2.5v-.55c0-.16-.08-.24-.28-.24-.6 0-1.23.17-1.9.64v-.28a.27.27 0 0 0-.26-.27h-.64a.26.26 0 0 0-.25.27v6.91c0 .16.12.28.25.28h.67c.14 0 .27-.14.27-.28v-5.67c.67-.4 1.24-.57 1.86-.57.2 0 .29-.08.29-.23m2.74-2.17v-1.08a.27.27 0 0 0-.28-.27h-.68a.27.27 0 0 0-.28.27v1.08c0 .15.13.27.28.27h.68c.16 0 .28-.12.28-.27m-.03 8.64v-6.9a.27.27 0 0 0-.27-.28h-.65a.27.27 0 0 0-.27.27v6.91c0 .16.12.28.27.28h.65c.15 0 .27-.12.27-.28m7.72 0v-4.45c0-1.8-.73-2.82-2.36-2.82a4 4 0 0 0-2.15.63v-.25a.26.26 0 0 0-.26-.27h-.68a.26.26 0 0 0-.25.27v6.9c0 .16.12.28.25.28h.67c.15 0 .27-.14.27-.27v-5.72a4.3 4.3 0 0 1 1.83-.53c1.03 0 1.5.42 1.5 1.79v4.46c0 .15.1.27.26.27h.65c.15 0 .27-.12.27-.27m8.03-6.53v-.35a.3.3 0 0 0-.3-.3h-2.98c-2.33 0-3 1.19-3 2.4v.1a2 2 0 0 0 .62 1.58c-.38.21-.56.6-.56.97v.01c0 .42.2.87.63 1.06l.09.04a2.2 2.2 0 0 0-.85 1.72v.12c0 1.33.97 2.16 3.12 2.16 2.22 0 3.09-.8 3.09-2.1v-.1c0-1.28-1.28-1.66-2.6-2l-2.03-.51c-.3-.09-.42-.2-.42-.44 0-.2.11-.35.34-.46.4.16.85.27 1.57.27 2.1 0 3.01-.82 3.01-2.32v-.1c0-.74-.21-1.14-.46-1.4l.49-.1c.15-.02.24-.08.24-.25m-1.45 1.85c0 .82-.36 1.39-1.83 1.39-1.56 0-1.83-.79-1.83-1.39v-.1c0-.76.32-1.45 1.83-1.45 1.47 0 1.83.63 1.83 1.44zm.11 5.56c0 .74-.35 1.18-1.9 1.18-1.5 0-1.95-.47-1.95-1.24v-.12c0-.7.27-1.04.67-1.38l1.53.4c1.22.3 1.65.52 1.65 1.05zm8.27-4.22c0 .25-.2.45-.45.45h-1.14a.45.45 0 0 1-.45-.45v-1.8c0-.26.2-.46.45-.46h1.14c.25 0 .45.2.45.45v1.8m12.23-.04v-6.15a.26.26 0 0 0-.25-.26h-.73a.25.25 0 0 0-.26.26v6.15c0 1.76-.54 2.7-2.2 2.7-1.68 0-2.22-.95-2.22-2.7v-6.15a.26.26 0 0 0-.25-.26h-.73a.26.26 0 0 0-.26.26v6.15c0 2.59 1.27 3.75 3.46 3.75 2.17 0 3.44-1.16 3.44-3.75m7.6 3.39v-4.46c0-1.8-.72-2.82-2.33-2.82-.8 0-1.41.2-2.15.62v-.26c0-.14-.1-.27-.26-.27h-.67a.26.26 0 0 0-.26.27v6.92c0 .15.13.27.26.27h.66c.15 0 .27-.14.27-.27v-5.72a4.24 4.24 0 0 1 1.82-.53c1.03 0 1.49.42 1.49 1.79v4.46c0 .15.12.27.26.27h.65c.15 0 .27-.12.27-.27m3.13-8.65v-1.08a.27.27 0 0 0-.27-.27h-.69a.27.27 0 0 0-.26.27v1.08c0 .15.12.27.26.27h.7c.14 0 .26-.12.26-.27m-.03 8.65v-6.91a.27.27 0 0 0-.27-.27h-.64a.27.27 0 0 0-.27.27v6.91c0 .15.12.27.27.27h.64c.15 0 .28-.12.28-.27m7.61-6.95c0-.13-.08-.23-.22-.23h-.73c-.11 0-.2.08-.26.26l-1.55 5.9c-.09.33-.17.4-.29.4-.13 0-.2-.07-.28-.4l-1.55-5.9c-.06-.18-.15-.26-.26-.26h-.74c-.13 0-.22.1-.22.23l.02.1 1.82 6.45c.18.6.63.76 1.21.76s1.04-.16 1.22-.76l1.82-6.45.01-.1m7.02 3.58v-.73c0-1.93-1-3.18-2.96-3.18-1.93 0-3 1.24-3 3.18v1.21c0 2.52 1.51 3.25 3.06 3.25.9 0 1.65-.08 2.41-.23.22-.03.28-.13.28-.3v-.47c0-.13-.11-.19-.22-.19h-.07c-.62.1-1.62.15-2.4.15-1.24 0-1.87-.6-1.87-2.2v-.2h4.51c.17 0 .26-.12.26-.3m-1.2-.6h-3.57v-.12c0-1.47.64-2.13 1.8-2.13 1.19 0 1.77.59 1.77 2.13zm6.12-2.5v-.55c0-.16-.1-.25-.29-.25-.6 0-1.22.18-1.9.65v-.28a.26.26 0 0 0-.25-.27h-.64a.26.26 0 0 0-.25.27v6.92c0 .14.12.27.25.27h.66c.15 0 .27-.14.27-.27v-5.68a3.42 3.42 0 0 1 1.86-.57c.2 0 .29-.08.29-.23m6.12 4.87c0-.8-.36-1.37-1.48-2.04l-1.33-.8c-.62-.37-.93-.62-.93-1.03 0-.7.5-.79 1.25-.79s1.62.07 2.1.11h.03c.14 0 .23-.07.23-.23v-.44c0-.15-.08-.25-.25-.28-.64-.1-1.35-.17-2.1-.17-1.4 0-2.45.39-2.45 1.8 0 .86.55 1.44 1.38 1.94l1.36.81c.77.46 1.01.72 1.01 1.12 0 .74-.46.97-1.34.97-.48 0-1.46-.07-2.1-.15h-.06c-.14 0-.25.08-.25.2v.48c0 .15.11.23.29.27.66.16 1.63.2 2.12.2 1.52 0 2.52-.58 2.52-1.97m2.82-7.04v-1.08a.27.27 0 0 0-.27-.27h-.69a.27.27 0 0 0-.27.27v1.08c0 .15.12.27.27.27h.69c.15 0 .27-.12.27-.27m-.03 8.65v-6.9a.27.27 0 0 0-.27-.27h-.65a.27.27 0 0 0-.26.27v6.91c0 .15.11.27.26.27h.65c.15 0 .27-.12.27-.27m5.94.07V135c0-.13-.1-.19-.28-.19h-.75c-.54 0-.74-.1-.74-.85v-4.73h1.46c.15 0 .27-.12.27-.27v-.47a.27.27 0 0 0-.27-.27h-1.46v-1.48c0-.13-.09-.23-.2-.23h-.04l-.7.11c-.15.03-.24.14-.24.27v1.33h-1.3c-.16 0-.27.1-.27.24v.37c0 .15.11.23.26.24l1.31.15v4.73c0 1.49.6 1.81 1.83 1.81.26 0 .6-.02.88-.06.17-.03.24-.11.24-.23m6.55-.07v-4.73c0-1.6-.76-2.55-2.63-2.55-.92 0-1.54.09-2.1.18-.18.03-.27.1-.27.26v.47c0 .18.12.22.24.22h.07c.53-.06 1.18-.11 2.06-.11 1.05 0 1.44.39 1.44 1.53v.54h-1c-2.4 0-3.25.73-3.25 2.2v.16c0 1.7 1.06 2.2 2.2 2.2a4.1 4.1 0 0 0 2.08-.67v.3c0 .15.12.27.27.27h.62c.15 0 .27-.12.27-.27m-1.19-1.15a3.7 3.7 0 0 1-1.82.54c-.78 0-1.24-.26-1.24-1.23v-.17c0-.96.43-1.32 2.06-1.32h1zm.34-7.52v-1.1c0-.13-.14-.27-.27-.27h-.53c-.13 0-.26.14-.26.27v1.1c0 .15.13.25.26.25h.53c.13 0 .27-.1.27-.25m-2.36 0v-1.1c0-.13-.14-.27-.27-.27h-.52c-.14 0-.28.14-.28.27v1.1c0 .15.14.25.28.25h.52c.13 0 .27-.1.27-.25m8.92 8.74V135c0-.14-.1-.2-.29-.2h-.75c-.54 0-.73-.1-.73-.85v-4.73h1.46c.15 0 .27-.12.27-.27v-.46a.27.27 0 0 0-.27-.27h-1.46v-1.48c0-.13-.1-.23-.2-.23h-.04l-.7.11c-.15.03-.24.14-.24.27v1.33h-1.31c-.15 0-.26.1-.26.25v.36c0 .15.1.23.26.24l1.3.15v4.73c0 1.5.6 1.82 1.84 1.82.26 0 .6-.03.87-.07.18-.03.25-.11.25-.23m11.19-6.84v-.18c0-2.18-1.6-2.94-3.78-2.94-.78 0-1.66.04-2.23.1-.2.03-.33.16-.33.35v9.44c0 .15.11.27.24.27h.73c.15 0 .24-.13.24-.27v-3.8c.36.02.92.06 1.35.06 2.19 0 3.78-.77 3.78-3.03m-1.23 0c0 1.4-.7 2-2.55 2-.35 0-1.04-.04-1.35-.05v-3.97c.33-.03.94-.06 1.35-.06 1.74 0 2.55.53 2.55 1.9zm8.48 3.83v-1.03c0-2-1.02-3.3-3-3.3s-3 1.3-3 3.3v1.03c0 2 1.02 3.3 3 3.3s3-1.3 3-3.3m-1.18 0c0 1.4-.57 2.26-1.82 2.26-1.27 0-1.81-.88-1.81-2.26v-1.03c0-1.4.55-2.26 1.8-2.26 1.28 0 1.83.88 1.83 2.26zm6.61 3V135c0-.14-.1-.2-.28-.2h-.75c-.54 0-.73-.1-.73-.85v-4.73h1.45c.15 0 .28-.12.28-.27v-.48a.27.27 0 0 0-.28-.27h-1.45v-1.48c0-.13-.1-.23-.2-.23h-.04l-.7.11c-.16.03-.24.14-.24.27v1.33h-1.31c-.15 0-.26.1-.26.25v.36c0 .15.1.23.26.25l1.3.14v4.73c0 1.5.6 1.82 1.84 1.82.25 0 .6-.03.87-.07.17-.03.24-.1.24-.23m6.17-1.67c0-.8-.36-1.38-1.48-2.04l-1.34-.8c-.62-.37-.92-.63-.92-1.03 0-.7.5-.79 1.25-.79s1.62.07 2.08.11h.05c.13 0 .23-.07.23-.23v-.44c0-.16-.08-.25-.26-.28-.63-.1-1.35-.17-2.1-.17-1.4 0-2.44.39-2.44 1.8 0 .85.55 1.43 1.37 1.93l1.36.82c.78.46 1.01.72 1.01 1.12 0 .73-.45.97-1.33.97-.48 0-1.47-.07-2.12-.15h-.05c-.13 0-.24.08-.24.2v.47c0 .15.1.23.28.27.66.17 1.63.2 2.13.2 1.51 0 2.52-.58 2.52-1.96m7.07 1.43v-9.49c0-.15-.1-.25-.24-.25h-.69a.25.25 0 0 0-.25.25v2.52a9.31 9.31 0 0 0-1.58-.13c-1.97 0-2.94 1.19-2.94 3.32v.97c0 2.03.93 3.35 2.94 3.35.82 0 1.65-.07 2.48-.23.24-.04.28-.14.28-.31m-1.18-.58c-.46.03-1.12.07-1.58.07-1.34 0-1.76-.82-1.76-2.3v-.97c0-1.45.44-2.28 1.76-2.28.43 0 1.13.01 1.58.1zm8.13.75v-4.73c0-1.6-.76-2.54-2.63-2.54-.92 0-1.54.08-2.09.17-.19.03-.28.1-.28.26v.47c0 .18.12.22.24.22h.07c.54-.05 1.18-.1 2.06-.1 1.05 0 1.45.38 1.45 1.52v.55h-1c-2.4 0-3.25.73-3.25 2.19v.16c0 1.7 1.05 2.2 2.2 2.2.75 0 1.43-.28 2.07-.66v.3c0 .14.12.26.27.26h.62c.15 0 .27-.12.27-.27m-1.18-1.15c-.65.35-1.2.54-1.83.54-.78 0-1.24-.26-1.24-1.23v-.16c0-.97.44-1.33 2.07-1.33h1zm11.96 1.15v-4.8c0-1.88-.97-2.49-2.18-2.49-.7 0-1.5.2-2.24.56-.33-.4-.77-.56-1.35-.56-.74 0-1.43.3-1.97.64v-.24c0-.15-.1-.27-.25-.27h-.67a.26.26 0 0 0-.26.27v6.91c0 .15.1.27.23.27h.71c.15 0 .24-.14.24-.27v-5.72a4.07 4.07 0 0 1 1.65-.53c.7 0 1.04.25 1.04 1.43v4.82c0 .15.1.27.23.27h.7c.16 0 .25-.14.25-.27v-4.82c0-.4-.04-.76-.12-1.06.53-.2 1.1-.37 1.58-.37.7 0 1.23.31 1.23 1.45v4.8c0 .15.12.27.27.27h.64c.15 0 .27-.12.27-.27"/>
  </g>
</svg>
