<svg xmlns="http://www.w3.org/2000/svg" width="326.38" height="151.59">
  <defs>
    <clipPath id="a">
      <path d="M0 0h245v114H0z"/>
    </clipPath>
  </defs>
  <g clip-path="url(#a)" transform="scale(1.3333)">
    <path fill="#4f5358" d="M242.41 110.3h-1.77c-1.2 0-1.3-.2-1.3-1.85V98.1h3c.37 0 .67-.3.67-.66v-1.95c0-.36-.3-.66-.67-.66h-3v-3.4c0-.33-.23-.5-.53-.5h-.13l-3.1.53c-.37.07-.67.3-.67.66v2.71h-3.13c-.37 0-.67.3-.67.66v1.49c0 .36.3.6.67.66l3.13.46v10.36c0 4.42 1.53 5.25 5.3 5.25.73 0 1.47-.1 2.27-.23.43-.07.63-.27.63-.6v-2.08c0-.33-.27-.5-.7-.5m-15.79-15.47h-3.06c-.37 0-.67.33-.67.7v13.19c-.93.5-2.54 1.32-3.77 1.32-1.03 0-1.6-.2-2.06-.59-.64-.57-.77-1.52-.77-3.17V95.51a.7.7 0 0 0-.67-.69h-3.06c-.37 0-.67.33-.67.7v10.75c0 2.74.43 4.79 1.67 6 .96.97 2.43 1.4 4.1 1.4 2.13 0 3.5-.54 5.23-1.66v.76c0 .36.3.66.67.66h3.06c.37 0 .67-.3.67-.66V95.52c0-.36-.3-.7-.67-.7m-19.43 15.48h-1.77c-1.2 0-1.3-.2-1.3-1.85V98.1h3c.37 0 .67-.3.67-.66v-1.95c0-.36-.3-.66-.67-.66h-3v-3.4c0-.33-.23-.49-.53-.49h-.13l-3.1.53c-.37.06-.67.3-.67.66v2.7h-3.13c-.37 0-.67.3-.67.66v1.49c0 .36.3.6.67.66l3.13.46v10.36c0 4.42 1.54 5.25 5.3 5.25.74 0 1.47-.1 2.27-.23.43-.07.63-.27.63-.6v-2.08c0-.33-.27-.49-.7-.49M191.4 88.12h-3.23c-.37 0-.7.3-.7.66v2.9c0 .37.33.66.7.66h3.23c.37 0 .66-.3.66-.65v-2.9c0-.37-.3-.67-.66-.67m-.1 6.7h-3.07c-.36 0-.66.3-.66.66v17.26c0 .36.3.7.66.7h3.07a.7.7 0 0 0 .67-.7V95.48c0-.36-.3-.66-.67-.66m-8.53 15.48H181c-1.2 0-1.3-.2-1.3-1.85V98.08h3c.37 0 .67-.3.67-.66v-1.94c0-.37-.3-.66-.67-.66h-3v-3.4c0-.33-.23-.5-.53-.5h-.14l-3.1.53c-.36.07-.66.3-.66.66v2.7h-3.14c-.36 0-.66.3-.66.67v1.48c0 .37.3.6.66.66l3.14.46v10.37c0 4.42 1.53 5.24 5.3 5.24.73 0 1.46-.1 2.26-.23.44-.06.64-.26.64-.6v-2.07c0-.33-.27-.5-.7-.5m-17.33-6.76l-4.37-2.64c-.83-.5-1.33-.83-1.33-1.35 0-1.03.7-1.39 2.3-1.39 1.9 0 4.56.26 5.5.4h.13c.33 0 .53-.24.53-.63v-1.91c0-.4-.2-.66-.6-.77a25.2 25.2 0 0 0-5.93-.65c-4.23 0-6.34 1.65-6.34 4.95a5.43 5.43 0 0 0 2.8 4.55l4.57 2.77c1.07.66 1.47 1.06 1.47 1.68 0 .9-.3 1.6-2.37 1.6-1 0-4-.18-5.6-.37h-.13c-.33 0-.57.26-.57.52v1.98c0 .4.24.67.64.76 1.86.5 4.66.66 5.96.66 4.37 0 6.53-2.27 6.53-5.15 0-1.68-.4-3.33-3.2-5.01m-20.52-8.94a8.7 8.7 0 0 0-5.4 1.58v-.7c0-.35-.3-.65-.67-.65h-2.9c-.37 0-.67.3-.67.66v17.26c0 .36.3.69.67.69h3.07c.36 0 .66-.33.66-.7V99.48c1.4-.73 2.64-1.19 3.77-1.19 2.56 0 2.83.83 2.83 3.7v10.75c0 .37.3.7.67.7H150a.7.7 0 0 0 .67-.7v-10.76c0-4.19-.96-7.39-5.76-7.39m-15.97-5.68h-3.3a.64.64 0 0 0-.66.63v23.24c0 .36.3.65.66.65h3.3c.37 0 .67-.3.67-.65V89.54c0-.37-.3-.63-.67-.63m115.21-26.32a7.7 7.7 0 0 0-4.72 1.58v-.7c0-.36-.3-.65-.66-.65h-2.87c-.37 0-.66.3-.66.66v17.26c0 .36.3.69.66.69h3.04c.35 0 .65-.33.65-.7V67.48a9.36 9.36 0 0 1 4.56-1.19c.36 0 .66-.3.66-.66v-2.38c0-.36-.3-.65-.66-.65m-23.8 7.82c0-2.61 1.49-4.06 3.53-4.06s3.47 1.48 3.47 4.06v.13h-7zm10.73 3.23c.46 0 .66-.3.66-.83v-1.84c0-4.92-2.77-8.38-7.86-8.38-5.04 0-7.91 3.23-7.91 8.38v2.44c0 6.5 4.68 8.28 7.98 8.28 2.97 0 4.26-.16 6.4-.56.6-.1.7-.33.7-.86V78.1c0-.33-.27-.5-.6-.5h-.1a65.3 65.3 0 0 1-6.07.33c-3.16 0-3.96-2.28-3.96-4.19v-.1zm-18.61 7.1V69.98c0-4.2-.96-7.4-5.71-7.4-2.18 0-3.43.37-5.35 1.59v-.7c0-.36-.3-.65-.66-.65h-2.87c-.36 0-.66.3-.66.66v17.26c0 .36.3.69.66.69h3.04c.36 0 .66-.33.66-.7V67.48c1.38-.73 2.6-1.19 3.73-1.19 2.54 0 2.8.83 2.8 3.7v10.76c0 .36.3.69.66.69h3.04c.36 0 .66-.33.66-.7m-19.5-2.44h-1.75c-1.19 0-1.3-.2-1.3-1.84V66.08h2.98c.36 0 .66-.3.66-.66v-1.94c0-.37-.3-.66-.66-.66h-2.97v-3.4c0-.33-.23-.5-.53-.5h-.13l-3.07.53c-.36.07-.66.3-.66.66v2.7h-2.15c-.36 0-.66.3-.66.67v1.48c0 .37.3.6.66.66l2.15.46v10.37c0 4.42 1.52 5.24 5.25 5.24.72 0 1.45-.1 2.24-.23.43-.06.63-.26.63-.6V78.8c0-.33-.26-.5-.7-.5m-19.63-1.84c0 4.42 1.52 5.24 5.25 5.24.72 0 1.45-.1 2.24-.23.43-.06.63-.26.63-.6V78.8c0-.33-.26-.5-.7-.5h-1.74c-1.2 0-1.3-.2-1.3-1.84V66.08h2.03c.36 0 .66-.3.66-.66v-1.94c0-.37-.3-.66-.66-.66h-2.02v-3.4c0-.33-.23-.5-.53-.5h-.13l-3.07.53c-.36.07-.66.3-.66.66v2.7h-3.1c-.36 0-.66.3-.66.67v1.48c0 .37.3.6.66.66l3.1.46zm-15.84-.26v-.14c0-1.85.66-2.8 3.66-2.8h2.08v4.05a7.2 7.2 0 0 1-3.36.93c-1.65 0-2.38-.43-2.38-2.04m5.97 4.05v.53c0 .36.3.66.66.66h2.8c.37 0 .67-.3.67-.66V68.9c0-4.22-2.58-6.3-7.26-6.3-2.28 0-4.2.26-5.51.52-.43.1-.63.33-.63.7v2.11c0 .46.26.56.6.56h.16c1.09-.13 3.27-.26 5.38-.26 1.95 0 2.9.52 2.9 2.67v1.45h-2.08c-5.74 0-8.05 1.95-8.05 5.7v.15c0 4.45 2.97 5.5 5.71 5.5 1.59 0 3.13-.52 4.65-1.45m-17.59 1.19h3.07c.37 0 .63-.33.63-.7V56.98c0-.36-.26-.66-.63-.66h-3.07c-.36 0-.66.3-.66.66v23.77c0 .36.3.69.66.69m-8.44-16.87c0 2.65-1.39 3.97-4.95 3.97-.56 0-2.41-.07-2.94-.1v-7.86c.6-.06 2.24-.13 2.94-.13 3.3 0 4.95 1.06 4.95 3.83zm4.55 0v-.29c0-5.84-4.42-7.62-9.5-7.62-2.41 0-4.76.16-6.47.43-.66.1-1.06.33-1.06.98v22.71c0 .36.3.66.66.66h3.3c.37 0 .63-.3.63-.66v-8.62c.76.04 2.08.14 2.94.14 5.08 0 9.5-1.88 9.5-7.73m60.27-25.76c0-2.7 1.22-4.45 3.53-4.45 2.31 0 3.53 1.75 3.53 4.45v2.67c0 2.71-1.22 4.46-3.53 4.46-2.3 0-3.53-1.75-3.53-4.46zm3.53 10.9c5.18 0 7.9-3.5 7.9-8.23V38.8c0-4.72-2.72-8.21-7.9-8.21s-7.88 3.5-7.88 8.21v2.67c0 4.73 2.7 8.22 7.88 8.22m-14.12-10.16l-4.32-2.64c-.83-.5-1.32-.83-1.32-1.35 0-1.03.69-1.39 2.28-1.39 1.87 0 4.51.27 5.44.4h.13c.33 0 .53-.24.53-.63v-1.91c0-.4-.2-.66-.6-.76-1.68-.37-3.2-.66-5.87-.66-4.2 0-6.27 1.65-6.27 4.95a5.44 5.44 0 0 0 2.77 4.55l4.53 2.77c1.05.66 1.44 1.06 1.44 1.68 0 .9-.3 1.6-2.34 1.6-.99 0-3.96-.18-5.54-.37h-.13a.55.55 0 0 0-.57.52v1.98c0 .4.24.67.63.76 1.85.5 4.62.66 5.9.66 4.33 0 6.48-2.27 6.48-5.15 0-1.68-.4-3.33-3.17-5.01m-23.36.56l4.51 2.77c1.06.66 1.46 1.06 1.46 1.68 0 .9-.3 1.6-2.35 1.6-.99 0-3.96-.18-5.54-.37h-.13a.55.55 0 0 0-.56.52v1.98c0 .4.23.67.62.76 1.85.5 4.62.66 5.91.66 4.33 0 6.47-2.27 6.47-5.15 0-1.68-.4-3.33-3.17-5.01l-4.32-2.64c-.83-.5-1.32-.83-1.32-1.35 0-1.03.7-1.39 2.27-1.39 1.89 0 4.53.27 5.45.4h.13c.33 0 .53-.24.53-.63v-1.91c0-.4-.2-.66-.6-.76-1.68-.37-3.2-.66-5.86-.66-4.2 0-6.28 1.65-6.28 4.95a5.44 5.44 0 0 0 2.78 4.55m-16.5 3.96c0-1.85.66-2.8 3.66-2.8h2.08v4.05a7.2 7.2 0 0 1-3.37.93c-1.65 0-2.37-.43-2.37-2.05zm1.32 5.64a8.9 8.9 0 0 0 4.65-1.45v.53c0 .36.3.66.66.66h2.8c.37 0 .66-.3.66-.66V36.9c0-4.22-2.57-6.3-7.25-6.3-2.29 0-4.2.26-5.52.52-.43.1-.62.33-.62.7v2.11c0 .46.26.56.59.56h.17c1.08-.13 3.26-.26 5.38-.26 1.94 0 2.9.52 2.9 2.67v1.45h-2.08c-5.74 0-8.06 1.95-8.06 5.7v.14c0 4.46 2.98 5.51 5.72 5.51m-27.54-.26h3.26c.37 0 .67-.3.67-.66v-10.1h9.37v10.1c0 .36.3.66.66.66h3.26c.37 0 .66-.3.66-.66V25.54c0-.37-.3-.63-.66-.63h-3.26c-.37 0-.66.26-.66.63v9.1h-9.37v-9.1c0-.37-.3-.63-.67-.63h-3.26c-.37 0-.66.26-.66.63v23.23c0 .36.3.66.66.66"/>
    <path fill="#b00c36" d="M0 14.18h99.21v99.2H0z"/>
    <path fill="#f89c0e" d="M28.35 0h85.04v85.04H28.34z"/>
    <path fill="#e25517" d="M28.35 14.18H99.2v70.86H28.35z"/>
    <path fill="#fff" d="M87.61 25.18h-3.26c-.37 0-.66.27-.66.63v23.23c0 .37.3.66.66.66h3.26c.37 0 .66-.3.66-.66V25.8c0-.36-.3-.63-.66-.63m-12.3 7.66c0 2.64-1.38 3.96-4.95 3.96-.56 0-2.4-.07-2.93-.1v-7.85c.59-.07 2.24-.14 2.93-.14 3.3 0 4.95 1.06 4.95 3.83zm-4.95-7.92c-2.4 0-4.75.16-6.46.43-.67.1-1.06.33-1.06.99v22.7c0 .37.3.66.66.66h3.3c.36 0 .63-.3.63-.66v-8.61c.75.03 2.07.13 2.93.13 5.08 0 9.5-1.88 9.5-7.72v-.3c0-5.84-4.42-7.62-9.5-7.62m-13.19.26h-3.26c-.37 0-.66.26-.66.63v9.1h-9.38v-9.1c0-.37-.3-.63-.66-.63h-3.27c-.36 0-.66.26-.66.63v23.23c0 .37.3.66.66.66h3.27c.37 0 .66-.3.66-.66v-10.1h9.38v10.1c0 .37.3.66.66.66h3.26c.36 0 .66-.3.66-.66V25.8c0-.36-.3-.63-.66-.63"/>
  </g>
</svg>
