<svg xmlns="http://www.w3.org/2000/svg" xml:space="preserve" height="512" width="802.67" version="1.1" viewBox="0 0 802.66663 512"><defs><clipPath clipPathUnits="userSpaceOnUse"><path clip-rule="evenodd" d="m0 0h602v385h-602z"/></clipPath><clipPath id="dx" clipPathUnits="userSpaceOnUse"><path clip-rule="evenodd" d="m0 0h602v385h-602z"/></clipPath><clipPath id="ee" clipPathUnits="userSpaceOnUse"><path clip-rule="evenodd" d="m0 0h602v384h-602z"/></clipPath><clipPath id="dp" clipPathUnits="userSpaceOnUse"><path clip-rule="evenodd" d="m0 0h602v385h-602z"/></clipPath><clipPath id="dq" clipPathUnits="userSpaceOnUse"><path clip-rule="evenodd" d="m0 0h602v384h-602z"/></clipPath><clipPath clipPathUnits="userSpaceOnUse"><path clip-rule="evenodd" d="m37 247h43v26h-43z"/></clipPath><clipPath id="dr" clipPathUnits="userSpaceOnUse"><path clip-rule="evenodd" d="m0 0h602v385h-602z"/></clipPath><clipPath id="ds" clipPathUnits="userSpaceOnUse"><path clip-rule="evenodd" d="m0 0h602v384h-602z"/></clipPath><clipPath id="dt" clipPathUnits="userSpaceOnUse"><path clip-rule="evenodd" d="m37 247h43v26h-43z"/></clipPath><clipPath clipPathUnits="userSpaceOnUse"><path clip-rule="evenodd" d="m37 247.5h43v25h-43z"/></clipPath><clipPath clipPathUnits="userSpaceOnUse"><path clip-rule="evenodd" d="m0 0h602v385h-602z"/></clipPath><clipPath id="du" clipPathUnits="userSpaceOnUse"><path clip-rule="evenodd" d="m0 0h602v385h-602z"/></clipPath><clipPath clipPathUnits="userSpaceOnUse"><path clip-rule="evenodd" d="m0 0h602v384h-602z"/></clipPath><clipPath id="dv" clipPathUnits="userSpaceOnUse"><path clip-rule="evenodd" d="m0 0h602v385h-602z"/></clipPath><clipPath id="dw" clipPathUnits="userSpaceOnUse"><path clip-rule="evenodd" d="m0 0h602v384h-602z"/></clipPath><clipPath clipPathUnits="userSpaceOnUse"><path clip-rule="evenodd" d="m37 247h43v26h-43z"/></clipPath><clipPath id="dy" clipPathUnits="userSpaceOnUse"><path clip-rule="evenodd" d="m0 0h602v385h-602z"/></clipPath><clipPath id="dz" clipPathUnits="userSpaceOnUse"><path clip-rule="evenodd" d="m0 0h602v384h-602z"/></clipPath><clipPath id="ea" clipPathUnits="userSpaceOnUse"><path clip-rule="evenodd" d="m37 247h43v26h-43z"/></clipPath><clipPath clipPathUnits="userSpaceOnUse"><path clip-rule="evenodd" d="m37 247.5h43v25h-43z"/></clipPath><clipPath id="eb" clipPathUnits="userSpaceOnUse"><path clip-rule="evenodd" d="m0 0h602v385h-602z"/></clipPath><clipPath id="ec" clipPathUnits="userSpaceOnUse"><path clip-rule="evenodd" d="m0 0h602v384h-602z"/></clipPath><clipPath id="ed" clipPathUnits="userSpaceOnUse"><path clip-rule="evenodd" d="m37 247h43v26h-43z"/></clipPath><clipPath id="ef" clipPathUnits="userSpaceOnUse"><path clip-rule="evenodd" d="m37 247.5h43v25h-43z"/></clipPath><clipPath clipPathUnits="userSpaceOnUse"><path clip-rule="evenodd" d="m37 247.5h43v25h-43z"/></clipPath><clipPath clipPathUnits="userSpaceOnUse"><path clip-rule="evenodd" d="m0 0h602v385h-602z"/></clipPath><clipPath id="eg" clipPathUnits="userSpaceOnUse"><path clip-rule="evenodd" d="m0 0h602v385h-602z"/></clipPath><clipPath clipPathUnits="userSpaceOnUse"><path clip-rule="evenodd" d="m0 0h602v384h-602z"/></clipPath><clipPath id="eh" clipPathUnits="userSpaceOnUse"><path clip-rule="evenodd" d="m0 0h602v385h-602z"/></clipPath><clipPath id="ei" clipPathUnits="userSpaceOnUse"><path clip-rule="evenodd" d="m0 0h602v384h-602z"/></clipPath><clipPath clipPathUnits="userSpaceOnUse"><path clip-rule="evenodd" d="m37 247h43v26h-43z"/></clipPath><clipPath id="ej" clipPathUnits="userSpaceOnUse"><path clip-rule="evenodd" d="m0 0h602v385h-602z"/></clipPath><clipPath id="a" clipPathUnits="userSpaceOnUse"><path clip-rule="evenodd" d="m0 0h602v384h-602z"/></clipPath><clipPath id="b" clipPathUnits="userSpaceOnUse"><path clip-rule="evenodd" d="m37 247h43v26h-43z"/></clipPath><clipPath clipPathUnits="userSpaceOnUse"><path clip-rule="evenodd" d="m37 247.5h43v25h-43z"/></clipPath><clipPath clipPathUnits="userSpaceOnUse"><path clip-rule="evenodd" d="m0 0h602v385h-602z"/></clipPath><clipPath id="c" clipPathUnits="userSpaceOnUse"><path clip-rule="evenodd" d="m0 0h602v385h-602z"/></clipPath><clipPath clipPathUnits="userSpaceOnUse"><path clip-rule="evenodd" d="m0 0h602v384h-602z"/></clipPath><clipPath id="h" clipPathUnits="userSpaceOnUse"><path clip-rule="evenodd" d="m0 0h602v385h-602z"/></clipPath><clipPath id="l" clipPathUnits="userSpaceOnUse"><path clip-rule="evenodd" d="m0 0h602v384h-602z"/></clipPath><clipPath clipPathUnits="userSpaceOnUse"><path clip-rule="evenodd" d="m37 247h43v26h-43z"/></clipPath><clipPath clipPathUnits="userSpaceOnUse"><path clip-rule="evenodd" d="m0 0h602v385h-602z"/></clipPath><clipPath id="q" clipPathUnits="userSpaceOnUse"><path clip-rule="evenodd" d="m0 0h602v385h-602z"/></clipPath><clipPath id="r" clipPathUnits="userSpaceOnUse"><path clip-rule="evenodd" d="m0 0h602v384h-602z"/></clipPath><clipPath id="s" clipPathUnits="userSpaceOnUse"><path clip-rule="evenodd" d="m0 0h602v385h-602z"/></clipPath><clipPath id="t" clipPathUnits="userSpaceOnUse"><path clip-rule="evenodd" d="m0 0h602v384h-602z"/></clipPath><clipPath clipPathUnits="userSpaceOnUse"><path clip-rule="evenodd" d="m21 83h83v40h-83z"/></clipPath><clipPath id="u" clipPathUnits="userSpaceOnUse"><path clip-rule="evenodd" d="m0 0h602v385h-602z"/></clipPath><clipPath id="v" clipPathUnits="userSpaceOnUse"><path clip-rule="evenodd" d="m0 0h602v384h-602z"/></clipPath><clipPath id="w" clipPathUnits="userSpaceOnUse"><path clip-rule="evenodd" d="m21 83h83v40h-83z"/></clipPath><clipPath clipPathUnits="userSpaceOnUse"><path clip-rule="evenodd" d="m21 83h83v40h-83z"/></clipPath><clipPath id="x" clipPathUnits="userSpaceOnUse"><path clip-rule="evenodd" d="m0 0h602v385h-602z"/></clipPath><clipPath id="y" clipPathUnits="userSpaceOnUse"><path clip-rule="evenodd" d="m0 0h602v384h-602z"/></clipPath><clipPath id="ag" clipPathUnits="userSpaceOnUse"><path clip-rule="evenodd" d="m21 83h83v40h-83z"/></clipPath><clipPath id="cc" clipPathUnits="userSpaceOnUse"><path clip-rule="evenodd" d="m21 83h83v40h-83z"/></clipPath><clipPath clipPathUnits="userSpaceOnUse"><path clip-rule="evenodd" d="m21 83h83v40h-83z"/></clipPath><clipPath clipPathUnits="userSpaceOnUse"><path clip-rule="evenodd" d="m0 0h602v385h-602z"/></clipPath><clipPath id="ae" clipPathUnits="userSpaceOnUse"><path clip-rule="evenodd" d="m0 0h602v385h-602z"/></clipPath><clipPath clipPathUnits="userSpaceOnUse"><path clip-rule="evenodd" d="m0 0h602v384h-602z"/></clipPath><clipPath id="ah" clipPathUnits="userSpaceOnUse"><path clip-rule="evenodd" d="m0 0h602v385h-602z"/></clipPath><clipPath id="an" clipPathUnits="userSpaceOnUse"><path clip-rule="evenodd" d="m0 0h602v384h-602z"/></clipPath><clipPath clipPathUnits="userSpaceOnUse"><path clip-rule="evenodd" d="m21 83h83v40h-83z"/></clipPath><clipPath id="ar" clipPathUnits="userSpaceOnUse"><path clip-rule="evenodd" d="m0 0h602v385h-602z"/></clipPath><clipPath id="av" clipPathUnits="userSpaceOnUse"><path clip-rule="evenodd" d="m0 0h602v384h-602z"/></clipPath><clipPath id="ax" clipPathUnits="userSpaceOnUse"><path clip-rule="evenodd" d="m21 83h83v40h-83z"/></clipPath><clipPath clipPathUnits="userSpaceOnUse"><path clip-rule="evenodd" d="m21 83h83v40h-83z"/></clipPath><clipPath id="ay" clipPathUnits="userSpaceOnUse"><path clip-rule="evenodd" d="m0 0h602v385h-602z"/></clipPath><clipPath id="bc" clipPathUnits="userSpaceOnUse"><path clip-rule="evenodd" d="m0 0h602v384h-602z"/></clipPath><clipPath id="bf" clipPathUnits="userSpaceOnUse"><path clip-rule="evenodd" d="m21 83h83v40h-83z"/></clipPath><clipPath id="bg" clipPathUnits="userSpaceOnUse"><path clip-rule="evenodd" d="m21 83h83v40h-83z"/></clipPath><clipPath clipPathUnits="userSpaceOnUse"><path clip-rule="evenodd" d="m21 83h83v40h-83z"/></clipPath><clipPath id="bh" clipPathUnits="userSpaceOnUse"><path clip-rule="evenodd" d="m0 0h602v385h-602z"/></clipPath><clipPath id="bj" clipPathUnits="userSpaceOnUse"><path clip-rule="evenodd" d="m0 0h602v384h-602z"/></clipPath><clipPath id="bm" clipPathUnits="userSpaceOnUse"><path clip-rule="evenodd" d="m21 83h83v40h-83z"/></clipPath><clipPath id="bn" clipPathUnits="userSpaceOnUse"><path clip-rule="evenodd" d="m21 83h83v40h-83z"/></clipPath><clipPath id="bq" clipPathUnits="userSpaceOnUse"><path clip-rule="evenodd" d="m21 83h83v40h-83z"/></clipPath><clipPath clipPathUnits="userSpaceOnUse"><path d="m-7.6039 49.953h139.88v108.09h-139.88z"/></clipPath><clipPath clipPathUnits="userSpaceOnUse"><path clip-rule="evenodd" d="m0 0h602v385h-602z"/></clipPath><clipPath id="bs" clipPathUnits="userSpaceOnUse"><path clip-rule="evenodd" d="m0 0h602v385h-602z"/></clipPath><clipPath clipPathUnits="userSpaceOnUse"><path clip-rule="evenodd" d="m0 0h602v384h-602z"/></clipPath><clipPath id="bt" clipPathUnits="userSpaceOnUse"><path clip-rule="evenodd" d="m0 0h602v385h-602z"/></clipPath><clipPath id="bx" clipPathUnits="userSpaceOnUse"><path clip-rule="evenodd" d="m0 0h602v384h-602z"/></clipPath><clipPath clipPathUnits="userSpaceOnUse"><path clip-rule="evenodd" d="m21 83h83v40h-83z"/></clipPath><clipPath id="ca" clipPathUnits="userSpaceOnUse"><path clip-rule="evenodd" d="m0 0h602v385h-602z"/></clipPath><clipPath id="cd" clipPathUnits="userSpaceOnUse"><path clip-rule="evenodd" d="m0 0h602v384h-602z"/></clipPath><clipPath id="ci" clipPathUnits="userSpaceOnUse"><path clip-rule="evenodd" d="m21 83h83v40h-83z"/></clipPath><clipPath clipPathUnits="userSpaceOnUse"><path clip-rule="evenodd" d="m21 83h83v40h-83z"/></clipPath><clipPath id="cm" clipPathUnits="userSpaceOnUse"><path clip-rule="evenodd" d="m0 0h602v385h-602z"/></clipPath><clipPath id="cp" clipPathUnits="userSpaceOnUse"><path clip-rule="evenodd" d="m0 0h602v384h-602z"/></clipPath><clipPath id="cr" clipPathUnits="userSpaceOnUse"><path clip-rule="evenodd" d="m21 83h83v40h-83z"/></clipPath><clipPath id="cs" clipPathUnits="userSpaceOnUse"><path clip-rule="evenodd" d="m21 83h83v40h-83z"/></clipPath><clipPath clipPathUnits="userSpaceOnUse"><path clip-rule="evenodd" d="m21 83h83v40h-83z"/></clipPath><clipPath clipPathUnits="userSpaceOnUse"><path clip-rule="evenodd" d="m0 0h602v385h-602z"/></clipPath><clipPath id="ct" clipPathUnits="userSpaceOnUse"><path clip-rule="evenodd" d="m0 0h602v385h-602z"/></clipPath><clipPath clipPathUnits="userSpaceOnUse"><path clip-rule="evenodd" d="m0 0h602v384h-602z"/></clipPath><clipPath id="cu" clipPathUnits="userSpaceOnUse"><path clip-rule="evenodd" d="m0 0h602v385h-602z"/></clipPath><clipPath id="cv" clipPathUnits="userSpaceOnUse"><path clip-rule="evenodd" d="m0 0h602v384h-602z"/></clipPath><clipPath clipPathUnits="userSpaceOnUse"><path clip-rule="evenodd" d="m21 83h83v40h-83z"/></clipPath><clipPath id="cw" clipPathUnits="userSpaceOnUse"><path clip-rule="evenodd" d="m0 0h602v385h-602z"/></clipPath><clipPath id="cx" clipPathUnits="userSpaceOnUse"><path clip-rule="evenodd" d="m0 0h602v384h-602z"/></clipPath><clipPath id="cy" clipPathUnits="userSpaceOnUse"><path clip-rule="evenodd" d="m21 83h83v40h-83z"/></clipPath><clipPath clipPathUnits="userSpaceOnUse"><path clip-rule="evenodd" d="m21 83h83v40h-83z"/></clipPath><clipPath id="cz" clipPathUnits="userSpaceOnUse"><path clip-rule="evenodd" d="m0 0h602v385h-602z"/></clipPath><clipPath id="da" clipPathUnits="userSpaceOnUse"><path clip-rule="evenodd" d="m0 0h602v384h-602z"/></clipPath><clipPath id="db" clipPathUnits="userSpaceOnUse"><path clip-rule="evenodd" d="m21 83h83v40h-83z"/></clipPath><clipPath id="dc" clipPathUnits="userSpaceOnUse"><path clip-rule="evenodd" d="m21 83h83v40h-83z"/></clipPath><clipPath clipPathUnits="userSpaceOnUse"><path clip-rule="evenodd" d="m21 83h83v40h-83z"/></clipPath><clipPath clipPathUnits="userSpaceOnUse"><path clip-rule="evenodd" d="m0 0h602v385h-602z"/></clipPath><clipPath id="dd" clipPathUnits="userSpaceOnUse"><path clip-rule="evenodd" d="m0 0h602v385h-602z"/></clipPath><clipPath clipPathUnits="userSpaceOnUse"><path clip-rule="evenodd" d="m0 0h602v384h-602z"/></clipPath><clipPath id="de" clipPathUnits="userSpaceOnUse"><path clip-rule="evenodd" d="m0 0h602v385h-602z"/></clipPath><clipPath id="df" clipPathUnits="userSpaceOnUse"><path clip-rule="evenodd" d="m0 0h602v384h-602z"/></clipPath><clipPath clipPathUnits="userSpaceOnUse"><path clip-rule="evenodd" d="m21 83h83v40h-83z"/></clipPath><clipPath id="dg" clipPathUnits="userSpaceOnUse"><path clip-rule="evenodd" d="m0 0h602v385h-602z"/></clipPath><clipPath id="dh" clipPathUnits="userSpaceOnUse"><path clip-rule="evenodd" d="m0 0h602v384h-602z"/></clipPath><clipPath id="di" clipPathUnits="userSpaceOnUse"><path clip-rule="evenodd" d="m21 83h83v40h-83z"/></clipPath><clipPath clipPathUnits="userSpaceOnUse"><path clip-rule="evenodd" d="m21 83h83v40h-83z"/></clipPath><clipPath clipPathUnits="userSpaceOnUse"><path clip-rule="evenodd" d="m0 0h602v385h-602z"/></clipPath><clipPath id="dj" clipPathUnits="userSpaceOnUse"><path clip-rule="evenodd" d="m0 0h602v385h-602z"/></clipPath><clipPath clipPathUnits="userSpaceOnUse"><path clip-rule="evenodd" d="m0 0h602v384h-602z"/></clipPath><clipPath id="dk" clipPathUnits="userSpaceOnUse"><path clip-rule="evenodd" d="m0 0h602v385h-602z"/></clipPath><clipPath id="dl" clipPathUnits="userSpaceOnUse"><path clip-rule="evenodd" d="m0 0h602v384h-602z"/></clipPath><clipPath clipPathUnits="userSpaceOnUse"><path clip-rule="evenodd" d="m21 83h83v40h-83z"/></clipPath><clipPath clipPathUnits="userSpaceOnUse"><path clip-rule="evenodd" d="m0 0h602v385h-602z"/></clipPath><clipPath id="dm" clipPathUnits="userSpaceOnUse"><path clip-rule="evenodd" d="m0 0h602v385h-602z"/></clipPath><clipPath id="dn" clipPathUnits="userSpaceOnUse"><path clip-rule="evenodd" d="m0 0h602v384h-602z"/></clipPath><clipPath clipPathUnits="userSpaceOnUse"><path clip-rule="evenodd" d="m0 0h602v385h-602z"/></clipPath><clipPath id="do" clipPathUnits="userSpaceOnUse"><path clip-rule="evenodd" d="m0 0h602v385h-602z"/></clipPath><clipPath clipPathUnits="userSpaceOnUse"><path clip-rule="evenodd" d="m0 0h602v384h-602z"/></clipPath><clipPath clipPathUnits="userSpaceOnUse"><path clip-rule="evenodd" d="m0 0h602v385h-602z"/></clipPath><clipPath id="ab" clipPathUnits="userSpaceOnUse"><path d="m0 612h792v-612h-792z"/></clipPath><clipPath id="z" clipPathUnits="userSpaceOnUse"><path d="m331.02 424.87h116.24v-113.76h-116.24z"/></clipPath></defs><g transform="matrix(1.3333 0 0 -1.3333 0 513.33)"><g transform="matrix(1,0,0,-1,0,385)"><g clip-path="url(#dx)"><g clip-path="url(#ee)"><path fill="#fff" d="m14 189h574c7.1797 0 13 5.8203 13 13v104c0 7.1797-5.8203 13-13 13h-574c-7.1797 0-13-5.82-13-13v-104c0-7.1797 5.8203-13 13-13z"/><path d="m14 189h574c7.1797 0 13 5.8203 13 13v104c0 7.1797-5.8203 13-13 13h-574c-7.1797 0-13-5.82-13-13v-104c0-7.1797 5.8203-13 13-13z" stroke="#429bf9" stroke-dasharray="6, 6" stroke-miterlimit="10" stroke-width="2" fill="none"/><path fill="#fff" d="m14 38h574c7.1797 0 13 5.8203 13 13v104c0 7.1797-5.8203 13-13 13h-574c-7.1797 0-13-5.82-13-13v-104c0-7.18 5.8203-13 13-13z"/><path d="m14 38h574c7.1797 0 13 5.8203 13 13v104c0 7.1797-5.8203 13-13 13h-574c-7.1797 0-13-5.82-13-13v-104c0-7.18 5.8203-13 13-13z" stroke="#429bf9" stroke-dasharray="6, 6" stroke-miterlimit="10" stroke-width="2" fill="none"/><g transform="translate(.5 .5)"><path fill="#fff2cc" d="m461 260h90v40h-90z"/></g><g transform="translate(.5 .5)"><path stroke="#d6b656" fill="none" stroke-miterlimit="10" d="m461 260h90v40h-90z"/></g><path fill="#d5e8d4" d="m152.5 68.5h99c5.799 0 10.5 4.701 10.5 10.5v49c0 5.799-4.701 10.5-10.5 10.5h-99c-5.8 0-10.5-4.7-10.5-10.5v-49c0-5.799 4.701-10.5 10.5-10.5z"/><g transform="translate(.5 .5)"><path stroke="#82b366" fill="none" stroke-miterlimit="10" d="m152 68h99c5.799 0 10.5 4.701 10.5 10.5v49c0 5.799-4.701 10.5-10.5 10.5h-99c-5.799 0-10.5-4.701-10.5-10.5v-49c0-5.799 4.7-10.5 10.5-10.5z"/></g><g transform="translate(.5 .5)"><path fill="#f8cecc" d="m461 110h90v40h-90z"/></g><g transform="translate(.5 .5)"><path stroke="#b85450" fill="none" stroke-miterlimit="10" d="m461 110h90v40h-90z"/></g><g transform="translate(.5 .5)"><path d="m307.25 0h94.5c11.18 0 20.25 9.0662 20.25 20.25v342.5c0 11.184-9.0662 20.25-20.25 20.25h-94.5c-11.18 0-20.25-9.07-20.25-20.25v-342.5c0-11.184 9.07-20.25 20.25-20.25z" stroke="#429bf9" stroke-dasharray="3, 3" stroke-miterlimit="10" fill="none"/></g><g transform="translate(.5 .5)"><path fill="#ffe6cc" d="m309 60h90v40h-90z"/></g><g transform="translate(.5 .5)"><path stroke="#d79b00" fill="none" stroke-miterlimit="10" d="m309 60h90v40h-90z"/></g><g transform="translate(.5 .5)"><path fill="#f8cecc" d="m309 109h90v40h-90z"/></g><g transform="translate(.5 .5)"><path stroke="#b85450" fill="none" stroke-miterlimit="10" d="m309 109h90v40h-90z"/></g></g></g><g clip-path="url(#dp)"><g clip-path="url(#dq)"/></g><g clip-path="url(#dr)"><g clip-path="url(#ds)"><g clip-path="url(#dt)"/></g></g><g clip-path="url(#du)"/><g clip-path="url(#dv)"><g clip-path="url(#dw)"/></g><g clip-path="url(#dy)"><g clip-path="url(#dz)"><g clip-path="url(#ea)"/></g></g><g clip-path="url(#eb)"><g clip-path="url(#ec)"><g clip-path="url(#ed)"><g clip-path="url(#ef)"/></g></g></g><g clip-path="url(#eg)"/><g clip-path="url(#eh)"><g clip-path="url(#ei)"/></g><g clip-path="url(#ej)"><g clip-path="url(#a)"><g clip-path="url(#b)"/></g></g><g clip-path="url(#c)"/><g clip-path="url(#h)"><g clip-path="url(#l)"/></g><g clip-path="url(#q)"><g clip-path="url(#r)"><g transform="translate(.5 .5)"><path d="m461 205h90v40h-90z" fill="#ffe6cc"/></g><g transform="translate(.5 .5)"><path stroke="#d79b00" stroke-miterlimit="10" d="m461 205h90v40h-90z" fill="none"/></g></g></g><g clip-path="url(#s)"><g clip-path="url(#t)"/></g><g clip-path="url(#u)"><g clip-path="url(#v)"><g clip-path="url(#w)"/></g></g><g clip-path="url(#x)"><g clip-path="url(#y)"><g clip-path="url(#ag)"><g clip-path="url(#cc)"/></g></g></g><g clip-path="url(#ae)"/><g clip-path="url(#ah)"><g clip-path="url(#an)"/></g><g clip-path="url(#ar)"><g clip-path="url(#av)"><g clip-path="url(#ax)"/></g></g><g clip-path="url(#ay)"><g clip-path="url(#bc)"><g clip-path="url(#bf)"><g clip-path="url(#bg)"/></g></g></g><g clip-path="url(#bh)"><g clip-path="url(#bj)"><g clip-path="url(#bm)"><g clip-path="url(#bn)"><g clip-path="url(#bq)"/></g></g></g></g><g clip-path="url(#bs)"/><g clip-path="url(#bt)"><g clip-path="url(#bx)"/></g><g clip-path="url(#ca)"><g clip-path="url(#cd)"><g clip-path="url(#ci)"/></g></g><g clip-path="url(#cm)"><g clip-path="url(#cp)"><g clip-path="url(#cr)"><g clip-path="url(#cs)"/></g></g></g><g clip-path="url(#ct)"/><g clip-path="url(#cu)"><g clip-path="url(#cv)"/></g><g clip-path="url(#cw)"><g clip-path="url(#cx)"><g clip-path="url(#cy)"/></g></g><g clip-path="url(#cz)"><g clip-path="url(#da)"><g clip-path="url(#db)"><g clip-path="url(#dc)"/></g></g></g><g clip-path="url(#dd)"/><g clip-path="url(#de)"><g clip-path="url(#df)"/></g><g clip-path="url(#dg)"><g clip-path="url(#dh)"><g clip-path="url(#di)"/></g></g><g clip-path="url(#dj)"/><g clip-path="url(#dk)"><g clip-path="url(#dl)"/></g><g clip-path="url(#dm)"><g clip-path="url(#dn)"><g transform="translate(.5 .5)"><path d="m459.25 0h94.5c11.18 0 20.25 9.0662 20.25 20.25v340.5c0 11.184-9.0662 20.25-20.25 20.25h-94.5c-11.18 0-20.25-9.07-20.25-20.25v-340.5c0-11.184 9.07-20.25 20.25-20.25z" stroke="#429bf9" stroke-dasharray="3, 3" stroke-miterlimit="10" fill="none"/></g></g></g><g clip-path="url(#do)"/><g transform="matrix(.14134 0 0 .14134 33.314 245.46)"><path d="m86.4 66.4c0 3.7 0.4 6.7 1.1 8.9 0.8 2.2 1.8 4.6 3.2 7.2 0.5 0.8 0.7 1.6 0.7 2.3 0 1-0.6 2-1.9 3l-6.3 4.2c-0.9 0.6-1.8 0.9-2.6 0.9-1 0-2-0.5-3-1.4-1.4-1.5-2.6-3.1-3.6-4.7-1-1.7-2-3.6-3.1-5.9-7.8 9.2-17.6 13.8-29.4 13.8-8.4 0-15.1-2.4-20-7.2s-7.4-11.2-7.4-19.2c0-8.5 3-15.4 9.1-20.6s14.2-7.8 24.5-7.8c3.4 0 6.9 0.3 10.6 0.8s7.5 1.3 11.5 2.2v-7.3c0-7.6-1.6-12.9-4.7-16-3.2-3.1-8.6-4.6-16.3-4.6-3.5 0-7.1 0.4-10.8 1.3s-7.3 2-10.8 3.4c-1.6 0.7-2.8 1.1-3.5 1.3s-1.2 0.3-1.6 0.3c-1.4 0-2.1-1-2.1-3.1v-4.9c0-1.6 0.2-2.8 0.7-3.5s1.4-1.4 2.8-2.1c3.5-1.8 7.7-3.3 12.6-4.5 4.9-1.3 10.1-1.9 15.6-1.9 11.9 0 20.6 2.7 26.2 8.1 5.5 5.4 8.3 13.6 8.3 24.6v32.4zm-40.6 15.2c3.3 0 6.7-0.6 10.3-1.8s6.8-3.4 9.5-6.4c1.6-1.9 2.8-4 3.4-6.4s1-5.3 1-8.7v-4.2c-2.9-0.7-6-1.3-9.2-1.7s-6.3-0.6-9.4-0.6c-6.7 0-11.6 1.3-14.9 4s-4.9 6.5-4.9 11.5c0 4.7 1.2 8.2 3.7 10.6 2.4 2.5 5.9 3.7 10.5 3.7zm80.3 10.8c-1.8 0-3-0.3-3.8-1-0.8-0.6-1.5-2-2.1-3.9l-23.5-77.3c-0.6-2-0.9-3.3-0.9-4 0-1.6 0.8-2.5 2.4-2.5h9.8c1.9 0 3.2 0.3 3.9 1 0.8 0.6 1.4 2 2 3.9l16.8 66.2 15.6-66.2c0.5-2 1.1-3.3 1.9-3.9s2.2-1 4-1h8c1.9 0 3.2 0.3 4 1 0.8 0.6 1.5 2 1.9 3.9l15.8 67 17.3-67c0.6-2 1.3-3.3 2-3.9 0.8-0.6 2.1-1 3.9-1h9.3c1.6 0 2.5 0.8 2.5 2.5 0 0.5-0.1 1-0.2 1.6s-0.3 1.4-0.7 2.5l-24.1 77.3c-0.6 2-1.3 3.3-2.1 3.9s-2.1 1-3.8 1h-8.6c-1.9 0-3.2-0.3-4-1s-1.5-2-1.9-4l-15.5-64.5-15.4 64.4c-0.5 2-1.1 3.3-1.9 4s-2.2 1-4 1zm128.5 2.7c-5.2 0-10.4-0.6-15.4-1.8s-8.9-2.5-11.5-4c-1.6-0.9-2.7-1.9-3.1-2.8s-0.6-1.9-0.6-2.8v-5.1c0-2.1 0.8-3.1 2.3-3.1 0.6 0 1.2 0.1 1.8 0.3s1.5 0.6 2.5 1c3.4 1.5 7.1 2.7 11 3.5 4 0.8 7.9 1.2 11.9 1.2 6.3 0 11.2-1.1 14.6-3.3s5.2-5.4 5.2-9.5c0-2.8-0.9-5.1-2.7-7s-5.2-3.6-10.1-5.2l-14.5-4.5c-7.3-2.3-12.7-5.7-16-10.2-3.3-4.4-5-9.3-5-14.5 0-4.2 0.9-7.9 2.7-11.1s4.2-6 7.2-8.2c3-2.3 6.4-4 10.4-5.2s8.2-1.7 12.6-1.7c2.2 0 4.5 0.1 6.7 0.4 2.3 0.3 4.4 0.7 6.5 1.1 2 0.5 3.9 1 5.7 1.6s3.2 1.2 4.2 1.8c1.4 0.8 2.4 1.6 3 2.5 0.6 0.8 0.9 1.9 0.9 3.3v4.7c0 2.1-0.8 3.2-2.3 3.2-0.8 0-2.1-0.4-3.8-1.2-5.7-2.6-12.1-3.9-19.2-3.9-5.7 0-10.2 0.9-13.3 2.8s-4.7 4.8-4.7 8.9c0 2.8 1 5.2 3 7.1s5.7 3.8 11 5.5l14.2 4.5c7.2 2.3 12.4 5.5 15.5 9.6s4.6 8.8 4.6 14c0 4.3-0.9 8.2-2.6 11.6-1.8 3.4-4.2 6.4-7.3 8.8-3.1 2.5-6.8 4.3-11.1 5.6-4.5 1.4-9.2 2.1-14.3 2.1z" class="st0" fill="#252f3e"/><g fill="#f90" clip-rule="evenodd" fill-rule="evenodd"><path d="m273.5 143.7c-32.9 24.3-80.7 37.2-121.8 37.2-57.6 0-109.5-21.3-148.7-56.7-3.1-2.8-0.3-6.6 3.4-4.4 42.4 24.6 94.7 39.5 148.8 39.5 36.5 0 76.6-7.6 113.5-23.2 5.5-2.5 10.2 3.6 4.8 7.6z" class="st1"/><path d="m287.2 128.1c-4.2-5.4-27.8-2.6-38.5-1.3-3.2 0.4-3.7-2.4-0.8-4.5 18.8-13.2 49.7-9.4 53.3-5 3.6 4.5-1 35.4-18.6 50.2-2.7 2.3-5.3 1.1-4.1-1.9 4-9.9 12.9-32.2 8.7-37.5z" class="st1"/></g></g><g font-size="16px" font-family="sans-serif" fill="#000000"><flowRoot style="word-spacing:0px;letter-spacing:0px;text-anchor:middle;text-align:center" line-height="1.25" xml:space="preserve" transform="matrix(.75002 0 0 .75002 -.62361 -2.4965)"><flowRegion style="text-anchor:middle;text-align:center" font-size="16px"><rect ry="0" height="73.424" width="156.37" y="104.42" x="191.69"/></flowRegion><flowPara>Cloud</flowPara><flowPara>Management Platform</flowPara></flowRoot><flowRoot style="word-spacing:0px;letter-spacing:0px;text-anchor:middle;text-align:center" line-height="1.25" xml:space="preserve" transform="matrix(.75002 0 0 .75002 149.4 39.217)"><flowRegion style="text-anchor:middle;text-align:center" font-size="16px"><rect height="26.553" width="112.85" y="112.04" x="215.74"/></flowRegion><flowPara>Dispatcher</flowPara></flowRoot><flowRoot style="word-spacing:0px;letter-spacing:0px;text-anchor:middle;text-align:center" line-height="1.25" xml:space="preserve" transform="matrix(.75002 0 0 .75002 303.75 40.608)"><flowRegion style="text-anchor:middle;text-align:center" font-size="16px"><rect height="26.553" width="112.85" y="112.04" x="215.74"/></flowRegion><flowPara>Dispatcher</flowPara></flowRoot><flowRoot style="word-spacing:0px;letter-spacing:0px;text-anchor:middle;text-align:center" line-height="1.25" xml:space="preserve" transform="matrix(.75002 0 0 .75002 150.03 -9.1808)"><flowRegion style="text-anchor:middle;text-align:center" font-size="16px"><rect height="26.553" width="112.85" y="112.04" x="215.74"/></flowRegion><flowPara>Master</flowPara></flowRoot><flowRoot style="word-spacing:0px;letter-spacing:0px;text-anchor:middle;text-align:center" line-height="1.25" xml:space="preserve" transform="matrix(.75002 0 0 .75002 301.88 135.56)"><flowRegion style="text-anchor:middle;text-align:center" font-size="16px"><rect height="26.553" width="112.85" y="112.04" x="215.74"/></flowRegion><flowPara>Master</flowPara></flowRoot><flowRoot style="word-spacing:0px;letter-spacing:0px;text-anchor:middle;text-align:center" line-height="1.25" xml:space="preserve" transform="matrix(.75002 0 0 .75002 304.37 190.33)"><flowRegion style="text-anchor:middle;text-align:center" font-size="16px"><rect height="26.553" width="112.85" y="112.04" x="215.74"/></flowRegion><flowPara>Replica</flowPara></flowRoot><flowRoot style="word-spacing:0px;letter-spacing:0px;text-anchor:middle;text-align:center" line-height="1.25" xml:space="preserve" transform="matrix(.75002 0 0 .75002 145.44 255.43)"><flowRegion style="text-anchor:middle;text-align:center" font-size="16px"><rect height="58.085" width="122.81" y="112.04" x="215.74"/></flowRegion><flowPara>Hyrise-R</flowPara><flowPara>Cluster A</flowPara></flowRoot><flowRoot style="word-spacing:0px;letter-spacing:0px;text-anchor:middle;text-align:center" line-height="1.25" xml:space="preserve" transform="matrix(.75002 0 0 .75002 301.44 254.2)"><flowRegion style="text-anchor:middle;text-align:center" font-size="16px"><rect height="58.085" width="122.81" y="112.04" x="215.74"/></flowRegion><flowPara>Hyrise-R</flowPara><flowPara>Cluster B</flowPara></flowRoot></g></g><g transform="matrix(.16574 0 0 .16574 -6.2394 231.42)"><g clip-path="url(#ab)"><g transform="translate(624.62,215.96)"><path d="m0 0c-2.896 0-5.252 2.356-5.252 5.252 0 2.897 2.356 5.252 5.252 5.252s5.252-2.355 5.252-5.252c0-2.896-2.356-5.252-5.252-5.252m6.963 5.252c0 3.84-3.123 6.964-6.963 6.964s-6.963-3.124-6.963-6.964 3.123-6.963 6.963-6.963 6.963 3.123 6.963 6.963" fill="#4e4640"/></g><g transform="translate(625.8,222.43)"><path d="m0 0c0-0.614-0.39-1.024-1.112-1.024h-1.042v2.058h1.013c0.722 0 1.141-0.342 1.141-1.024zm1.424 0.039v0.039c0 0.673-0.205 1.209-0.576 1.58-0.429 0.428-1.062 0.652-1.852 0.652h-2.563v-6.823h1.413v2.242h0.886l1.258-2.242h1.619l-1.453 2.535c0.751 0.331 1.268 0.984 1.268 2.017" fill="#4e4640"/></g><g transform="translate(174.11,241.74)"><path d="m0 0v0.629c0 10.39 5.352 18.048 13.641 18.048 8.079 0 13.851-7.765 13.851-18.152v-0.63c0-10.387-5.352-18.152-13.641-18.152-8.08 0-13.851 7.869-13.851 18.257m39.348-0.209v0.945c0 16.474-10.807 28.435-25.497 28.435-14.796 0-25.708-12.172-25.708-28.542v-0.943c0-16.474 10.808-28.331 25.498-28.331 14.795 0 25.707 12.066 25.707 28.436" fill="#4e4640"/></g><g transform="translate(231.81,241.53)"><path d="m0 0v1.049c0 10.913 6.086 17.837 13.221 17.837s12.906-6.82 12.906-17.941v-0.945c0-11.123-5.666-17.839-12.906-17.839-7.135 0-13.221 6.927-13.221 17.839m38.09-0.211v1.469c0 18.784-10.494 28.122-21.616 28.122-7.975 0-12.802-4.617-16.264-9.969v8.92h-11.857v-71.458h11.857v24.239c3.358-4.931 8.185-9.443 16.264-9.443 11.227 0 21.616 9.443 21.616 28.12" fill="#4e4640"/></g><g transform="translate(300.09,260.94)"><path d="m0 0c6.925 0 10.912-6.4 11.542-15.214h-23.504c0.84 9.443 5.457 15.214 11.962 15.214m21.196-39.244-6.191 7.347c-3.673-3.568-7.555-5.877-12.801-5.877-7.24 0-13.012 5.037-14.061 14.375h34.836c0.105 1.679 0.105 3.359 0.105 4.093 0 16.683-7.974 29.276-23.084 29.276-13.641 0-23.714-11.962-23.714-28.647v-0.838c0-17.419 11.122-28.331 25.393-28.331 8.29 0 14.48 3.252 19.517 8.602" fill="#4e4640"/></g><g transform="translate(357.99,270.91)"><path d="m0 0c-7.555 0-12.067-4.303-15.215-9.234v8.185h-11.857v-55.613h11.857v33.682c0 7.66 4.303 12.277 10.493 12.277 6.296 0 9.968-4.302 9.968-12.066v-33.893h11.857v37.249c0 11.857-6.401 19.413-17.103 19.413" fill="#4e4640"/></g><g transform="translate(422.89,230.09)"><path d="m0 0v0.105c0 8.709-6.506 12.695-15.11 16.578-6.506 2.939-10.913 4.826-10.913 8.499v0.211c0 3.043 2.623 5.455 7.03 5.455s9.024-2.099 13.221-4.931l5.037 8.709c-5.246 3.777-11.857 5.98-18.048 5.98-10.387 0-18.362-6.295-18.362-16.263v-0.211c0-9.127 6.925-12.906 15.215-16.472 6.61-2.834 10.912-4.617 10.912-8.605v-0.104c0-3.463-2.833-6.087-7.765-6.087-4.931 0-10.283 2.414-15.319 6.505l-5.562-8.498c6.401-5.351 14.061-7.765 20.671-7.765 10.704 0 18.993 5.982 18.993 16.894" fill="#4e4640"/></g><g transform="translate(459.6,215.82)"><path d="m0 0v9.759c-1.994-1.05-4.092-1.574-6.401-1.574-3.778 0-5.981 1.783-5.981 6.086v29.589h12.487v10.179h-12.487v15.005h-11.857v-15.005h-6.086l1.948-10.179h4.138v-32.003c0-10.808 6.191-14.271 14.376-14.271 3.987 0 7.134 0.945 9.863 2.414" fill="#4e4640"/></g><g transform="translate(499.16,232.92)"><path d="m0 0c0-6.295-5.246-10.912-12.067-10.808-5.141 0.105-9.023 3.254-9.023 8.814v0.211c0 5.875 3.987 9.339 10.807 9.339 3.988 0 7.555-0.841 10.283-1.994zm5.876 31.899c-3.567 3.672-9.128 5.666-16.368 5.666-7.45 0-13.012-1.785-18.364-4.408l3.358-9.443c3.673 1.679 8.08 3.359 13.431 3.359 7.556 0 11.962-3.884 11.962-11.333v-2.309c-3.777 1.26-7.554 2.203-12.801 2.203-11.752 0-19.727-5.875-19.727-17.837v-0.525c0-10.807 7.765-16.998 16.999-16.998 7.24 0 12.172 3.147 15.424 7.869v-6.82h11.647v34.522c0 6.924-1.888 12.382-5.561 16.054" fill="#4e4640"/></g><g transform="translate(561,221.48)"><path d="m0 0-6.4 7.869c-3.253-3.252-6.506-5.666-11.332-5.666-8.081 0-13.746 7.24-13.746 18.048v0.525c0 10.494 5.665 17.943 13.431 17.943 5.036 0 8.289-2.519 11.227-5.562l6.611 8.71c-4.617 4.617-9.864 7.555-17.838 7.555-14.586 0-25.393-11.961-25.393-28.542v-1.049c0-16.579 10.493-28.225 24.973-28.225 8.499 0 14.06 3.461 18.467 8.394" fill="#4e4640"/></g><g transform="translate(597.29,243.11)"><path d="m0 0-8.323-8.946 11.164-19.918h13.745z" fill="#4e4640"/></g><g transform="translate(599.29,269.86)"><path d="m0 0-18.992-24.45v44.596h-11.857v-75.759h11.857v16.054l33.053 39.559z" fill="#4e4640"/></g><g opacity=".98" clip-path="url(#z)"><g transform="translate(436.46,424.87)"><path d="m0 0h-94.638c-5.94 0-10.8-4.86-10.8-10.8v-25.45h26.25v4.159c0 3.226 2.616 5.841 5.842 5.841h52.055c3.226 0 5.841-2.615 5.841-5.841v-4.159h26.252v25.45c0 5.94-4.86 10.8-10.8 10.8" fill="#ed1844"/></g><g transform="translate(421.01,343.2)"><path d="m0 0c0-3.226-2.615-5.842-5.841-5.842h-52.055c-3.226 0-5.842 2.616-5.842 5.842v4.158h-26.25v-25.449c0-5.941 4.86-10.8 10.8-10.8h94.638c5.94 0 10.8 4.859 10.8 10.8v25.449h-26.25z" fill="#ed1844"/></g><path d="m357.28 381.12h-26.25v-26.25h26.25z" fill="#ed1844"/><path d="m447.26 381.12h-26.25v-26.25h26.25z" fill="#ed1844"/></g></g></g></g><style type="text/css">
	.st0{fill:#252F3E;}
	.st1{fill-rule:evenodd;clip-rule:evenodd;fill:#FF9900;}
</style></svg>
