<?xml version="1.0" encoding="UTF-8" standalone="no"?>
<!-- Created with Inkscape (http://www.inkscape.org/) -->
<svg xmlns:rdf="http://www.w3.org/1999/02/22-rdf-syntax-ns#" xmlns="http://www.w3.org/2000/svg" height="119.46mm" width="209.2mm" version="1.1" xmlns:cc="http://creativecommons.org/ns#" xmlns:dc="http://purl.org/dc/elements/1.1/" viewBox="0 0 209.19722 119.45759">
 <defs>
  <clipPath id="m" clipPathUnits="userSpaceOnUse">
   <path d="m1 248h593v342h-593z"/>
  </clipPath>
  <clipPath id="o" clipPathUnits="userSpaceOnUse">
   <path d="m-17.348 608.89h615.93v-384.47h-615.93z"/>
  </clipPath>
  <clipPath id="n" clipPathUnits="userSpaceOnUse">
   <path d="m1 248h593v342h-593z"/>
  </clipPath>
  <clipPath id="p" clipPathUnits="userSpaceOnUse">
   <path d="m1 248h593v342h-593z"/>
  </clipPath>
  <clipPath id="r" clipPathUnits="userSpaceOnUse">
   <path d="m-17.348 608.89h615.93v-384.47h-615.93z"/>
  </clipPath>
  <clipPath id="q" clipPathUnits="userSpaceOnUse">
   <path d="m1 248h593v342h-593z"/>
  </clipPath>
  <clipPath id="u" clipPathUnits="userSpaceOnUse">
   <path d="m329.91 348.62 22.891-11.498v11.498l-22.891 11.496z"/>
  </clipPath>
  <clipPath id="t" clipPathUnits="userSpaceOnUse">
   <path d="m1 248h593v342h-593z"/>
  </clipPath>
  <clipPath id="s" clipPathUnits="userSpaceOnUse">
   <path d="m886.89 620.17-397.42-688.36-735.3 424.53 397.42 688.36z"/>
  </clipPath>
  <linearGradient id="a" gradientUnits="userSpaceOnUse" x2="15.987" x1="-15.987" gradientTransform="matrix(-.49039 -.84938 -.84938 .49039 341.36 348.62)">
   <stop stop-color="#fff" offset="0"/>
   <stop stop-color="#eaeaea" offset="1"/>
  </linearGradient>
  <clipPath id="v" clipPathUnits="userSpaceOnUse">
   <path d="m1 248h593v342h-593z"/>
  </clipPath>
  <clipPath id="y" clipPathUnits="userSpaceOnUse">
   <path d="m329.91 360.12 22.891-11.496 22.892 11.496-22.892 11.498z"/>
  </clipPath>
  <clipPath id="x" clipPathUnits="userSpaceOnUse">
   <path d="m1 248h593v342h-593z"/>
  </clipPath>
  <clipPath id="w" clipPathUnits="userSpaceOnUse">
   <path d="m-245.83 356.34 397.42 688.36 735.3-424.53-397.42-688.36z"/>
  </clipPath>
  <linearGradient id="b" gradientUnits="userSpaceOnUse" x2="21.821" x1="-21.821" gradientTransform="matrix(.49039 .84938 .84938 -.49039 352.81 360.12)">
   <stop stop-color="#c1c1c1" offset="0"/>
   <stop stop-color="#ececec" offset="1"/>
  </linearGradient>
  <clipPath id="z" clipPathUnits="userSpaceOnUse">
   <path d="m1 248h593v342h-593z"/>
  </clipPath>
  <clipPath id="ac" clipPathUnits="userSpaceOnUse">
   <path d="m352.81 348.62v-11.498l22.892 11.498v11.496z"/>
  </clipPath>
  <clipPath id="ab" clipPathUnits="userSpaceOnUse">
   <path d="m1 248h593v342h-593z"/>
  </clipPath>
  <clipPath id="aa" clipPathUnits="userSpaceOnUse">
   <path d="m-17.348 752.08h675.76v-527.66h-675.76z"/>
  </clipPath>
  <linearGradient id="c" gradientUnits="userSpaceOnUse" x2="11.67" x1="-11.67" gradientTransform="matrix(.98078 0 0 -.98078 364.25 348.62)">
   <stop stop-color="#c1c1c1" offset="0"/>
   <stop stop-color="#ececec" offset="1"/>
  </linearGradient>
  <clipPath id="ad" clipPathUnits="userSpaceOnUse">
   <path d="m1 248h593v342h-593z"/>
  </clipPath>
  <clipPath id="ag" clipPathUnits="userSpaceOnUse">
   <path d="m380.77 439.5 22.891-11.498v11.498l-22.891 11.496z"/>
  </clipPath>
  <clipPath id="af" clipPathUnits="userSpaceOnUse">
   <path d="m1 248h593v342h-593z"/>
  </clipPath>
  <clipPath id="ae" clipPathUnits="userSpaceOnUse">
   <path d="m886.89 620.17-397.42-688.36-735.3 424.53 397.42 688.36z"/>
  </clipPath>
  <linearGradient id="d" gradientUnits="userSpaceOnUse" x2="15.987" x1="-15.987" gradientTransform="matrix(-.49039 -.84938 -.84938 .49039 392.21 439.5)">
   <stop stop-color="#fff" offset="0"/>
   <stop stop-color="#eaeaea" offset="1"/>
  </linearGradient>
  <clipPath id="ah" clipPathUnits="userSpaceOnUse">
   <path d="m1 248h593v342h-593z"/>
  </clipPath>
  <clipPath id="ak" clipPathUnits="userSpaceOnUse">
   <path d="m380.77 451 22.891-11.496 22.892 11.496-22.892 11.498z"/>
  </clipPath>
  <clipPath id="aj" clipPathUnits="userSpaceOnUse">
   <path d="m1 248h593v342h-593z"/>
  </clipPath>
  <clipPath id="ai" clipPathUnits="userSpaceOnUse">
   <path d="m-245.83 356.34 397.42 688.36 735.3-424.53-397.42-688.36z"/>
  </clipPath>
  <linearGradient id="e" gradientUnits="userSpaceOnUse" x2="21.821" x1="-21.821" gradientTransform="matrix(.49039 .84938 .84938 -.49039 403.66 451)">
   <stop stop-color="#c1c1c1" offset="0"/>
   <stop stop-color="#ececec" offset="1"/>
  </linearGradient>
  <clipPath id="al" clipPathUnits="userSpaceOnUse">
   <path d="m1 248h593v342h-593z"/>
  </clipPath>
  <clipPath id="ao" clipPathUnits="userSpaceOnUse">
   <path d="m403.66 439.5v-11.498l22.892 11.498v11.496z"/>
  </clipPath>
  <clipPath id="an" clipPathUnits="userSpaceOnUse">
   <path d="m1 248h593v342h-593z"/>
  </clipPath>
  <clipPath id="am" clipPathUnits="userSpaceOnUse">
   <path d="m-17.348 752.08h675.76v-527.66h-675.76z"/>
  </clipPath>
  <linearGradient id="f" gradientUnits="userSpaceOnUse" x2="11.67" x1="-11.67" gradientTransform="matrix(.98078 0 0 -.98078 415.1 439.5)">
   <stop stop-color="#c1c1c1" offset="0"/>
   <stop stop-color="#ececec" offset="1"/>
  </linearGradient>
  <clipPath id="ap" clipPathUnits="userSpaceOnUse">
   <path d="m1 248h593v342h-593z"/>
  </clipPath>
  <clipPath id="as" clipPathUnits="userSpaceOnUse">
   <path d="m380.77 429.45 22.891-11.496v11.496l-22.891 11.499z"/>
  </clipPath>
  <clipPath id="ar" clipPathUnits="userSpaceOnUse">
   <path d="m1 248h593v342h-593z"/>
  </clipPath>
  <clipPath id="aq" clipPathUnits="userSpaceOnUse">
   <path d="m886.89 620.17-397.42-688.36-735.3 424.53 397.42 688.36z"/>
  </clipPath>
  <linearGradient id="g" gradientUnits="userSpaceOnUse" x2="15.987" x1="-15.987" gradientTransform="matrix(-.49039 -.84938 -.84938 .49039 392.21 429.45)">
   <stop stop-color="#fff" offset="0"/>
   <stop stop-color="#eaeaea" offset="1"/>
  </linearGradient>
  <clipPath id="at" clipPathUnits="userSpaceOnUse">
   <path d="m1 248h593v342h-593z"/>
  </clipPath>
  <clipPath id="aw" clipPathUnits="userSpaceOnUse">
   <path d="m380.77 440.95 22.891-11.499 22.892 11.499-22.892 11.496z"/>
  </clipPath>
  <clipPath id="av" clipPathUnits="userSpaceOnUse">
   <path d="m1 248h593v342h-593z"/>
  </clipPath>
  <clipPath id="au" clipPathUnits="userSpaceOnUse">
   <path d="m-245.83 356.34 397.42 688.36 735.3-424.53-397.42-688.36z"/>
  </clipPath>
  <linearGradient id="h" gradientUnits="userSpaceOnUse" x2="21.821" x1="-21.821" gradientTransform="matrix(.49039 .84938 .84938 -.49039 403.66 440.95)">
   <stop stop-color="#c1c1c1" offset="0"/>
   <stop stop-color="#ececec" offset="1"/>
  </linearGradient>
  <clipPath id="ax" clipPathUnits="userSpaceOnUse">
   <path d="m1 248h593v342h-593z"/>
  </clipPath>
  <clipPath id="ba" clipPathUnits="userSpaceOnUse">
   <path d="m403.66 429.45v-11.496l22.892 11.496v11.499z"/>
  </clipPath>
  <clipPath id="az" clipPathUnits="userSpaceOnUse">
   <path d="m1 248h593v342h-593z"/>
  </clipPath>
  <clipPath id="ay" clipPathUnits="userSpaceOnUse">
   <path d="m-17.348 752.08h675.76v-527.66h-675.76z"/>
  </clipPath>
  <linearGradient id="i" gradientUnits="userSpaceOnUse" x2="11.67" x1="-11.67" gradientTransform="matrix(.98078 0 0 -.98078 415.1 429.45)">
   <stop stop-color="#c1c1c1" offset="0"/>
   <stop stop-color="#ececec" offset="1"/>
  </linearGradient>
  <clipPath id="bb" clipPathUnits="userSpaceOnUse">
   <path d="m1 248h593v342h-593z"/>
  </clipPath>
  <clipPath id="be" clipPathUnits="userSpaceOnUse">
   <path d="m380.77 418.32 22.891-11.498v11.498l-22.891 11.497z"/>
  </clipPath>
  <clipPath id="bd" clipPathUnits="userSpaceOnUse">
   <path d="m1 248h593v342h-593z"/>
  </clipPath>
  <clipPath id="bc" clipPathUnits="userSpaceOnUse">
   <path d="m886.89 620.17-397.42-688.36-735.3 424.53 397.42 688.36z"/>
  </clipPath>
  <linearGradient id="j" gradientUnits="userSpaceOnUse" x2="15.987" x1="-15.987" gradientTransform="matrix(-.49039 -.84938 -.84938 .49039 392.21 418.32)">
   <stop stop-color="#fff" offset="0"/>
   <stop stop-color="#eaeaea" offset="1"/>
  </linearGradient>
  <clipPath id="bf" clipPathUnits="userSpaceOnUse">
   <path d="m1 248h593v342h-593z"/>
  </clipPath>
  <clipPath id="bi" clipPathUnits="userSpaceOnUse">
   <path d="m380.77 429.82 22.891-11.497 22.892 11.497-22.892 11.497z"/>
  </clipPath>
  <clipPath id="bh" clipPathUnits="userSpaceOnUse">
   <path d="m1 248h593v342h-593z"/>
  </clipPath>
  <clipPath id="bg" clipPathUnits="userSpaceOnUse">
   <path d="m-245.83 356.34 397.42 688.36 735.3-424.53-397.42-688.36z"/>
  </clipPath>
  <linearGradient id="k" gradientUnits="userSpaceOnUse" x2="21.821" x1="-21.821" gradientTransform="matrix(.49039 .84938 .84938 -.49039 403.66 429.82)">
   <stop stop-color="#c1c1c1" offset="0"/>
   <stop stop-color="#ececec" offset="1"/>
  </linearGradient>
  <clipPath id="bj" clipPathUnits="userSpaceOnUse">
   <path d="m1 248h593v342h-593z"/>
  </clipPath>
  <clipPath id="bm" clipPathUnits="userSpaceOnUse">
   <path d="m403.66 418.32v-11.498l22.892 11.498v11.497z"/>
  </clipPath>
  <clipPath id="bl" clipPathUnits="userSpaceOnUse">
   <path d="m1 248h593v342h-593z"/>
  </clipPath>
  <clipPath id="bk" clipPathUnits="userSpaceOnUse">
   <path d="m-17.348 752.08h675.76v-527.66h-675.76z"/>
  </clipPath>
  <linearGradient id="l" gradientUnits="userSpaceOnUse" x2="11.67" x1="-11.67" gradientTransform="matrix(.98078 0 0 -.98078 415.1 418.32)">
   <stop stop-color="#c1c1c1" offset="0"/>
   <stop stop-color="#ececec" offset="1"/>
  </linearGradient>
  <clipPath id="bo" clipPathUnits="userSpaceOnUse">
   <path d="m-17.348 608.89h615.93v-384.47h-615.93z"/>
  </clipPath>
  <clipPath id="bn" clipPathUnits="userSpaceOnUse">
   <path d="m1 248h593v342h-593z"/>
  </clipPath>
  <clipPath id="bp" clipPathUnits="userSpaceOnUse">
   <path d="m1 248h593v342h-593z"/>
  </clipPath>
  <clipPath id="br" clipPathUnits="userSpaceOnUse">
   <path d="m-17.348 608.89h615.93v-384.47h-615.93z"/>
  </clipPath>
  <clipPath id="bq" clipPathUnits="userSpaceOnUse">
   <path d="m1 248h593v342h-593z"/>
  </clipPath>
  <clipPath id="bt" clipPathUnits="userSpaceOnUse">
   <path d="m1 248h593v342h-593z"/>
  </clipPath>
  <clipPath id="bv" clipPathUnits="userSpaceOnUse">
   <path d="m-17.348 608.89h615.93v-384.47h-615.93z"/>
  </clipPath>
  <clipPath id="bu" clipPathUnits="userSpaceOnUse">
   <path d="m1 248h593v342h-593z"/>
  </clipPath>
  <clipPath id="bx" clipPathUnits="userSpaceOnUse">
   <path d="m1 248h593v342h-593z"/>
  </clipPath>
  <clipPath id="bz" clipPathUnits="userSpaceOnUse">
   <path d="m-17.348 608.89h615.93v-384.47h-615.93z"/>
  </clipPath>
  <clipPath id="by" clipPathUnits="userSpaceOnUse">
   <path d="m1 248h593v342h-593z"/>
  </clipPath>
  <clipPath id="bw" clipPathUnits="userSpaceOnUse">
   <path d="m1 248h593v342h-593z"/>
  </clipPath>
  <clipPath id="bs" clipPathUnits="userSpaceOnUse">
   <path d="m1 248h593v342h-593z"/>
  </clipPath>
 </defs>
 <metadata>
  <rdf:RDF>
   <cc:Work rdf:about="">
    <dc:format>image/svg+xml</dc:format>
    <dc:type rdf:resource="http://purl.org/dc/dcmitype/StillImage"/>
    <dc:title/>
   </cc:Work>
  </rdf:RDF>
 </metadata>
 <g transform="translate(-.43292 -20.909)">
  <g style="" transform="matrix(.35278 0 0 -.35278 .080140 227.86)">
   <g style="" clip-path="url(#bz)">
    <g style="" clip-path="url(#by)">
     <path d="m6.8118 527.07 434.85 0.0951c1.0829 0 1.9606-0.8777 1.9615-1.9615 0-0.5198-0.2058-1.017-0.5717-1.3847l-216.72-217.47c-0.7652-0.7679-2.0069-0.7697-2.7739-0.005l-218.13 217.38c-0.76795 0.7652-0.76991 2.0069-0.00491 2.7748 0.3678 0.3687 0.86802 0.5766 1.3888 0.5766" fill="#edeff6"/>
     <g style="" transform="matrix(.98078 0 0 .98078 6.5915 527.32)">
      <path stroke-linejoin="round" d="m0 0 443.6-0.161c1.104 0 1.999-0.895 2-2 0-0.529-0.21-1.037-0.583-1.412l-220.97-221.74c-0.78-0.782-2.046-0.785-2.828-0.005l-222.41 221.64c-0.782 0.78-0.784 2.047-0.004 2.829 0.378 0.381 0.887 0.593 1.194 0.851z" stroke="#404040" stroke-linecap="round" stroke-miterlimit="10" fill="none"/>
     </g>
     <path d="m136.23 394.01 177.35 0.3-88.52-88.83z" fill="#fff"/>
     <g style="" transform="matrix(.98078 0 0 .98078 136.23 394.01)">
      <path stroke-linejoin="round" d="m0 0 180.83 0.312-90.26-90.569z" stroke="#404040" stroke-linecap="round" stroke-miterlimit="10" fill="none"/>
     </g>
     <path d="m178.25 356.13 92.983 0.161c1.0838 0.002 1.9625-0.875 1.9655-1.9578 0.001-0.5199-0.2051-1.02-0.5728-1.3887l-46.41-46.571c-0.7652-0.7679-2.0066-0.7707-2.7736-0.005l-46.572 46.41c-0.7679 0.7652-0.77 2.0069-0.005 2.7739 0.3668 0.3686 0.8661 0.5765 1.3859 0.5775" fill="#fff"/>
     <g style="" transform="matrix(.98078 0 0 .98078 178.14 356.58)">
      <path stroke-linejoin="round" d="m0 0 94.916-0.294c1.104 0.002 2.001-0.892 2.003-1.996 0.001-0.53-0.209-1.04-0.584-1.416l-47.319-47.484c-0.781-0.783-2.047-0.786-2.829-0.005l-47.485 47.32c-0.783 0.78-0.785 2.046-0.005 2.828 0.375 0.376 0.883 0.588 1.303 1.047z" stroke="#404040" stroke-linecap="round" stroke-miterlimit="10" fill="none"/>
     </g>
    </g>
   </g>
  </g>
  <g style="" transform="matrix(.35278 0 0 -.35278 -1.8519 228.05)">
   <g style="" clip-path="url(#bx)">
    <g style="" transform="matrix(.98078 0 0 .98078 -17.348 224.42)">
     <text font-size="18px" font-family="Times" transform="matrix(1 0 0 -1 230.32 150.6)" fill="#000000">
      <tspan y="0" x="0 12.996 23.993999 36.990002">OLXP</tspan>
     </text>
    </g>
    <g style="" transform="matrix(.98078 0 0 .98078 -17.348 224.42)">
     <text font-size="18px" font-family="Times" transform="matrix(1 0 0 -1 159.65 244.09)" fill="#000000">
      <tspan y="0" x="0 9 18 22.5 33.498001 39.492001 47.484001 56.484001 63.486 71.477997 79.470001 84.473999 89.477997 98.477997 107.478 115.47 120.474 124.974 134.98199 142.974 151.974 159.966 173.97">on Transactional Schema</tspan>
     </text>
    </g>
    <g style="" transform="matrix(.98078 0 0 .98078 -17.348 224.42)">
     <text font-size="18px" font-family="Times" transform="matrix(1 0 0 -1 230.62 110.86)" fill="#000000">
      <tspan y="0" x="0 12.996 23.993999 34.992001">OLTP</tspan>
     </text>
    </g>
   </g>
  </g>
  <g style="" transform="matrix(.35278 0 0 -.35278 .080140 227.86)">
   <g style="" clip-path="url(#bv)">
    <g style="" clip-path="url(#bu)">
     <g style="" transform="matrix(.98078 0 0 .98078 324.36 393.61)">
      <path stroke-linejoin="round" d="m0 0h84.767" stroke="#404040" stroke-linecap="round" stroke-miterlimit="10" fill="none"/>
     </g>
    </g>
   </g>
  </g>
  <g style="" transform="matrix(.35278 0 0 -.35278 .080140 227.86)">
   <g style="" clip-path="url(#bt)">
    <g style="" transform="matrix(.98078 0 0 .98078 -17.348 224.42)">
     <text font-size="18px" font-family="Times" transform="matrix(1 0 0 -1 446.04 137.57)" fill="#000000">
      <tspan y="0" x="0 16.002001 23.993999 30.996 36 43.992001">Master</tspan>
     </text>
    </g>
    <g style="" transform="matrix(.98078 0 0 .98078 -17.348 224.42)">
     <text font-size="18px" font-family="Times" transform="matrix(1 0 0 -1 453.04 115.57)" fill="#000000">
      <tspan y="0" x="0 12.996 21.996 30.996">Node</tspan>
     </text>
    </g>
    <g style="" transform="matrix(.98078 0 0 .98078 -17.348 224.42)">
     <text font-size="18px" font-family="Times" transform="matrix(1 0 0 -1 496.26 227.07)" fill="#000000">
      <tspan y="0" x="0 12.006 19.997999 28.997999 34.001999 39.006001 46.998001 54.990002">Replicas</tspan>
     </text>
    </g>
    <g style="" transform="matrix(.98078 0 0 .98078 -17.348 224.42)">
     <text font-size="18px" font-family="Times" transform="matrix(1 0 0 -1 276.14 53.725)" fill="#000000">
      <tspan y="0" x="0 12.996 20.988001 25.992001 33.984001 38.484001 49.481998 58.481998 63.486 69.480003">Data Entry</tspan>
     </text>
    </g>
   </g>
  </g>
  <g style="" transform="matrix(.35278 0 0 -.35278 .080140 227.86)">
   <g style="" clip-path="url(#br)">
    <g style="" clip-path="url(#bq)">
     <g style="" transform="matrix(.98078 0 0 .98078 183.22 532.57)">
      <path stroke-linejoin="round" d="m0 0v20.138" stroke="#404040" stroke-linecap="round" stroke-miterlimit="10" fill="none"/>
     </g>
     <path d="m182.53 560.16-2.9422-7.8463h5.8845z" fill="#404040"/>
     <g style="" transform="matrix(.98078 0 0 .98078 182.53 560.16)">
      <path stroke="#404040" stroke-miterlimit="10" d="m0 0-3-8h6z" fill="none"/>
     </g>
     <g style="" transform="matrix(.98078 0 0 .98078 204.8 532.57)">
      <path stroke-linejoin="round" d="m0 0v20.138" stroke="#404040" stroke-linecap="round" stroke-miterlimit="10" fill="none"/>
     </g>
     <path d="m204.62 560.16-2.9423-7.8463h5.8848z" fill="#404040"/>
     <g style="" transform="matrix(.98078 0 0 .98078 204.62 560.16)">
      <path stroke="#404040" stroke-miterlimit="10" d="m0 0-3-8h6z" fill="none"/>
     </g>
     <g style="" transform="matrix(.98078 0 0 .98078 227.36 532.57)">
      <path stroke-linejoin="round" d="m0 0v20.138" stroke="#404040" stroke-linecap="round" stroke-miterlimit="10" fill="none"/>
     </g>
     <path d="m226.72 560.16-2.9426-7.8463h5.8848z" fill="#404040"/>
     <g style="" transform="matrix(.98078 0 0 .98078 226.72 560.16)">
      <path stroke="#404040" stroke-miterlimit="10" d="m0 0-3-8h6z" fill="none"/>
     </g>
     <g style="" transform="matrix(.98078 0 0 .98078 248.93 532.57)">
      <path stroke-linejoin="round" d="m0 0v20.138" stroke="#404040" stroke-linecap="round" stroke-miterlimit="10" fill="none"/>
     </g>
     <path d="m248.81 560.16-2.9423-7.8463h5.8845z" fill="#404040"/>
     <g style="" transform="matrix(.98078 0 0 .98078 248.81 560.16)">
      <path stroke="#404040" stroke-miterlimit="10" d="m0 0-3-8h6z" fill="none"/>
     </g>
     <g style="" transform="matrix(.98078 0 0 .98078 271.49 532.57)">
      <path stroke-linejoin="round" d="m0 0v20.138" stroke="#404040" stroke-linecap="round" stroke-miterlimit="10" fill="none"/>
     </g>
     <path d="m270.9 560.16-2.9426-7.8463h5.8848z" fill="#404040"/>
     <g style="" transform="matrix(.98078 0 0 .98078 270.9 560.16)">
      <path stroke="#404040" stroke-miterlimit="10" d="m0 0-3-8h6z" fill="none"/>
     </g>
     <g style="" transform="matrix(.98078 0 0 .98078 346.03 532.57)">
      <path stroke-linejoin="round" d="m0 0v20.138" stroke="#404040" stroke-linecap="round" stroke-miterlimit="10" fill="none"/>
     </g>
     <path d="m345.36 560.16-2.9422-7.8463h5.8848z" fill="#404040"/>
     <g style="" transform="matrix(.98078 0 0 .98078 345.36 560.16)">
      <path stroke="#404040" stroke-miterlimit="10" d="m0 0-3-8h6z" fill="none"/>
     </g>
     <g style="" transform="matrix(.98078 0 0 .98078 367.61 532.57)">
      <path stroke-linejoin="round" d="m0 0v20.138" stroke="#404040" stroke-linecap="round" stroke-miterlimit="10" fill="none"/>
     </g>
     <path d="m367.46 560.16-2.9426-7.8463h5.8848z" fill="#404040"/>
     <g style="" transform="matrix(.98078 0 0 .98078 367.46 560.16)">
      <path stroke="#404040" stroke-miterlimit="10" d="m0 0-3-8h6z" fill="none"/>
     </g>
     <g style="" transform="matrix(.98078 0 0 .98078 390.17 532.57)">
      <path stroke-linejoin="round" d="m0 0v20.138" stroke="#404040" stroke-linecap="round" stroke-miterlimit="10" fill="none"/>
     </g>
     <path d="m389.55 560.16-2.9423-7.8463h5.8845z" fill="#404040"/>
     <g style="" transform="matrix(.98078 0 0 .98078 389.55 560.16)">
      <path stroke="#404040" stroke-miterlimit="10" d="m0 0-3-8h6z" fill="none"/>
     </g>
     <g style="" transform="matrix(.98078 0 0 .98078 411.74 532.57)">
      <path stroke-linejoin="round" d="m0 0v20.138" stroke="#404040" stroke-linecap="round" stroke-miterlimit="10" fill="none"/>
     </g>
     <path d="m411.64 560.16-2.9423-7.8463h5.8848z" fill="#404040"/>
     <g style="" transform="matrix(.98078 0 0 .98078 411.64 560.16)">
      <path stroke="#404040" stroke-miterlimit="10" d="m0 0-3-8h6z" fill="none"/>
     </g>
     <g style="" transform="matrix(.98078 0 0 .98078 434.3 532.57)">
      <path stroke-linejoin="round" d="m0 0v20.138" stroke="#404040" stroke-linecap="round" stroke-miterlimit="10" fill="none"/>
     </g>
     <path d="m433.73 560.16-2.9425-7.8463h5.8848z" fill="#404040"/>
     <g style="" transform="matrix(.98078 0 0 .98078 433.73 560.16)">
      <path stroke="#404040" stroke-miterlimit="10" d="m0 0-3-8h6z" fill="none"/>
     </g>
     <g style="" transform="matrix(.98078 0 0 .98078 150.86 374.77)">
      <path stroke-linejoin="round" d="m0 0v-61.056" stroke="#404040" stroke-linecap="round" stroke-miterlimit="10" fill="none"/>
     </g>
     <path d="m150.76 307.04 2.9425 7.8463h-5.8848z" fill="#404040"/>
     <g style="" transform="matrix(.98078 0 0 .98078 150.76 307.04)">
      <path stroke="#404040" stroke-miterlimit="10" d="m0 0 3 8h-6z" fill="none"/>
     </g>
    </g>
   </g>
  </g>
  <g style="" transform="matrix(.35278 0 0 -.35278 .080140 227.86)">
   <g style="" clip-path="url(#bp)">
    <g style="" transform="matrix(.98078 0 0 .98078 -17.348 224.42)">
     <text font-size="18px" font-family="Times" transform="matrix(1 0 0 -1 46.476 53.725)" fill="#000000">
      <tspan y="0" x="0 12.996 21.996 29.988001 35.981998 43.973999 48.978001 53.981998 62.981998 71.982002 79.973999 84.977997 89.477997 101.484 109.476 118.476 127.476 133.47 138.474 143.478 152.478">Operational Reporting</tspan>
     </text>
    </g>
    <g style="" transform="matrix(.98078 0 0 .98078 -17.348 224.42)">
     <text font-size="18px" style="font-variant-numeric:normal;font-variant-ligatures:normal;font-variant-caps:normal;font-feature-settings:normal" transform="scale(1,-1)" y="-32.979084" x="47.522369" font-family="Times" fill="#000000">
      <tspan x="47.522369" y="-32.979084">and New Applications</tspan>
     </text>
    </g>
   </g>
  </g>
  <g style="" transform="matrix(.35278 0 0 -.35278 .080140 227.86)">
   <g style="" clip-path="url(#bo)">
    <g style="" clip-path="url(#bn)">
     <g style="" transform="matrix(.98078 0 0 .98078 161.64 363.27)">
      <path stroke-linejoin="round" d="m0 0v-49.329" stroke="#404040" stroke-linecap="round" stroke-miterlimit="10" fill="none"/>
     </g>
     <path d="m161.85 307.04 2.9422 7.8463h-5.8845z" fill="#404040"/>
     <g style="" transform="matrix(.98078 0 0 .98078 161.85 307.04)">
      <path stroke="#404040" stroke-miterlimit="10" d="m0 0 3 8h-6z" fill="none"/>
     </g>
     <g style="" transform="matrix(.98078 0 0 .98078 255.8 307.98)">
      <path stroke-linejoin="round" d="m0 0v15.644" stroke="#404040" stroke-linecap="round" stroke-miterlimit="10" fill="none"/>
     </g>
     <path d="m255.11 331.17-2.9422-7.8463h5.8848z" fill="#404040"/>
     <g style="" transform="matrix(.98078 0 0 .98078 255.11 331.17)">
      <path stroke="#404040" stroke-miterlimit="10" d="m0 0-3-8h6z" fill="none"/>
     </g>
    </g>
   </g>
  </g>
  <g style="" transform="matrix(.35278 0 0 -.35278 .080140 227.86)">
   <g style="" clip-path="url(#bm)">
    <g style="" clip-path="url(#bl)">
     <g style="">
      <g style="" clip-path="url(#bk)">
       <path d="m1 248h593v342h-593z" fill="url(#l)"/>
      </g>
     </g>
    </g>
   </g>
  </g>
  <g style="" transform="matrix(.35278 0 0 -.35278 .080140 227.86)">
   <g style="" clip-path="url(#bj)">
    <g style="" transform="matrix(.98078 0 0 .98078 426.46 418.32)">
     <path stroke-linejoin="round" d="m0 0v11.723l-23.245-11.723v-11.722z" stroke="#3d3d3d" stroke-linecap="round" stroke-miterlimit="10" fill="none"/>
    </g>
   </g>
  </g>
  <g style="" transform="matrix(.35278 0 0 -.35278 .080140 227.86)">
   <g style="" clip-path="url(#bi)">
    <g style="" clip-path="url(#bh)">
     <g style="">
      <g style="" clip-path="url(#bg)">
       <path d="m1 248h593v342h-593z" fill="url(#k)"/>
      </g>
     </g>
    </g>
   </g>
  </g>
  <g style="" transform="matrix(.35278 0 0 -.35278 .080140 227.86)">
   <g style="" clip-path="url(#bf)">
    <g style="" transform="matrix(.98078 0 0 .98078 426.55 429.82)">
     <path stroke-linejoin="round" d="m0 0-23.34 11.722-23.339-11.722 23.339-11.723z" stroke="#3d3d3d" stroke-linecap="round" stroke-miterlimit="10" fill="none"/>
    </g>
   </g>
  </g>
  <g style="" transform="matrix(.35278 0 0 -.35278 .080140 227.86)">
   <g style="" clip-path="url(#be)">
    <g style="" clip-path="url(#bd)">
     <g style="">
      <g style="" clip-path="url(#bc)">
       <path d="m1 248h593v342h-593z" fill="url(#j)"/>
      </g>
     </g>
    </g>
   </g>
  </g>
  <g style="" transform="matrix(.35278 0 0 -.35278 .080140 227.86)">
   <g style="" clip-path="url(#bb)">
    <g style="" transform="matrix(.98078 0 0 .98078 381.34 418.32)">
     <path stroke-linejoin="round" d="m0 0v11.723l22.755-11.723v-11.722z" stroke="#3d3d3d" stroke-linecap="round" stroke-miterlimit="10" fill="none"/>
    </g>
   </g>
  </g>
  <g style="" transform="matrix(.35278 0 0 -.35278 .080140 227.86)">
   <g style="" clip-path="url(#ba)">
    <g style="" clip-path="url(#az)">
     <g style="">
      <g style="" clip-path="url(#ay)">
       <path d="m1 248h593v342h-593z" fill="url(#i)"/>
      </g>
     </g>
    </g>
   </g>
  </g>
  <g style="" transform="matrix(.35278 0 0 -.35278 .080140 227.86)">
   <g style="" clip-path="url(#ax)">
    <g style="" transform="matrix(.98078 0 0 .98078 426.46 429.45)">
     <path stroke-linejoin="round" d="m0 0v11.723l-23.245-11.723v-11.722z" stroke="#3d3d3d" stroke-linecap="round" stroke-miterlimit="10" fill="none"/>
    </g>
   </g>
  </g>
  <g style="" transform="matrix(.35278 0 0 -.35278 .080140 227.86)">
   <g style="" clip-path="url(#aw)">
    <g style="" clip-path="url(#av)">
     <g style="">
      <g style="" clip-path="url(#au)">
       <path d="m1 248h593v342h-593z" fill="url(#h)"/>
      </g>
     </g>
    </g>
   </g>
  </g>
  <g style="" transform="matrix(.35278 0 0 -.35278 .080140 227.86)">
   <g style="" clip-path="url(#at)">
    <g style="" transform="matrix(.98078 0 0 .98078 426.55 440.95)">
     <path stroke-linejoin="round" d="m0 0-23.34 11.722-23.339-11.722 23.339-11.723z" stroke="#3d3d3d" stroke-linecap="round" stroke-miterlimit="10" fill="none"/>
    </g>
   </g>
  </g>
  <g style="" transform="matrix(.35278 0 0 -.35278 .080140 227.86)">
   <g style="" clip-path="url(#as)">
    <g style="" clip-path="url(#ar)">
     <g style="">
      <g style="" clip-path="url(#aq)">
       <path d="m1 248h593v342h-593z" fill="url(#g)"/>
      </g>
     </g>
    </g>
   </g>
  </g>
  <g style="" transform="matrix(.35278 0 0 -.35278 .080140 227.86)">
   <g style="" clip-path="url(#ap)">
    <g style="" transform="matrix(.98078 0 0 .98078 381.34 429.45)">
     <path stroke-linejoin="round" d="m0 0v11.723l22.755-11.723v-11.722z" stroke="#3d3d3d" stroke-linecap="round" stroke-miterlimit="10" fill="none"/>
    </g>
   </g>
  </g>
  <g style="" transform="matrix(.35278 0 0 -.35278 .080140 227.86)">
   <g style="" clip-path="url(#ao)">
    <g style="" clip-path="url(#an)">
     <g style="">
      <g style="" clip-path="url(#am)">
       <path d="m1 248h593v342h-593z" fill="url(#f)"/>
      </g>
     </g>
    </g>
   </g>
  </g>
  <g style="" transform="matrix(.35278 0 0 -.35278 .080140 227.86)">
   <g style="" clip-path="url(#al)">
    <g style="" transform="matrix(.98078 0 0 .98078 426.46 439.5)">
     <path stroke-linejoin="round" d="m0 0v11.722l-23.245-11.722v-11.723z" stroke="#3d3d3d" stroke-linecap="round" stroke-miterlimit="10" fill="none"/>
    </g>
   </g>
  </g>
  <g style="" transform="matrix(.35278 0 0 -.35278 .080140 227.86)">
   <g style="" clip-path="url(#ak)">
    <g style="" clip-path="url(#aj)">
     <g style="">
      <g style="" clip-path="url(#ai)">
       <path d="m1 248h593v342h-593z" fill="url(#e)"/>
      </g>
     </g>
    </g>
   </g>
  </g>
  <g style="" transform="matrix(.35278 0 0 -.35278 .080140 227.86)">
   <g style="" clip-path="url(#ah)">
    <g style="" transform="matrix(.98078 0 0 .98078 426.55 451)">
     <path stroke-linejoin="round" d="m0 0-23.34 11.722-23.339-11.722 23.339-11.722z" stroke="#3d3d3d" stroke-linecap="round" stroke-miterlimit="10" fill="none"/>
    </g>
   </g>
  </g>
  <g style="" transform="matrix(.35278 0 0 -.35278 .080140 227.86)">
   <g style="" clip-path="url(#ag)">
    <g style="" clip-path="url(#af)">
     <g style="">
      <g style="" clip-path="url(#ae)">
       <path d="m1 248h593v342h-593z" fill="url(#d)"/>
      </g>
     </g>
    </g>
   </g>
  </g>
  <g style="" transform="matrix(.35278 0 0 -.35278 .080140 227.86)">
   <g style="" clip-path="url(#ad)">
    <g style="" transform="matrix(.98078 0 0 .98078 381.34 439.5)">
     <path stroke-linejoin="round" d="m0 0v11.722l22.755-11.722v-11.723z" stroke="#3d3d3d" stroke-linecap="round" stroke-miterlimit="10" fill="none"/>
    </g>
   </g>
  </g>
  <g style="" transform="matrix(.35278 0 0 -.35278 .080140 227.86)">
   <g style="" clip-path="url(#ac)">
    <g style="" clip-path="url(#ab)">
     <g style="">
      <g style="" clip-path="url(#aa)">
       <path d="m1 248h593v342h-593z" fill="url(#c)"/>
      </g>
     </g>
    </g>
   </g>
  </g>
  <g style="" transform="matrix(.35278 0 0 -.35278 .080140 227.86)">
   <g style="" clip-path="url(#z)">
    <g style="" transform="matrix(.98078 0 0 .98078 375.45 348.62)">
     <path stroke-linejoin="round" d="m0 0v11.722l-23.093-11.722v-11.723z" stroke="#3d3d3d" stroke-linecap="round" stroke-miterlimit="10" fill="none"/>
    </g>
   </g>
  </g>
  <g style="" transform="matrix(.35278 0 0 -.35278 .080140 227.86)">
   <g style="" clip-path="url(#y)">
    <g style="" clip-path="url(#x)">
     <g style="">
      <g style="" clip-path="url(#w)">
       <path d="m1 248h593v342h-593z" fill="url(#b)"/>
      </g>
     </g>
    </g>
   </g>
  </g>
  <g style="" transform="matrix(.35278 0 0 -.35278 .080140 227.86)">
   <g style="" clip-path="url(#v)">
    <g style="" transform="matrix(.98078 0 0 .98078 375.7 360.12)">
     <path stroke-linejoin="round" d="m0 0-23.339 11.723-23.34-11.723l23.34-11.722z" stroke="#3d3d3d" stroke-linecap="round" stroke-miterlimit="10" fill="none"/>
    </g>
   </g>
  </g>
  <g style="" transform="matrix(.35278 0 0 -.35278 .080140 227.86)">
   <g style="" clip-path="url(#u)">
    <g style="" clip-path="url(#t)">
     <g style="">
      <g style="" clip-path="url(#s)">
       <path d="m1 248h593v342h-593z" fill="url(#a)"/>
      </g>
     </g>
    </g>
   </g>
  </g>
  <g style="" transform="matrix(.35278 0 0 -.35278 .080140 227.86)">
   <g style="" clip-path="url(#r)">
    <g style="" clip-path="url(#q)">
     <g style="" transform="matrix(.98078 0 0 .98078 330.34 348.62)">
      <path stroke-linejoin="round" d="m0 0v11.722l22.907-11.722v-11.723z" stroke="#3d3d3d" stroke-linecap="round" stroke-miterlimit="10" fill="none"/>
     </g>
     <g style="" transform="matrix(.98078 0 0 .98078 263.65 335.8)">
      <path stroke-linejoin="round" d="m0 0v-21.32" stroke="#404040" stroke-linecap="round" stroke-miterlimit="10" fill="none"/>
     </g>
     <path d="m263.42 307.04 2.9425 7.8463h-5.8848z" fill="#404040"/>
     <g style="" transform="matrix(.98078 0 0 .98078 263.42 307.04)">
      <path stroke="#404040" stroke-miterlimit="10" d="m0 0 3 8h-6z" fill="none"/>
     </g>
    </g>
   </g>
  </g>
  <g style="" transform="matrix(.35278 0 0 -.35278 .080140 227.86)">
   <g transform="translate(-8.6695 -.86695)" clip-path="url(#p)">
    <g transform="matrix(.98078 0 0 .98078 -17.348 224.42)">
     <text font-size="18px" font-family="Times" transform="matrix(1,0,0,-1,43.965,357)" fill="#000000">
      <tspan y="0" x="0 12.006 21.006001 28.007999 33.012001 42.012001 56.015999 64.008003 70.001999 77.003998">Customers</tspan>
     </text>
    </g>
    <g transform="matrix(.98078 0 0 .98078 -17.348 224.42)">
     <text font-size="18px" font-family="Times" transform="matrix(1,0,0,-1,194.82,357)" fill="#000000">
      <tspan y="0" x="0 10.008 18 23.004 30.996 37.998001 42.498001 58.5 66.491997 75.491997 83.484001 92.484001 100.476 106.47">Sales Managers</tspan>
     </text>
    </g>
    <g transform="matrix(.98078 0 0 .98078 -17.348 224.42)">
     <text font-size="18px" font-family="Times" transform="matrix(1,0,0,-1,357.08,357)" fill="#000000">
      <tspan y="0" x="0 12.996 20.988001 28.98 33.984001 40.986 45.990002 54.990002 63.990002 68.489998 78.498001 87.498001 96.498001 105.498 114.498 120.492">Decision Support</tspan>
     </text>
    </g>
   </g>
  </g>
  <g style="" transform="matrix(.35278 0 0 -.35278 .080140 227.86)">
   <g style="" clip-path="url(#o)">
    <g style="" clip-path="url(#n)">
     <g style="" transform="matrix(.98078 0 0 .98078 192.05 307.98)">
      <path stroke-linejoin="round" d="m0 0v15.644" stroke="#404040" stroke-linecap="round" stroke-miterlimit="10" fill="none"/>
     </g>
     <path d="m192.06 331.17-2.9426-7.8463h5.8848z" fill="#404040"/>
     <g style="" transform="matrix(.98078 0 0 .98078 192.06 331.17)">
      <path stroke="#404040" stroke-miterlimit="10" d="m0 0-3-8h6z" fill="none"/>
     </g>
     <g style="" transform="matrix(.98078 0 0 .98078 18.451 532.57)">
      <path stroke-linejoin="round" d="m0 0v20.138" stroke="#404040" stroke-linecap="round" stroke-miterlimit="10" fill="none"/>
     </g>
     <path d="m18.504 560.16-2.9423-7.8463h5.8847z" fill="#404040"/>
     <g style="" transform="matrix(.98078 0 0 .98078 18.504 560.16)">
      <path stroke="#404040" stroke-miterlimit="10" d="m0 0-3-8h6z" fill="none"/>
     </g>
     <g style="" transform="matrix(.98078 0 0 .98078 41.009 532.57)">
      <path stroke-linejoin="round" d="m0 0v20.138" stroke="#404040" stroke-linecap="round" stroke-miterlimit="10" fill="none"/>
     </g>
     <path d="m40.596 560.16-2.9423-7.8463h5.8847z" fill="#404040"/>
     <g style="" transform="matrix(.98078 0 0 .98078 40.596 560.16)">
      <path stroke="#404040" stroke-miterlimit="10" d="m0 0-3-8h6z" fill="none"/>
     </g>
     <g style="" transform="matrix(.98078 0 0 .98078 62.586 532.57)">
      <path stroke-linejoin="round" d="m0 0v20.138" stroke="#404040" stroke-linecap="round" stroke-miterlimit="10" fill="none"/>
     </g>
     <path d="m62.687 560.16-2.9423-7.8463h5.8847z" fill="#404040"/>
     <g style="" transform="matrix(.98078 0 0 .98078 62.687 560.16)">
      <path stroke="#404040" stroke-miterlimit="10" d="m0 0-3-8h6z" fill="none"/>
     </g>
     <g style="" transform="matrix(.98078 0 0 .98078 85.144 532.57)">
      <path stroke-linejoin="round" d="m0 0v20.138" stroke="#404040" stroke-linecap="round" stroke-miterlimit="10" fill="none"/>
     </g>
     <path d="m84.778 560.16-2.9422-7.8463h5.8845z" fill="#404040"/>
     <g style="" transform="matrix(.98078 0 0 .98078 84.778 560.16)">
      <path stroke="#404040" stroke-miterlimit="10" d="m0 0-3-8h6z" fill="none"/>
     </g>
     <g style="" transform="matrix(.98078 0 0 .98078 106.72 532.57)">
      <path stroke-linejoin="round" d="m0 0v20.138" stroke="#404040" stroke-linecap="round" stroke-miterlimit="10" fill="none"/>
     </g>
     <path d="m106.87 560.16-2.9423-7.8463h5.8848z" fill="#404040"/>
     <g style="" transform="matrix(.98078 0 0 .98078 106.87 560.16)">
      <path stroke="#404040" stroke-miterlimit="10" d="m0 0-3-8h6z" fill="none"/>
     </g>
     <g style="" transform="matrix(.98078 0 0 .98078 489.14 346.93)">
      <path stroke-linejoin="round" d="m0 0c19.031 14.172 51.538 29.506 57.1 42.521 4.376 10.237-7.923 19.044-17.218 28.108" stroke="#404040" stroke-linecap="round" stroke-miterlimit="10" fill="none"/>
     </g>
     <path d="m523.1 422.12 2.9383-7.8472 4.4351 3.8663z" fill="#404040"/>
     <g style="" transform="matrix(.98078 0 0 .98078 523.1 422.12)">
      <path stroke="#404040" stroke-miterlimit="10" d="m0 0 2.996-8.001 4.522 3.942z" fill="none"/>
     </g>
    </g>
   </g>
  </g>
  <g style="" transform="matrix(.35278 0 0 -.35278 .080140 227.86)">
   <g style="" clip-path="url(#m)">
    <g style="" transform="matrix(.98078 0 0 .98078 -17.348 224.42)">
     <text font-size="18px" font-family="Times" transform="matrix(1 0 0 -1 537.71 114.91)" fill="#000000">
      <tspan y="0" x="0 10.152 14.652 23.652 32.652 42.66 50.652 58.644001 67.643997 76.643997">&lt; 1 Second</tspan>
     </text>
    </g>
   </g>
  </g>
  <g style="" transform="matrix(.35278 0 0 -.35278 -42.997 213.02)">
   <g style="" clip-path="url(#bw)">
    <g style="" transform="matrix(.98078 0 0 .98078 -17.348 224.42)">
     <text font-size="18px" font-family="Times" transform="matrix(1 0 0 -1 230.32 150.6)" fill="#000000">
      <tspan y="15.925781" x="0"/>
     </text>
    </g>
    <g style="" transform="matrix(.98078 0 0 .98078 -17.348 224.42)">
     <text font-size="18px" font-family="Times" transform="matrix(1 0 0 -1 159.65 244.09)" fill="#000000">
      <tspan y="15.925781" x="0"/>
     </text>
    </g>
    <g style="" transform="matrix(.98078 0 0 .98078 -17.348 224.42)">
     <text font-size="18px" transform="scale(1,-1)" y="-223.63498" x="215.17517" font-family="Times" fill="#000000">
      <tspan y="-223.63498" x="215.17517">OLAP, Search and Read-only Applications</tspan>
     </text>
    </g>
   </g>
  </g>
  <g style="" transform="matrix(.35278 0 0 -.35278 137.67 176.3)">
   <g style="" clip-path="url(#bs)">
    <g style="" transform="matrix(.98078 0 0 .98078 -370.4 207.75)">
     <text font-size="18px" font-family="Times" transform="matrix(1 0 0 -1 453.04 115.57)" fill="#000000">
      <tspan y="0" x="0">Read-only</tspan>
     </text>
    </g>
   </g>
  </g>
 </g>
</svg>
