<svg xmlns="http://www.w3.org/2000/svg" width="435.26" height="277.64" viewBox="0 0 435.25 277.64">
  <defs>
    <clipPath id="a">
      <path d="M0 0h602v385H0z" clip-rule="evenodd"/>
    </clipPath>
    <clipPath id="b">
      <path d="M0 0h602v384H0z" clip-rule="evenodd"/>
    </clipPath>
    <clipPath id="c">
      <path d="M0 0h602v385H0z" clip-rule="evenodd"/>
    </clipPath>
    <clipPath id="d">
      <path d="M0 0h602v384H0z" clip-rule="evenodd"/>
    </clipPath>
    <clipPath id="e">
      <path d="M0 0h602v385H0z" clip-rule="evenodd"/>
    </clipPath>
    <clipPath id="f">
      <path d="M0 0h602v384H0z" clip-rule="evenodd"/>
    </clipPath>
    <clipPath id="g">
      <path d="M0 612h792V0H0z"/>
    </clipPath>
    <clipPath id="h">
      <path d="M331.02 424.87h116.24V311.11H331.02z"/>
    </clipPath>
  </defs>
  <g clip-path="url(#a)" transform="scale(.72302)">
    <g clip-path="url(#b)">
      <path fill="#fff" d="M14 189h574a13 13 0 0 1 13 13v104a13 13 0 0 1-13 13H14a13 13 0 0 1-13-13V202a13 13 0 0 1 13-13z"/>
      <path fill="none" stroke="#429bf9" stroke-dasharray="6 6" stroke-miterlimit="10" stroke-width="2" d="M14 189h574a13 13 0 0 1 13 13v104a13 13 0 0 1-13 13H14a13 13 0 0 1-13-13V202a13 13 0 0 1 13-13z"/>
      <path fill="#fff" d="M14 38h574a13 13 0 0 1 13 13v104a13 13 0 0 1-13 13H14a13 13 0 0 1-13-13V51a13 13 0 0 1 13-13z"/>
      <path fill="none" stroke="#429bf9" stroke-dasharray="6 6" stroke-miterlimit="10" stroke-width="2" d="M14 38h574a13 13 0 0 1 13 13v104a13 13 0 0 1-13 13H14a13 13 0 0 1-13-13V51a13 13 0 0 1 13-13z"/>
      <path fill="#fff2cc" d="M461.5 260.5h90v40h-90z"/>
      <path fill="none" stroke="#d6b656" stroke-miterlimit="10" d="M461.5 260.5h90v40h-90z"/>
      <path fill="#d5e8d4" d="M152.5 68.5h99c5.8 0 10.5 4.7 10.5 10.5v49c0 5.8-4.7 10.5-10.5 10.5h-99c-5.8 0-10.5-4.7-10.5-10.5V79c0-5.8 4.7-10.5 10.5-10.5z"/>
      <path fill="none" stroke="#82b366" stroke-miterlimit="10" d="M152.5 68.5h99c5.8 0 10.5 4.7 10.5 10.5v49c0 5.8-4.7 10.5-10.5 10.5h-99c-5.8 0-10.5-4.7-10.5-10.5V79c0-5.8 4.7-10.5 10.5-10.5z"/>
      <path fill="#f8cecc" d="M461.5 110.5h90v40h-90z"/>
      <path fill="none" stroke="#b85450" stroke-miterlimit="10" d="M461.5 110.5h90v40h-90z"/>
      <path fill="none" stroke="#429bf9" stroke-dasharray="3 3" stroke-miterlimit="10" d="M307.75.5h94.5a20.25 20.25 0 0 1 20.25 20.25v342.5a20.25 20.25 0 0 1-20.25 20.25h-94.5a20.25 20.25 0 0 1-20.25-20.25V20.75A20.25 20.25 0 0 1 307.75.5z"/>
      <path fill="#ffe6cc" d="M309.5 60.5h90v40h-90z"/>
      <path fill="none" stroke="#d79b00" stroke-miterlimit="10" d="M309.5 60.5h90v40h-90z"/>
      <path fill="#f8cecc" d="M309.5 109.5h90v40h-90z"/>
      <path fill="none" stroke="#b85450" stroke-miterlimit="10" d="M309.5 109.5h90v40h-90z"/>
    </g>
  </g>
  <g clip-path="url(#c)" transform="scale(.72302)">
    <g clip-path="url(#d)">
      <path fill="#ffe6cc" d="M461.5 205.5h90v40h-90z"/>
      <path fill="none" stroke="#d79b00" stroke-miterlimit="10" d="M461.5 205.5h90v40h-90z"/>
    </g>
  </g>
  <g clip-path="url(#e)" transform="scale(.72302)">
    <g clip-path="url(#f)">
      <path fill="none" stroke="#429bf9" stroke-dasharray="3 3" stroke-miterlimit="10" d="M459.75.5h94.5a20.25 20.25 0 0 1 20.25 20.25v340.5a20.25 20.25 0 0 1-20.25 20.25h-94.5a20.25 20.25 0 0 1-20.25-20.25V20.75A20.25 20.25 0 0 1 459.75.5z"/>
    </g>
  </g>
  <path fill="#252f3e" d="M32.91 184.26c0 .37.04.68.12.9.08.23.18.47.32.74.05.08.07.16.07.24 0 .1-.06.2-.19.3l-.64.43c-.1.06-.19.1-.27.1-.1 0-.2-.06-.3-.15a3.16 3.16 0 0 1-.37-.48l-.32-.6c-.8.94-1.8 1.4-3 1.4a2.8 2.8 0 0 1-2.05-.73 2.62 2.62 0 0 1-.76-1.96c0-.87.31-1.57.93-2.1a3.7 3.7 0 0 1 2.5-.8c.36 0 .71.03 1.1.08.37.05.76.13 1.17.22v-.74c0-.78-.17-1.32-.48-1.64-.33-.31-.88-.47-1.67-.47-.36 0-.72.04-1.1.14a8.14 8.14 0 0 0-1.46.48.63.63 0 0 1-.17.03c-.14 0-.21-.1-.21-.32v-.5c0-.16.02-.29.07-.36a.77.77 0 0 1 .29-.21 6.2 6.2 0 0 1 2.88-.65c1.21 0 2.1.27 2.67.82.57.55.85 1.39.85 2.51v3.32zm-4.15 1.55c.34 0 .69-.06 1.06-.19.36-.12.7-.34.97-.65.16-.2.28-.4.35-.65.06-.25.1-.54.1-.9V183a8.53 8.53 0 0 0-1.9-.24c-.69 0-1.19.14-1.53.41-.33.28-.5.67-.5 1.18 0 .48.13.84.38 1.08.25.26.6.38 1.07.38zm8.21 1.1c-.18 0-.3-.03-.39-.1-.08-.06-.15-.2-.21-.4l-2.4-7.9c-.07-.2-.1-.34-.1-.4 0-.17.09-.26.25-.26h1c.2 0 .33.03.4.1.08.06.14.2.2.4l1.72 6.76 1.6-6.76c.05-.2.1-.34.19-.4a.7.7 0 0 1 .4-.1h.82c.2 0 .33.03.41.1.09.06.16.2.2.4l1.61 6.85 1.77-6.85a.9.9 0 0 1 .2-.4c.09-.06.22-.1.4-.1H46c.17 0 .26.08.26.25l-.02.17-.07.25-2.47 7.9c-.06.2-.13.34-.21.4a.65.65 0 0 1-.39.1h-.88c-.2 0-.32-.03-.4-.1-.09-.07-.16-.2-.2-.4l-1.58-6.6-1.58 6.58c-.05.2-.11.34-.2.41-.07.07-.22.1-.4.1zm13.13.28a6.76 6.76 0 0 1-2.75-.6c-.16-.09-.27-.19-.31-.28a.72.72 0 0 1-.07-.29v-.52c0-.21.09-.31.24-.31.06 0 .12 0 .18.03l.26.1a5.56 5.56 0 0 0 2.34.48c.64 0 1.14-.11 1.5-.34.34-.22.52-.55.52-.97a1 1 0 0 0-.27-.71c-.19-.2-.53-.37-1.04-.54l-1.48-.46a3.12 3.12 0 0 1-1.63-1.04 2.43 2.43 0 0 1 .5-3.45c.3-.24.65-.41 1.06-.53a4.45 4.45 0 0 1 1.97-.14 7.94 7.94 0 0 1 1.25.28c.18.06.33.12.43.18.14.08.24.17.3.26.07.08.1.2.1.34v.48c0 .21-.08.32-.24.32-.08 0-.21-.04-.39-.12a4.68 4.68 0 0 0-1.96-.4c-.58 0-1.04.1-1.36.29a1 1 0 0 0-.48.9c0 .3.1.54.31.73.2.2.58.4 1.12.57l1.46.45a3.1 3.1 0 0 1 1.58.99c.32.41.47.9.47 1.43 0 .44-.1.83-.27 1.18a2.75 2.75 0 0 1-.74.9 4.65 4.65 0 0 1-2.6.79z"/>
  <g fill="#f90" fill-rule="evenodd" clip-rule="evenodd">
    <path d="M52.03 192.15c-3.36 2.49-8.24 3.8-12.44 3.8a22.52 22.52 0 0 1-15.2-5.79c-.32-.28-.03-.67.35-.45a30.65 30.65 0 0 0 15.2 4.04c3.73 0 7.83-.78 11.6-2.37.56-.26 1.05.37.5.77z" class="st1"/>
    <path d="M53.43 190.56c-.43-.55-2.84-.27-3.93-.13-.33.04-.38-.25-.08-.46 1.92-1.35 5.08-.96 5.44-.51.37.46-.1 3.61-1.9 5.13-.27.23-.54.1-.42-.2.41-1 1.32-3.29.9-3.83z" class="st1"/>
  </g>
  <g font-family="sans-serif" font-size="16" letter-spacing="0" text-anchor="middle" word-spacing="0">
    <path d="M139.1 56.65v.9q-.44-.4-.93-.6-.49-.2-1.04-.2-1.09 0-1.66.67t-.58 1.92q0 1.24.58 1.91.57.66 1.66.66.55 0 1.04-.2t.92-.6v.9q-.45.3-.95.45-.5.15-1.06.15-1.44 0-2.26-.87-.83-.88-.83-2.4 0-1.53.83-2.4.82-.89 2.26-.89.57 0 1.07.15.5.15.94.45zm1.29-.75h.78v6.6h-.78zm4.24 2.4q-.63 0-.99.48-.36.5-.36 1.34 0 .85.36 1.35.36.49 1 .49.62 0 .98-.5.36-.49.36-1.34 0-.84-.36-1.33-.36-.5-.99-.5zm0-.67q1.02 0 1.6.66.58.66.58 1.83t-.58 1.83q-.58.66-1.6.66t-1.6-.66q-.58-.66-.58-1.83t.58-1.83q.58-.66 1.6-.66zm3.39 2.99v-2.88h.78v2.85q0 .67.26 1.01.26.33.79.33.63 0 1-.4.36-.4.36-1.1v-2.68h.78v4.74h-.78v-.73q-.28.43-.66.65-.37.2-.87.2-.81 0-1.24-.5-.42-.51-.42-1.5zm1.96-2.99zm6.75.83V55.9h.78v6.6h-.78v-.72q-.25.42-.62.63-.38.2-.9.2-.86 0-1.4-.68-.54-.69-.54-1.8t.54-1.81q.54-.69 1.4-.69.52 0 .9.21.38.2.62.62zm-2.66 1.66q0 .86.35 1.36.36.48.98.48t.97-.49q.36-.48.36-1.35 0-.86-.36-1.35-.35-.48-.97-.48t-.98.48q-.35.5-.35 1.35zm-35.92 6.89h1.28l1.61 4.3 1.63-4.3h1.27v6.33h-.84v-5.56l-1.62 4.34h-.86l-1.63-4.34v5.56h-.84zm9.62 3.94q-.95 0-1.31.22-.37.22-.37.74 0 .4.27.65t.75.25q.65 0 1.04-.46.4-.46.4-1.22v-.18zm1.55-.32v2.7h-.78v-.71q-.27.43-.66.64-.4.2-.98.2-.73 0-1.16-.4-.43-.42-.43-1.1 0-.8.54-1.21.54-.41 1.6-.41h1.1v-.08q0-.53-.36-.83-.36-.3-1-.3-.4 0-.79.1-.38.1-.74.3v-.72q.43-.17.83-.25.4-.08.78-.08 1.04 0 1.54.53t.5 1.62zm5.56-.15v2.86h-.78V70.5q0-.68-.27-1.01-.26-.33-.79-.33-.62 0-.99.4t-.37 1.1v2.68h-.78v-4.75h.78v.74q.29-.43.67-.64.37-.22.87-.22.82 0 1.23.51.43.5.43 1.49zm3.72.47q-.95 0-1.3.22-.38.22-.38.74 0 .4.27.65t.75.25q.65 0 1.03-.46.4-.46.4-1.22v-.18zm1.55-.32v2.7h-.78v-.71q-.27.43-.66.64-.4.2-.98.2-.73 0-1.16-.4-.43-.42-.43-1.1 0-.8.54-1.21t1.6-.41h1.1v-.08q0-.53-.36-.83-.36-.3-1-.3-.4 0-.79.1t-.74.3v-.72q.43-.17.83-.25.4-.08.78-.08 1.03 0 1.54.53.5.53.5 1.62zm4.73.27q0-.84-.35-1.3-.35-.47-.98-.47t-.97.47q-.35.46-.35 1.3 0 .85.34 1.32.35.46.98.46t.98-.46q.35-.47.35-1.31zm.78 1.85q0 1.2-.54 1.8-.54.6-1.64.6-.41 0-.78-.07-.37-.06-.7-.19v-.76q.33.19.67.28.34.09.68.09.77 0 1.15-.4.38-.4.38-1.21v-.39q-.24.42-.62.63-.38.2-.9.2-.87 0-1.4-.66-.54-.67-.54-1.76 0-1.1.53-1.77.54-.66 1.41-.66.52 0 .9.2t.62.63v-.72h.78zm5.66-1.98v.38h-3.57q.04.8.47 1.23.44.42 1.22.42.45 0 .87-.11t.84-.33v.73q-.43.18-.87.28-.44.09-.9.09-1.13 0-1.8-.66-.65-.66-.65-1.8 0-1.15.63-1.84.63-.68 1.7-.68.95 0 1.51.62.55.61.55 1.67zm-.77-.23q-.01-.64-.36-1.02t-.93-.38q-.65 0-1.04.36-.4.37-.45 1.05zm5.75-1.04q.29-.52.7-.77.4-.25.96-.25.74 0 1.14.52.4.52.4 1.47v2.87h-.78V70.5q0-.69-.24-1.02-.24-.32-.74-.32-.6 0-.95.4-.36.4-.36 1.1v2.68h-.78V70.5q0-.69-.24-1.02-.25-.32-.75-.32-.6 0-.95.4t-.35 1.1v2.68h-.78v-4.75h.78v.74q.27-.43.64-.65.37-.2.89-.2t.87.26q.36.26.54.76zm8.82 1.27v.38h-3.58q.04.8.48 1.23.43.42 1.21.42.45 0 .87-.11t.84-.33v.73q-.42.18-.86.28-.44.09-.9.09-1.13 0-1.8-.66-.66-.66-.66-1.8 0-1.15.63-1.84.63-.68 1.7-.68.96 0 1.51.62.56.61.56 1.67zm-.78-.23q0-.64-.36-1.02-.35-.38-.92-.38-.65 0-1.05.36-.39.37-.45 1.05zm6-.06v2.86h-.77V70.5q0-.68-.27-1.01-.26-.33-.78-.33-.64 0-1 .4-.37.4-.37 1.1v2.68h-.78v-4.75h.78v.74q.29-.43.66-.64.38-.22.88-.22.81 0 1.24.51.41.5.41 1.49zm2.34-3.24v1.35h1.6v.6h-1.6v2.58q0 .58.16.75.16.16.65.16h.8v.65h-.8q-.9 0-1.25-.33-.35-.34-.35-1.23V69.2h-.57v-.6h.57v-1.36zM129.3 78.56v2.38h1.08q.6 0 .92-.31.33-.31.33-.88 0-.57-.33-.88-.32-.3-.92-.3zm-.85-.7h1.93q1.06 0 1.6.48.55.48.55 1.4 0 .94-.54 1.42-.55.48-1.6.48h-1.09v2.54h-.85zm5.2-.27h.78v6.6h-.78zm4.56 4.21q-.94 0-1.3.22-.37.21-.37.73 0 .41.27.66.27.24.75.24.65 0 1.04-.45.39-.47.39-1.23v-.17zm1.56-.33v2.71h-.78v-.72q-.27.44-.66.64-.4.2-.98.2-.73 0-1.16-.4-.43-.42-.43-1.1 0-.8.53-1.2.55-.41 1.6-.41h1.1v-.08q0-.54-.35-.83-.36-.3-1-.3-.4 0-.79.1t-.74.3v-.73q.43-.16.83-.24.4-.08.78-.08 1.03 0 1.54.53.5.53.5 1.61zm2.38-3.38v1.35h1.6v.6h-1.6v2.58q0 .58.16.75.16.16.65.16h.8v.65h-.8q-.9 0-1.25-.33-.34-.34-.34-1.23v-2.58h-.58v-.6h.58v-1.35zm5.04-.5v.65h-.75q-.42 0-.58.16-.16.18-.16.62v.42h1.28v.6h-1.28v4.14h-.79v-4.14h-.74v-.6h.74v-.33q0-.8.37-1.16.37-.36 1.17-.36zm2.49 2.39q-.63 0-1 .5-.36.48-.36 1.33 0 .86.36 1.35.36.49 1 .49.61 0 .98-.5.37-.48.37-1.34 0-.84-.37-1.33-.37-.5-.98-.5zm0-.65q1.01 0 1.6.65.57.66.57 1.83t-.58 1.83q-.58.66-1.6.66t-1.6-.66q-.57-.66-.57-1.83t.57-1.83q.58-.65 1.6-.65zm6.22.84q-.14-.08-.3-.11-.15-.04-.34-.04-.66 0-1.01.43t-.35 1.23v2.5h-.8v-4.74h.8v.74q.24-.44.64-.64.39-.22.95-.22l.18.02.22.02zm4.36.18q.29-.53.7-.77.4-.25.96-.25.73 0 1.13.52.41.51.41 1.47v2.86h-.79v-2.84q0-.68-.23-1.01-.25-.33-.74-.33-.6 0-.96.4-.35.4-.35 1.1v2.68h-.78v-2.84q0-.68-.25-1.01-.24-.33-.74-.33-.6 0-.95.41-.35.4-.35 1.09v2.68h-.79v-4.74h.79v.74q.27-.44.64-.65.37-.2.88-.2.52 0 .88.26t.54.76z" aria-label="Cloud Management Platform" style="line-height:1.25;text-align:center"/>
    <path d="M233.8 91.17v4.91h1.03q1.3 0 1.92-.6.6-.58.6-1.86 0-1.27-.6-1.86-.61-.6-1.92-.6zm-.86-.7h1.76q1.84 0 2.7.76.86.76.86 2.39 0 1.64-.87 2.4-.87.77-2.7.77h-1.75zm6.64 1.57h.78v4.75h-.78zm0-1.84h.78v.98h-.78zm5.44 1.98v.74q-.34-.17-.7-.26-.35-.08-.73-.08-.58 0-.87.18-.3.17-.3.53 0 .27.21.43.22.15.84.3l.27.05q.83.18 1.18.5.34.33.34.9 0 .67-.52 1.05t-1.43.39q-.38 0-.8-.08-.41-.07-.87-.21v-.81q.44.22.85.34.42.1.83.1.55 0 .85-.18t.3-.53q0-.32-.22-.5-.22-.16-.94-.32l-.27-.06q-.72-.15-1.05-.47-.32-.31-.32-.87 0-.66.48-1.03.47-.36 1.35-.36.43 0 .81.06t.7.19zm2.25 3.89v2.52h-.79v-6.55h.79v.72q.25-.42.61-.62.38-.21.9-.21.87 0 1.4.68.55.7.55 1.81t-.54 1.8q-.54.69-1.41.69-.52 0-.9-.2-.36-.21-.61-.64zm2.65-1.65q0-.86-.36-1.35-.35-.49-.97-.49-.61 0-.97.49-.35.49-.35 1.35 0 .86.35 1.35.36.49.97.49.62 0 .97-.49.36-.49.36-1.36zm4.25-.02q-.94 0-1.3.22-.37.22-.37.73 0 .42.28.66.27.25.74.25.65 0 1.04-.46t.39-1.22v-.18zm1.56-.32v2.71h-.78v-.72q-.27.43-.66.64-.4.2-.98.2-.72 0-1.16-.4-.43-.42-.43-1.1 0-.8.54-1.21t1.6-.4h1.09v-.08q0-.55-.35-.83-.36-.3-1-.3-.4 0-.79.1t-.74.29v-.72q.43-.17.83-.25.4-.08.79-.08 1.03 0 1.53.53.51.53.51 1.62zm2.38-3.38v1.34h1.6v.6h-1.6v2.58q0 .58.16.75.16.16.65.16h.8v.65h-.8q-.9 0-1.25-.33-.34-.34-.34-1.23v-2.57h-.57v-.6h.57v-1.36zm6.05 1.52v.73q-.33-.18-.66-.27-.33-.1-.67-.1-.76 0-1.18.5-.42.47-.42 1.34t.42 1.35q.42.48 1.18.48.34 0 .67-.09.33-.1.66-.27v.72q-.32.15-.67.22-.35.08-.75.08-1.07 0-1.7-.67-.63-.68-.63-1.82 0-1.16.64-1.83.63-.66 1.75-.66.35 0 .7.07.34.08.66.22zm5.31 1.7v2.87h-.78v-2.84q0-.67-.26-1.01-.26-.34-.8-.34-.62 0-.98.41-.37.4-.37 1.1v2.68h-.78v-6.6h.78v2.59q.28-.43.66-.64.38-.21.87-.21.82 0 1.24.5.42.51.42 1.5zm5.63.3v.38h-3.59q.05.8.48 1.23.44.42 1.21.42.45 0 .87-.11.42-.1.84-.33v.74q-.42.17-.86.27-.44.09-.9.09-1.13 0-1.8-.66-.65-.66-.65-1.8 0-1.15.62-1.84.64-.68 1.7-.68.96 0 1.52.61.55.62.55 1.68zm-.79-.23q0-.64-.36-1.02-.35-.38-.92-.38-.65 0-1.05.37-.39.36-.45 1.04zm4.81-1.22q-.13-.07-.29-.1-.15-.04-.33-.04-.67 0-1.02.43-.36.42-.36 1.23v2.5h-.78v-4.75h.78v.74q.25-.44.64-.64.4-.21.96-.21l.18.01q.1 0 .22.03zm66.28-.61v4.92h1.02q1.32 0 1.92-.6.61-.58.61-1.86 0-1.27-.6-1.86-.61-.6-1.93-.6zm-.86-.7h1.75q1.85 0 2.7.77.87.76.87 2.39 0 1.63-.87 2.4t-2.7.77h-1.75zm6.64 1.58h.78v4.75h-.78zm0-1.85h.78v.99h-.78zm5.43 1.99v.74q-.33-.17-.69-.26-.35-.08-.73-.08-.58 0-.87.18-.3.17-.3.53 0 .27.21.43.21.15.84.3l.27.05q.83.18 1.18.5.34.33.34.9 0 .67-.52 1.05t-1.43.39q-.38 0-.8-.08-.41-.07-.87-.22v-.8q.43.22.85.34.42.1.83.1.55 0 .85-.18t.3-.54q0-.32-.22-.48-.22-.17-.94-.33l-.27-.06q-.72-.16-1.05-.47-.32-.31-.32-.87 0-.66.47-1.03.48-.37 1.36-.37.43 0 .8.07t.71.19zm2.25 3.89v2.52h-.78v-6.55h.78v.72q.25-.42.62-.63.38-.2.9-.2.87 0 1.4.68.55.7.55 1.8t-.54 1.81q-.55.69-1.41.69-.52 0-.9-.2-.37-.22-.62-.64zm2.66-1.65q0-.86-.36-1.35-.35-.5-.97-.5t-.97.5q-.36.49-.36 1.35 0 .85.36 1.35.35.49.97.49t.97-.5q.36-.48.36-1.35zm4.25-.02q-.94 0-1.3.22-.37.22-.37.73 0 .42.27.66.27.25.75.25.65 0 1.04-.46.39-.47.39-1.22v-.18zm1.56-.32v2.7h-.78v-.71q-.27.43-.66.64-.4.2-.98.2-.73 0-1.16-.41-.43-.41-.43-1.1 0-.8.54-1.2t1.6-.41h1.09v-.08q0-.54-.35-.83-.36-.3-1-.3-.4 0-.79.1t-.74.3v-.73q.43-.16.83-.24.4-.09.78-.09 1.03 0 1.54.54.5.53.5 1.62zm2.37-3.38v1.34h1.61v.6h-1.6v2.58q0 .58.16.75.16.16.65.16h.8v.65h-.8q-.9 0-1.25-.33-.34-.34-.34-1.23v-2.58h-.58v-.6h.58V91.7zm6.06 1.52v.73q-.33-.18-.67-.27-.32-.1-.66-.1-.76 0-1.18.5-.42.47-.42 1.34t.42 1.35q.42.48 1.18.48.33 0 .66-.1.34-.08.67-.26v.71q-.32.16-.68.23-.34.08-.74.08-1.07 0-1.7-.68-.63-.67-.63-1.81 0-1.16.63-1.83.64-.67 1.75-.67.36 0 .71.08.34.08.66.22zm5.31 1.7v2.87h-.78v-2.84q0-.68-.26-1.01-.27-.34-.8-.34-.62 0-.99.4-.36.4-.36 1.1v2.69h-.78v-6.6h.78v2.58q.28-.42.66-.63.38-.22.87-.22.82 0 1.24.51.42.5.42 1.49zm5.63.3v.38h-3.6q.06.8.5 1.23.43.42 1.2.42.45 0 .87-.11t.84-.33v.73q-.42.18-.86.27-.44.1-.9.1-1.13 0-1.8-.66-.65-.67-.65-1.8 0-1.15.62-1.84.63-.69 1.7-.69.96 0 1.52.62.55.62.55 1.68zm-.79-.23q0-.64-.36-1.02-.35-.38-.92-.38-.65 0-1.05.36-.39.37-.45 1.04zm4.81-1.22q-.13-.08-.29-.1-.15-.05-.34-.05-.66 0-1.02.44-.35.42-.35 1.23v2.5h-.78v-4.75h.78v.73q.25-.43.64-.63.4-.22.96-.22l.18.02q.1 0 .22.03z" aria-label="Dispatcher" style="line-height:1.25;text-align:center"/>
    <path d="M242.1 55.47h1.26l1.62 4.3 1.62-4.3h1.27v6.33h-.83v-5.56l-1.63 4.34h-.86l-1.63-4.34v5.56h-.83zm9.6 3.94q-.94 0-1.31.22-.36.21-.36.73 0 .42.27.66.27.24.75.24.65 0 1.03-.45.4-.47.4-1.23v-.17zm1.56-.33v2.72h-.78v-.73q-.27.44-.67.64t-.98.2q-.72 0-1.16-.4-.42-.41-.42-1.1 0-.8.53-1.2.54-.41 1.6-.41h1.1v-.08q0-.54-.36-.83-.35-.3-1-.3-.4 0-.79.1-.37.1-.73.3v-.73q.42-.16.83-.24.4-.09.78-.09 1.03 0 1.54.54.5.53.5 1.61zm4.63-1.89v.73q-.33-.16-.68-.25-.36-.08-.74-.08-.58 0-.87.18-.3.17-.3.53 0 .27.21.43.21.15.84.29l.27.05q.82.19 1.17.51.35.33.35.9 0 .66-.52 1.05-.52.38-1.44.38-.38 0-.8-.07-.4-.07-.86-.22v-.8q.43.22.85.34.42.1.83.1.55 0 .85-.19.3-.19.3-.53 0-.32-.23-.49-.2-.16-.93-.32l-.27-.07q-.73-.15-1.05-.46-.32-.32-.32-.87 0-.67.48-1.03.47-.37 1.35-.37.43 0 .8.07t.71.19zm2.27-1.49v1.35h1.6v.6h-1.6v2.58q0 .58.16.75.16.16.65.16h.8v.65h-.8q-.9 0-1.25-.33-.35-.34-.35-1.23v-2.58h-.56v-.6h.56V55.7zm6.69 3.53v.37h-3.58q.05.81.48 1.24.43.41 1.22.41.45 0 .86-.1.43-.11.84-.33v.73q-.42.18-.86.27-.44.1-.9.1-1.13 0-1.8-.67-.66-.66-.66-1.79 0-1.16.63-1.84.63-.69 1.7-.69.96 0 1.52.62.55.62.55 1.68zm-.77-.23q-.01-.64-.37-1.02-.34-.38-.92-.38-.65 0-1.04.36-.4.37-.45 1.04zm4.81-1.22q-.14-.08-.3-.11-.15-.04-.33-.04-.66 0-1.02.43-.35.43-.35 1.24v2.49h-.78v-4.74h.78v.73q.25-.43.64-.63.4-.22.96-.22l.18.02.21.02zm80.99 102.34h1.27l1.62 4.3 1.62-4.3h1.27v6.33h-.83v-5.56l-1.63 4.34h-.86l-1.63-4.34v5.56h-.83zm9.62 3.94q-.95 0-1.32.22-.36.21-.36.73 0 .42.27.66.27.24.75.24.65 0 1.03-.45.4-.47.4-1.23v-.17zm1.55-.33v2.72h-.78v-.73q-.27.44-.67.64t-.98.2q-.72 0-1.16-.4-.42-.41-.42-1.1 0-.8.53-1.2.54-.41 1.6-.41h1.1v-.08q0-.54-.36-.83-.35-.3-1-.3-.4 0-.78.1t-.74.3v-.73q.42-.16.83-.24.4-.09.78-.09 1.03 0 1.54.54.5.53.5 1.61zm4.63-1.89v.73q-.33-.16-.68-.25-.36-.08-.74-.08-.58 0-.87.18-.3.17-.3.53 0 .27.21.43.21.15.84.29l.27.05q.82.19 1.17.51.35.33.35.9 0 .66-.52 1.05-.52.38-1.44.38-.38 0-.79-.07-.41-.07-.87-.22v-.8q.43.22.85.34.42.1.83.1.55 0 .85-.19.3-.19.3-.53 0-.32-.23-.49-.2-.16-.93-.32l-.27-.07q-.73-.15-1.05-.46-.32-.32-.32-.87 0-.67.48-1.03.47-.37 1.35-.37.43 0 .81.07t.7.19zm2.27-1.49v1.35h1.6v.6h-1.6v2.58q0 .58.16.75.16.16.65.16h.8v.65h-.8q-.9 0-1.25-.33-.34-.34-.34-1.23v-2.58h-.57v-.6h.57v-1.35zm6.69 3.53v.37h-3.58q.05.81.48 1.24.44.41 1.22.41.45 0 .86-.1.43-.11.84-.33v.73q-.42.18-.86.27-.44.1-.9.1-1.13 0-1.8-.67-.65-.66-.65-1.79 0-1.16.62-1.84.63-.69 1.7-.69.96 0 1.52.62.55.62.55 1.68zm-.77-.23q-.01-.64-.37-1.02-.34-.38-.92-.38-.65 0-1.04.36-.4.37-.45 1.04zm4.81-1.22q-.14-.08-.3-.11-.15-.04-.33-.04-.66 0-1.02.43-.35.43-.35 1.24v2.49h-.78v-4.74h.78v.73q.25-.43.64-.63.4-.22.96-.22l.18.02.21.02z" aria-label="Master" style="line-height:1.25;text-align:center"/>
    <path d="M355.8 203.08q.28.1.54.4.26.3.53.84l.86 1.73h-.92l-.8-1.63q-.32-.64-.61-.84-.3-.2-.8-.2h-.94v2.67h-.86v-6.33h1.94q1.08 0 1.62.45.53.45.53 1.37 0 .6-.28 1t-.8.53zm-2.14-2.66v2.25h1.08q.62 0 .93-.29.32-.29.32-.84t-.32-.84q-.31-.28-.93-.28zm8.81 3.05v.38h-3.58q.05.81.48 1.24.44.41 1.22.41.44 0 .86-.1.43-.11.84-.33v.73q-.42.18-.86.27-.44.1-.9.1-1.13 0-1.8-.67-.65-.66-.65-1.79 0-1.16.62-1.84.63-.69 1.7-.69.96 0 1.52.62.55.62.55 1.68zm-.78-.22q0-.64-.36-1.02-.34-.38-.92-.38-.65 0-1.04.36-.4.37-.45 1.04zm2.81 2.08v2.52h-.77v-6.55h.78v.72q.24-.43.62-.63.37-.2.9-.2.86 0 1.4.68.54.69.54 1.8t-.55 1.81q-.53.68-1.4.68-.52 0-.9-.2-.37-.2-.61-.63zm2.66-1.65q0-.87-.36-1.35-.35-.5-.96-.5-.62 0-.98.5-.35.48-.35 1.35 0 .85.35 1.35.36.48.98.48.61 0 .96-.48.36-.5.36-1.36zm2.1-4.23h.78v6.6h-.78zm2.41 1.85h.78v4.75h-.78zm0-1.85h.78v.99h-.78zm5.82 2.03v.73q-.33-.18-.67-.28-.32-.09-.66-.09-.76 0-1.18.5-.42.47-.42 1.34t.42 1.35q.42.47 1.18.47.33 0 .66-.08.34-.1.67-.27v.71q-.33.15-.68.23-.35.07-.74.07-1.08 0-1.7-.67-.63-.67-.63-1.81 0-1.16.63-1.83.64-.67 1.75-.67.36 0 .7.08t.67.22zm3.51 2.18q-.93 0-1.3.22-.37.21-.37.73 0 .42.27.66.28.24.75.24.65 0 1.04-.45.4-.47.4-1.23v-.17zm1.57-.33v2.72h-.79v-.73q-.27.44-.66.64-.4.2-.98.2-.73 0-1.15-.4-.44-.41-.44-1.1 0-.8.54-1.2.54-.41 1.6-.41h1.1v-.08q0-.54-.36-.83-.35-.3-1-.3-.4 0-.79.1-.38.1-.74.3v-.73q.43-.16.83-.24.4-.09.79-.09 1.03 0 1.54.54.5.53.5 1.61z" aria-label="Replica" style="line-height:1.25;text-align:center"/>
    <path d="M237.96 246.79h.86v2.59h3.11v-2.6h.85v6.33h-.85v-3.01h-3.11v3.01h-.86zm8.47 6.76q-.33.85-.64 1.1-.32.26-.85.26h-.62v-.65h.46q.32 0 .5-.15.17-.15.4-.72l.13-.36-1.92-4.66h.83l1.48 3.7 1.48-3.7h.83zm5.91-4.45q-.13-.08-.3-.11-.14-.04-.33-.04-.66 0-1.02.43-.35.43-.35 1.23v2.5h-.78v-4.74h.78v.73q.24-.43.64-.63.4-.22.96-.22l.17.02.22.02zm.82-.73h.78v4.74h-.78zm0-1.85h.78v.99h-.78zm5.44 1.98v.74q-.33-.17-.7-.25-.35-.08-.73-.08-.58 0-.87.17-.3.18-.3.54 0 .27.22.42.2.16.83.3l.27.05q.83.19 1.18.51.35.33.35.9 0 .66-.53 1.05-.52.38-1.43.38-.38 0-.8-.07-.4-.07-.87-.22v-.8q.43.21.85.33.43.11.83.11.56 0 .85-.19.3-.19.3-.53 0-.32-.22-.49-.21-.16-.93-.32l-.27-.07q-.73-.15-1.05-.46-.33-.32-.33-.87 0-.67.48-1.03.47-.37 1.35-.37.43 0 .8.06t.71.2zm5.55 2.04v.38h-3.58q.05.81.48 1.23.43.42 1.22.42.44 0 .86-.1.43-.12.84-.33v.73q-.42.18-.86.27-.44.1-.9.1-1.13 0-1.8-.67-.66-.66-.66-1.79 0-1.16.63-1.84.63-.69 1.7-.69.96 0 1.51.62.56.62.56 1.68zm-.78-.22q0-.64-.36-1.02-.34-.38-.92-.38-.65 0-1.04.36-.4.37-.45 1.04zm1.67.07h2.28v.69h-2.28zm6.56-.24q.27.09.53.4.27.3.53.83l.87 1.73h-.92l-.81-1.62q-.32-.64-.6-.84-.3-.2-.81-.2h-.93v2.66h-.86v-6.32h1.93q1.09 0 1.62.45t.53 1.37q0 .6-.27.99-.28.4-.81.54zm-2.14-2.66v2.25h1.07q.62 0 .93-.29.33-.29.33-.84t-.33-.84q-.3-.28-.93-.28zm-28.19 10.63v.9q-.43-.4-.92-.6-.49-.2-1.03-.2-1.09 0-1.67.66-.57.67-.57 1.92t.57 1.92q.58.66 1.67.66.54 0 1.03-.2t.92-.6v.9q-.45.3-.95.45-.5.15-1.06.15-1.44 0-2.26-.88t-.82-2.4q0-1.53.82-2.4.82-.88 2.26-.88.57 0 1.07.15.5.15.94.45zm1.3-.75h.78v6.59h-.78zm2.33 4.71v-2.87h.78v2.85q0 .67.26 1 .26.34.79.34.63 0 1-.4.36-.4.36-1.1v-2.69h.78v4.75h-.78v-.73q-.28.43-.66.64-.37.2-.87.2-.81 0-1.24-.5-.42-.5-.42-1.49zm1.96-2.98zm6.65.25v.74q-.33-.17-.69-.26-.35-.08-.73-.08-.58 0-.87.18-.3.17-.3.53 0 .27.21.43.21.15.84.3l.27.05q.82.18 1.18.5.34.33.34.9 0 .67-.52 1.05-.52.39-1.44.39-.37 0-.8-.08-.4-.07-.86-.21v-.81q.43.22.85.34.42.1.83.1.55 0 .85-.18t.3-.53q0-.32-.22-.5-.22-.16-.94-.32l-.27-.06q-.72-.15-1.05-.47-.32-.31-.32-.87 0-.66.47-1.03.48-.36 1.35-.36.44 0 .82.06t.7.19zm2.27-1.49v1.35h1.6v.6h-1.6v2.58q0 .58.16.75.16.16.65.16h.8v.65h-.8q-.9 0-1.25-.33-.34-.34-.34-1.23v-2.57h-.58v-.6h.58v-1.36zm6.69 3.53v.38h-3.58q.06.8.48 1.23.44.42 1.21.42.45 0 .87-.11t.84-.33v.74q-.42.17-.86.27-.43.09-.89.09-1.14 0-1.8-.66-.66-.66-.66-1.8 0-1.15.62-1.84.64-.68 1.7-.68.96 0 1.52.62.56.61.56 1.67zm-.77-.23q-.02-.64-.37-1.02-.34-.38-.92-.38-.65 0-1.05.37-.39.36-.45 1.04zm4.8-1.22q-.13-.07-.29-.1-.15-.05-.33-.05-.66 0-1.02.44-.35.42-.35 1.23v2.5h-.79v-4.75h.79v.74q.24-.44.64-.64.4-.21.95-.21l.18.01q.1 0 .22.03zm5.74-1.46l-1.16 3.14h2.33zm-.48-.85h.97l2.4 6.33h-.88l-.58-1.63h-2.85l-.58 1.63h-.9z" aria-label="Hyrise-R Cluster A" style="line-height:1.25;text-align:center"/>
    <path d="M350.75 245.9h.86v2.59h3.11v-2.6h.85v6.33h-.85v-3.01h-3.11v3.01h-.86zm8.47 6.76q-.33.85-.64 1.11-.32.26-.84.26h-.63v-.66h.46q.32 0 .5-.15t.4-.72l.13-.36-1.92-4.66h.83l1.48 3.7 1.48-3.7h.83zm5.91-4.46q-.13-.07-.29-.1-.15-.04-.34-.04-.66 0-1.02.43-.35.43-.35 1.23v2.5h-.78v-4.74h.78v.73q.25-.43.64-.63.4-.22.96-.22l.17.02.22.02zm.82-.72h.78v4.74h-.78zm0-1.85h.78v.99h-.78zm5.44 1.99v.73q-.33-.17-.7-.25-.35-.08-.73-.08-.58 0-.87.18-.3.17-.3.53 0 .27.22.43.2.15.84.29l.26.05q.83.19 1.18.51.35.33.35.9 0 .66-.53 1.05-.52.38-1.43.38-.38 0-.8-.07-.4-.07-.87-.22v-.8q.44.22.85.33.43.11.83.11.56 0 .85-.19.3-.19.3-.53 0-.32-.22-.49-.21-.16-.93-.32l-.27-.07q-.73-.15-1.05-.46-.33-.32-.33-.87 0-.67.48-1.03.47-.37 1.35-.37.43 0 .81.07t.7.19zm5.55 2.03v.38h-3.58q.05.81.48 1.23.44.42 1.22.42.44 0 .86-.1.43-.11.84-.33v.73q-.42.18-.86.27-.44.1-.9.1-1.13 0-1.8-.67-.65-.66-.65-1.79 0-1.16.62-1.84.63-.69 1.7-.69.96 0 1.51.62.56.62.56 1.68zm-.78-.22q0-.64-.36-1.02-.34-.38-.92-.38-.65 0-1.04.36-.4.37-.45 1.04zm1.67.07h2.28v.7h-2.28zm6.56-.24q.28.1.54.4.26.3.52.83l.87 1.73h-.92l-.81-1.62q-.31-.64-.6-.84-.3-.2-.81-.2h-.93v2.66h-.86v-6.32h1.94q1.08 0 1.61.45t.53 1.37q0 .6-.27 1-.27.39-.81.53zm-2.14-2.66v2.25h1.08q.61 0 .92-.29.33-.29.33-.84t-.33-.84q-.3-.28-.92-.28zm-28.19 10.63v.9q-.43-.4-.92-.6-.5-.2-1.04-.2-1.09 0-1.66.66-.58.67-.58 1.92t.58 1.92q.57.66 1.66.66.55 0 1.03-.2.5-.2.92-.6v.9q-.44.3-.95.45-.5.15-1.05.15-1.44 0-2.27-.88-.82-.88-.82-2.4 0-1.53.82-2.4.83-.88 2.27-.88.56 0 1.06.15t.95.45zm1.3-.75h.78v6.59h-.78zm2.32 4.72v-2.88h.78v2.85q0 .67.26 1 .26.34.79.34.63 0 1-.4t.37-1.1v-2.68h.77v4.74h-.77v-.73q-.3.43-.67.64-.37.21-.86.21-.82 0-1.25-.51-.42-.5-.42-1.49zm1.96-2.99zm6.66.25v.74q-.34-.17-.7-.26-.35-.08-.73-.08-.58 0-.87.18-.3.17-.3.53 0 .27.22.43.2.15.83.3l.27.05q.83.18 1.18.5.35.33.35.9 0 .67-.53 1.05-.52.39-1.44.39-.37 0-.8-.08-.4-.07-.86-.21v-.81q.43.22.85.34.42.1.83.1.55 0 .85-.18.3-.2.3-.53 0-.32-.22-.49-.21-.17-.93-.33l-.28-.06q-.72-.15-1.04-.47-.33-.31-.33-.86 0-.67.48-1.04.47-.36 1.34-.36.44 0 .82.06t.7.2zm2.27-1.48v1.35h1.6v.6h-1.6v2.57q0 .58.15.75.17.16.65.16h.8v.65h-.8q-.9 0-1.25-.33-.34-.34-.34-1.23v-2.57h-.57v-.6h.57v-1.35zm6.69 3.52v.38h-3.59q.06.8.5 1.23.42.42 1.2.42.44 0 .87-.11.42-.1.83-.33v.74q-.41.18-.85.27-.44.09-.9.09-1.14 0-1.8-.66-.66-.66-.66-1.8 0-1.15.63-1.84.63-.68 1.7-.68.96 0 1.5.62.57.61.57 1.67zm-.78-.23q0-.64-.36-1.02-.35-.38-.92-.38-.65 0-1.05.37t-.45 1.04zm4.81-1.22q-.13-.07-.3-.1-.14-.04-.33-.04-.66 0-1.02.43-.35.42-.35 1.23v2.5h-.78v-4.74h.78v.73q.24-.44.64-.64.4-.21.96-.21l.17.01q.1 0 .22.03zm4.48 1v2.32h1.37q.69 0 1.02-.3.33-.28.33-.87 0-.6-.33-.87-.33-.29-1.02-.29zm0-2.6v1.9h1.26q.63 0 .93-.23.31-.24.31-.72t-.3-.71q-.31-.24-.94-.24zm-.86-.7h2.18q.98 0 1.51.4t.53 1.15q0 .58-.27.93-.27.34-.8.43.63.13.98.56.35.44.35 1.08 0 .84-.57 1.3-.58.47-1.64.47h-2.27z" aria-label="Hyrise-R Cluster B" style="line-height:1.25;text-align:center"/>
  </g>
  <g clip-path="url(#g)" transform="matrix(.11983 0 0 -.11983 -4.51 111.04)">
    <path fill="#4e4640" d="M624.62 215.96a5.26 5.26 0 1 0 .01 10.52 5.26 5.26 0 0 0-.01-10.52m6.96 5.25a6.97 6.97 0 1 1-13.94-.01 6.97 6.97 0 0 1 13.94.01"/>
    <path fill="#4e4640" d="M625.8 222.43c0-.61-.39-1.02-1.11-1.02h-1.04v2.05h1c.74 0 1.15-.33 1.15-1.02zm1.42.04v.04c0 .67-.2 1.2-.57 1.58-.43.43-1.06.65-1.85.65h-2.57v-6.82h1.42v2.24h.88l1.27-2.24h1.62l-1.46 2.53c.75.33 1.26.99 1.26 2.02m-453.11 19.27v.63c0 10.39 5.35 18.05 13.64 18.05 8.08 0 13.85-7.77 13.85-18.16v-.62c0-10.38-5.35-18.15-13.64-18.15-8.08-.01-13.85 7.86-13.85 18.25m39.35-.2v.94c0 16.47-10.8 28.43-25.5 28.43-14.8 0-25.7-12.17-25.7-28.54v-.94c0-16.48 10.8-28.34 25.5-28.34 14.79 0 25.7 12.07 25.7 28.44m18.35 0v1.05c0 10.91 6.09 17.84 13.22 17.84 7.14 0 12.9-6.82 12.9-17.95v-.94c0-11.12-5.66-17.84-12.9-17.84-7.12 0-13.22 6.94-13.22 17.84m38.09-.21v1.47c0 18.78-10.5 28.12-21.62 28.12-7.97 0-12.8-4.62-16.26-9.97v8.92h-11.86V198.4h11.86v24.24c3.36-4.93 8.19-9.44 16.26-9.44 11.23 0 21.63 9.43 21.63 28.12m30.18 19.62c6.92 0 10.91-6.4 11.54-15.21h-23.5c.84 9.44 5.46 15.21 11.96 15.21m21.2-39.24l-6.2 7.34c-3.67-3.56-7.55-5.87-12.8-5.87-7.24 0-13 5.03-14.06 14.37h34.84c.1 1.68.1 3.36.1 4.1 0 16.67-7.97 29.26-23.08 29.26-13.64 0-23.71-11.96-23.71-28.65v-.83c0-17.42 11.12-28.34 25.39-28.34 8.29 0 14.48 3.26 19.52 8.6m36.7 49.23c-7.55 0-12.07-4.3-15.21-9.23v8.18h-11.86v-55.61h11.86v33.68c0 7.66 4.3 12.28 10.49 12.28 6.3 0 9.97-4.3 9.97-12.07v-33.9h11.85v37.26c0 11.85-6.4 19.41-17.1 19.41m64.9-40.82v.1c0 8.71-6.5 12.7-15.11 16.58-6.5 2.94-10.91 4.83-10.91 8.5v.21c0 3.05 2.62 5.46 7.03 5.46 4.4 0 9.02-2.1 13.22-4.93l5.04 8.7a31.76 31.76 0 0 1-18.05 5.99c-10.39 0-18.36-6.3-18.36-16.27v-.2c0-9.14 6.92-12.91 15.21-16.48 6.61-2.83 10.91-4.62 10.91-8.6v-.1c0-3.47-2.83-6.1-7.76-6.1s-10.29 2.42-15.32 6.5l-5.56-8.49a32.82 32.82 0 0 1 20.67-7.76c10.69-.01 18.99 5.98 18.99 16.89m36.71-14.27v9.76c-2-1.06-4.1-1.57-6.4-1.57-3.78 0-5.98 1.78-5.98 6.08v29.59h12.48v10.18h-12.5v15h-11.85v-15h-6.09l1.95-10.18h4.14v-32c0-10.81 6.2-14.27 14.38-14.27 3.98 0 7.13.94 9.86 2.41m39.57 17.1c0-6.3-5.25-10.91-12.07-10.8-5.14.1-9.02 3.25-9.02 8.8v.22c0 5.87 3.99 9.34 10.8 9.34 4 0 7.56-.84 10.29-2zm5.88 31.9c-3.57 3.67-9.13 5.67-16.37 5.67-7.45 0-13.01-1.79-18.37-4.41l3.36-9.45c3.68 1.68 8.08 3.36 13.43 3.36 7.57 0 11.97-3.87 11.97-11.33v-2.3a37.8 37.8 0 0 1-12.8 2.2c-11.76 0-19.73-5.88-19.73-17.84v-.53c0-10.8 7.76-17 17-17 7.24 0 12.17 3.15 15.42 7.87v-6.82h11.65v34.52c0 6.93-1.9 12.39-5.56 16.06M561 221.48l-6.4 7.87c-3.25-3.25-6.5-5.67-11.33-5.67-8.08 0-13.75 7.24-13.75 18.05v.53c0 10.49 5.67 17.94 13.43 17.94 5.04 0 8.3-2.52 11.23-5.56l6.61 8.7c-4.62 4.62-9.86 7.56-17.84 7.56-14.58 0-25.39-11.96-25.39-28.54v-1.05c0-16.58 10.5-28.22 24.97-28.22 8.5-.01 14.07 3.46 18.47 8.39m36.29 21.63l-8.32-8.95 11.16-19.91h13.76z"/>
    <path fill="#4e4640" d="M599.29 269.86l-19-24.45v44.6h-11.85v-75.76h11.86v16.05l33.05 39.56z"/>
    <g clip-path="url(#h)" opacity=".98">
      <path fill="#ed1844" d="M436.46 424.87h-94.64c-5.94 0-10.8-4.86-10.8-10.8v-25.45h26.25v4.16a5.84 5.84 0 0 0 5.84 5.84h52.06a5.84 5.84 0 0 0 5.84-5.84v-4.16h26.25v25.45c0 5.94-4.86 10.8-10.8 10.8m-15.45-81.67a5.84 5.84 0 0 0-5.84-5.84h-52.06a5.84 5.84 0 0 0-5.84 5.84v4.16h-26.25V321.9c0-5.94 4.86-10.8 10.8-10.8h94.64c5.94 0 10.8 4.86 10.8 10.8v25.46h-26.25zm-63.73 37.92h-26.25v-26.25h26.25zm89.98 0h-26.25v-26.25h26.25z"/>
    </g>
  </g>
</svg>
