<svg xmlns="http://www.w3.org/2000/svg" width="209.2mm" height="119.46mm" viewBox="0 0 209.19722 119.45759"><defs><clipPath id="ax"><path d="M1 248h593v342H1z"/></clipPath><clipPath id="av"><path d="M-17.348 608.89h615.93V224.42h-615.93z"/></clipPath><clipPath id="aw"><path d="M1 248h593v342H1z"/></clipPath><clipPath id="au"><path d="M1 248h593v342H1z"/></clipPath><clipPath id="as"><path d="M-17.348 608.89h615.93V224.42h-615.93z"/></clipPath><clipPath id="at"><path d="M1 248h593v342H1z"/></clipPath><clipPath id="ao"><path d="M329.91 348.62l22.891-11.498v11.498l-22.891 11.496z"/></clipPath><clipPath id="ap"><path d="M1 248h593v342H1z"/></clipPath><clipPath id="aq"><path d="M886.89 620.17L489.47-68.19l-735.3 424.53 397.42 688.36z"/></clipPath><linearGradient id="ar" x1="-15.987" x2="15.987" gradientTransform="matrix(-.49039 -.84938 -.84938 .49039 341.36 348.62)" gradientUnits="userSpaceOnUse"><stop offset="0" stop-color="#fff"/><stop offset="1" stop-color="#eaeaea"/></linearGradient><clipPath id="an"><path d="M1 248h593v342H1z"/></clipPath><clipPath id="aj"><path d="M329.91 360.12l22.891-11.496 22.892 11.496-22.892 11.498z"/></clipPath><clipPath id="ak"><path d="M1 248h593v342H1z"/></clipPath><clipPath id="al"><path d="M-245.83 356.34l397.42 688.36 735.3-424.53L489.47-68.19z"/></clipPath><linearGradient id="am" x1="-21.821" x2="21.821" gradientTransform="matrix(.49039 .84938 .84938 -.49039 352.81 360.12)" gradientUnits="userSpaceOnUse"><stop offset="0" stop-color="#c1c1c1"/><stop offset="1" stop-color="#ececec"/></linearGradient><clipPath id="ai"><path d="M1 248h593v342H1z"/></clipPath><clipPath id="ae"><path d="M352.81 348.62v-11.498l22.892 11.498v11.496z"/></clipPath><clipPath id="af"><path d="M1 248h593v342H1z"/></clipPath><clipPath id="ag"><path d="M-17.348 752.08h675.76V224.42h-675.76z"/></clipPath><linearGradient id="ah" x1="-11.67" x2="11.67" gradientTransform="matrix(.98078 0 0 -.98078 364.25 348.62)" gradientUnits="userSpaceOnUse"><stop offset="0" stop-color="#c1c1c1"/><stop offset="1" stop-color="#ececec"/></linearGradient><clipPath id="ad"><path d="M1 248h593v342H1z"/></clipPath><clipPath id="Z"><path d="M380.77 439.5l22.891-11.498V439.5l-22.891 11.496z"/></clipPath><clipPath id="aa"><path d="M1 248h593v342H1z"/></clipPath><clipPath id="ab"><path d="M886.89 620.17L489.47-68.19l-735.3 424.53 397.42 688.36z"/></clipPath><linearGradient id="ac" x1="-15.987" x2="15.987" gradientTransform="matrix(-.49039 -.84938 -.84938 .49039 392.21 439.5)" gradientUnits="userSpaceOnUse"><stop offset="0" stop-color="#fff"/><stop offset="1" stop-color="#eaeaea"/></linearGradient><clipPath id="Y"><path d="M1 248h593v342H1z"/></clipPath><clipPath id="U"><path d="M380.77 451l22.891-11.496L426.553 451l-22.892 11.498z"/></clipPath><clipPath id="V"><path d="M1 248h593v342H1z"/></clipPath><clipPath id="W"><path d="M-245.83 356.34l397.42 688.36 735.3-424.53L489.47-68.19z"/></clipPath><linearGradient id="X" x1="-21.821" x2="21.821" gradientTransform="matrix(.49039 .84938 .84938 -.49039 403.66 451)" gradientUnits="userSpaceOnUse"><stop offset="0" stop-color="#c1c1c1"/><stop offset="1" stop-color="#ececec"/></linearGradient><clipPath id="T"><path d="M1 248h593v342H1z"/></clipPath><clipPath id="P"><path d="M403.66 439.5v-11.498l22.892 11.498v11.496z"/></clipPath><clipPath id="Q"><path d="M1 248h593v342H1z"/></clipPath><clipPath id="R"><path d="M-17.348 752.08h675.76V224.42h-675.76z"/></clipPath><linearGradient id="S" x1="-11.67" x2="11.67" gradientTransform="matrix(.98078 0 0 -.98078 415.1 439.5)" gradientUnits="userSpaceOnUse"><stop offset="0" stop-color="#c1c1c1"/><stop offset="1" stop-color="#ececec"/></linearGradient><clipPath id="O"><path d="M1 248h593v342H1z"/></clipPath><clipPath id="K"><path d="M380.77 429.45l22.891-11.496v11.496l-22.891 11.499z"/></clipPath><clipPath id="L"><path d="M1 248h593v342H1z"/></clipPath><clipPath id="M"><path d="M886.89 620.17L489.47-68.19l-735.3 424.53 397.42 688.36z"/></clipPath><linearGradient id="N" x1="-15.987" x2="15.987" gradientTransform="matrix(-.49039 -.84938 -.84938 .49039 392.21 429.45)" gradientUnits="userSpaceOnUse"><stop offset="0" stop-color="#fff"/><stop offset="1" stop-color="#eaeaea"/></linearGradient><clipPath id="J"><path d="M1 248h593v342H1z"/></clipPath><clipPath id="F"><path d="M380.77 440.95l22.891-11.499 22.892 11.499-22.892 11.496z"/></clipPath><clipPath id="G"><path d="M1 248h593v342H1z"/></clipPath><clipPath id="H"><path d="M-245.83 356.34l397.42 688.36 735.3-424.53L489.47-68.19z"/></clipPath><linearGradient id="I" x1="-21.821" x2="21.821" gradientTransform="matrix(.49039 .84938 .84938 -.49039 403.66 440.95)" gradientUnits="userSpaceOnUse"><stop offset="0" stop-color="#c1c1c1"/><stop offset="1" stop-color="#ececec"/></linearGradient><clipPath id="E"><path d="M1 248h593v342H1z"/></clipPath><clipPath id="A"><path d="M403.66 429.45v-11.496l22.892 11.496v11.499z"/></clipPath><clipPath id="B"><path d="M1 248h593v342H1z"/></clipPath><clipPath id="C"><path d="M-17.348 752.08h675.76V224.42h-675.76z"/></clipPath><linearGradient id="D" x1="-11.67" x2="11.67" gradientTransform="matrix(.98078 0 0 -.98078 415.1 429.45)" gradientUnits="userSpaceOnUse"><stop offset="0" stop-color="#c1c1c1"/><stop offset="1" stop-color="#ececec"/></linearGradient><clipPath id="z"><path d="M1 248h593v342H1z"/></clipPath><clipPath id="v"><path d="M380.77 418.32l22.891-11.498v11.498l-22.891 11.497z"/></clipPath><clipPath id="w"><path d="M1 248h593v342H1z"/></clipPath><clipPath id="x"><path d="M886.89 620.17L489.47-68.19l-735.3 424.53 397.42 688.36z"/></clipPath><linearGradient id="y" x1="-15.987" x2="15.987" gradientTransform="matrix(-.49039 -.84938 -.84938 .49039 392.21 418.32)" gradientUnits="userSpaceOnUse"><stop offset="0" stop-color="#fff"/><stop offset="1" stop-color="#eaeaea"/></linearGradient><clipPath id="u"><path d="M1 248h593v342H1z"/></clipPath><clipPath id="q"><path d="M380.77 429.82l22.891-11.497 22.892 11.497-22.892 11.497z"/></clipPath><clipPath id="r"><path d="M1 248h593v342H1z"/></clipPath><clipPath id="s"><path d="M-245.83 356.34l397.42 688.36 735.3-424.53L489.47-68.19z"/></clipPath><linearGradient id="t" x1="-21.821" x2="21.821" gradientTransform="matrix(.49039 .84938 .84938 -.49039 403.66 429.82)" gradientUnits="userSpaceOnUse"><stop offset="0" stop-color="#c1c1c1"/><stop offset="1" stop-color="#ececec"/></linearGradient><clipPath id="p"><path d="M1 248h593v342H1z"/></clipPath><clipPath id="l"><path d="M403.66 418.32v-11.498l22.892 11.498v11.497z"/></clipPath><clipPath id="m"><path d="M1 248h593v342H1z"/></clipPath><clipPath id="n"><path d="M-17.348 752.08h675.76V224.42h-675.76z"/></clipPath><linearGradient id="o" x1="-11.67" x2="11.67" gradientTransform="matrix(.98078 0 0 -.98078 415.1 418.32)" gradientUnits="userSpaceOnUse"><stop offset="0" stop-color="#c1c1c1"/><stop offset="1" stop-color="#ececec"/></linearGradient><clipPath id="j"><path d="M-17.348 608.89h615.93V224.42h-615.93z"/></clipPath><clipPath id="k"><path d="M1 248h593v342H1z"/></clipPath><clipPath id="i"><path d="M1 248h593v342H1z"/></clipPath><clipPath id="g"><path d="M-17.348 608.89h615.93V224.42h-615.93z"/></clipPath><clipPath id="h"><path d="M1 248h593v342H1z"/></clipPath><clipPath id="f"><path d="M1 248h593v342H1z"/></clipPath><clipPath id="d"><path d="M-17.348 608.89h615.93V224.42h-615.93z"/></clipPath><clipPath id="e"><path d="M1 248h593v342H1z"/></clipPath><clipPath id="c"><path d="M1 248h593v342H1z"/></clipPath><clipPath id="a"><path d="M-17.348 608.89h615.93V224.42h-615.93z"/></clipPath><clipPath id="b"><path d="M1 248h593v342H1z"/></clipPath><clipPath id="ay"><path d="M1 248h593v342H1z"/></clipPath><clipPath id="az"><path d="M1 248h593v342H1z"/></clipPath></defs><g clip-path="url(#a)" transform="matrix(.35278 0 0 -.35278 -.35278 206.951)"><g clip-path="url(#b)"><path fill="#edeff6" d="M6.8118 527.07l434.85.0951c1.0829 0 1.9606-.8777 1.9615-1.9615 0-.5198-.2058-1.017-.5717-1.3847l-216.72-217.47c-.7652-.7679-2.0069-.7697-2.7739-.005l-218.13 217.38c-.76795.7652-.76991 2.0069-.00491 2.7748.3678.3687.86802.5766 1.3888.5766"/><path fill="none" stroke="#404040" stroke-linecap="round" stroke-linejoin="round" stroke-miterlimit="10" stroke-width=".98078" d="M6.5915 527.32l435.074008-.15790558c1.08278112 0 1.96057922-.8777981 1.96156-1.96156 0-.51883262-.2059638-1.01706886-.57179474-1.38486136l-216.7229566-217.4781572c-.7650084-.76696996-2.00667588-.7699123-2.77364584-.0049039L5.42339102 523.71269116c-.76696996.7650084-.76893152 2.00765666-.00392312 2.77462662.37073484.37367718.86995186.58160254 1.17105132.83464378z"/><path fill="#fff" d="M136.23 394.01l177.35.3-88.52-88.83z"/><path fill="none" stroke="#404040" stroke-linecap="round" stroke-linejoin="round" stroke-miterlimit="10" stroke-width=".98078" d="M136.23 394.01l177.3544474.30600336-88.5252028-88.82826382z"/><path fill="#fff" d="M178.25 356.13l92.983.161c1.0838.002 1.9625-.875 1.9655-1.9578.001-.5199-.2051-1.02-.5728-1.3887l-46.41-46.571c-.7652-.7679-2.0066-.7707-2.7736-.005l-46.572 46.41c-.7679.7652-.77 2.0069-.005 2.7739.3668.3686.8661.5765 1.3859.5775"/><path fill="none" stroke="#404040" stroke-linecap="round" stroke-linejoin="round" stroke-miterlimit="10" stroke-width=".98078" d="M178.14 356.58l93.09171448-.28834932c1.08278112.00196156 1.96254078-.87485576 1.96450234-1.95763688.00098078-.5198134-.20498302-1.0200112-.57277552-1.38878448l-46.40952882-46.57135752c-.76598918-.76795074-2.00765666-.77089308-2.77462662-.0049039l-46.5723383 46.4105096c-.76795074.7650084-.7699123 2.00667588-.0049039 2.77364584.3677925.36877328.86602874.57669864 1.27795634 1.02687666z"/></g></g><g clip-path="url(#c)" transform="matrix(.35278 0 0 -.35278 -2.28482 207.141)"><text font-family="Times" font-size="18" transform="matrix(.98078 0 0 -.98078 208.5452496 372.125468)"><tspan x="0 12.996 23.993999 36.990002" y="0">OLXP</tspan></text><text font-family="Times" font-size="18" transform="matrix(.98078 0 0 -.98078 139.233527 463.8185902)"><tspan x="0 9 18 22.5 33.498001 39.492001 47.484001 56.484001 63.486 71.477997 79.470001 84.473999 89.477997 98.477997 107.478 115.47 120.474 124.974 134.98199 142.974 151.974 159.966 173.97" y="0">on Transactional Schema</tspan></text><text font-family="Times" font-size="18" transform="matrix(.98078 0 0 -.98078 208.8394836 333.1492708)"><tspan x="0 12.996 23.993999 34.992001" y="0">OLTP</tspan></text></g><g clip-path="url(#d)" transform="matrix(.35278 0 0 -.35278 -.35278 206.951)"><g clip-path="url(#e)"><path fill="none" stroke="#404040" stroke-linecap="round" stroke-linejoin="round" stroke-miterlimit="10" stroke-width=".98078" d="M324.36 393.61h83.13777826"/></g></g><g clip-path="url(#f)" transform="matrix(.35278 0 0 -.35278 -.35278 206.951)"><text font-family="Times" font-size="18" transform="matrix(.98078 0 0 -.98078 420.1191112 359.3459046)"><tspan x="0 16.002001 23.993999 30.996 36 43.992001" y="0">Master</tspan></text><text font-family="Times" font-size="18" transform="matrix(.98078 0 0 -.98078 426.9845712 337.7687446)"><tspan x="0 12.996 21.996 30.996" y="0">Node</tspan></text><text font-family="Times" font-size="18" transform="matrix(.98078 0 0 -.98078 469.3738828 447.1257146)"><tspan x="0 12.006 19.997999 28.997999 34.001999 39.006001 46.998001 54.990002" y="0">Replicas</tspan></text><text font-family="Times" font-size="18" transform="matrix(.98078 0 0 -.98078 253.4845892 277.1124055)"><tspan x="0 12.996 20.988001 25.992001 33.984001 38.484001 49.481998 58.481998 63.486 69.480003" y="0">Data Entry</tspan></text></g><g clip-path="url(#g)" transform="matrix(.35278 0 0 -.35278 -.35278 206.951)"><g clip-path="url(#h)"><path fill="none" stroke="#404040" stroke-linecap="round" stroke-linejoin="round" stroke-miterlimit="10" stroke-width=".98078" d="M183.22 532.57v19.75094764"/><path fill="#404040" d="M182.53 560.16l-2.9422-7.8463h5.8845z"/><path fill="none" stroke="#404040" stroke-miterlimit="10" stroke-width=".98078" d="M182.53 560.16l-2.94234-7.84624h5.88468z"/><path fill="none" stroke="#404040" stroke-linecap="round" stroke-linejoin="round" stroke-miterlimit="10" stroke-width=".98078" d="M204.8 532.57v19.75094764"/><path fill="#404040" d="M204.62 560.16l-2.9423-7.8463h5.8848z"/><path fill="none" stroke="#404040" stroke-miterlimit="10" stroke-width=".98078" d="M204.62 560.16l-2.94234-7.84624h5.88468z"/><path fill="none" stroke="#404040" stroke-linecap="round" stroke-linejoin="round" stroke-miterlimit="10" stroke-width=".98078" d="M227.36 532.57v19.75094764"/><path fill="#404040" d="M226.72 560.16l-2.9426-7.8463h5.8848z"/><path fill="none" stroke="#404040" stroke-miterlimit="10" stroke-width=".98078" d="M226.72 560.16l-2.94234-7.84624h5.88468z"/><path fill="none" stroke="#404040" stroke-linecap="round" stroke-linejoin="round" stroke-miterlimit="10" stroke-width=".98078" d="M248.93 532.57v19.75094764"/><path fill="#404040" d="M248.81 560.16l-2.9423-7.8463h5.8845z"/><path fill="none" stroke="#404040" stroke-miterlimit="10" stroke-width=".98078" d="M248.81 560.16l-2.94234-7.84624h5.88468z"/><path fill="none" stroke="#404040" stroke-linecap="round" stroke-linejoin="round" stroke-miterlimit="10" stroke-width=".98078" d="M271.49 532.57v19.75094764"/><path fill="#404040" d="M270.9 560.16l-2.9426-7.8463h5.8848z"/><path fill="none" stroke="#404040" stroke-miterlimit="10" stroke-width=".98078" d="M270.9 560.16l-2.94234-7.84624h5.88468z"/><path fill="none" stroke="#404040" stroke-linecap="round" stroke-linejoin="round" stroke-miterlimit="10" stroke-width=".98078" d="M346.03 532.57v19.75094764"/><path fill="#404040" d="M345.36 560.16l-2.9422-7.8463h5.8848z"/><path fill="none" stroke="#404040" stroke-miterlimit="10" stroke-width=".98078" d="M345.36 560.16l-2.94234-7.84624h5.88468z"/><path fill="none" stroke="#404040" stroke-linecap="round" stroke-linejoin="round" stroke-miterlimit="10" stroke-width=".98078" d="M367.61 532.57v19.75094764"/><path fill="#404040" d="M367.46 560.16l-2.9426-7.8463h5.8848z"/><path fill="none" stroke="#404040" stroke-miterlimit="10" stroke-width=".98078" d="M367.46 560.16l-2.94234-7.84624h5.88468z"/><path fill="none" stroke="#404040" stroke-linecap="round" stroke-linejoin="round" stroke-miterlimit="10" stroke-width=".98078" d="M390.17 532.57v19.75094764"/><path fill="#404040" d="M389.55 560.16l-2.9423-7.8463h5.8845z"/><path fill="none" stroke="#404040" stroke-miterlimit="10" stroke-width=".98078" d="M389.55 560.16l-2.94234-7.84624h5.88468z"/><path fill="none" stroke="#404040" stroke-linecap="round" stroke-linejoin="round" stroke-miterlimit="10" stroke-width=".98078" d="M411.74 532.57v19.75094764"/><path fill="#404040" d="M411.64 560.16l-2.9423-7.8463h5.8848z"/><path fill="none" stroke="#404040" stroke-miterlimit="10" stroke-width=".98078" d="M411.64 560.16l-2.94234-7.84624h5.88468z"/><path fill="none" stroke="#404040" stroke-linecap="round" stroke-linejoin="round" stroke-miterlimit="10" stroke-width=".98078" d="M434.3 532.57v19.75094764"/><path fill="#404040" d="M433.73 560.16l-2.9425-7.8463h5.8848z"/><path fill="none" stroke="#404040" stroke-miterlimit="10" stroke-width=".98078" d="M433.73 560.16l-2.94234-7.84624h5.88468z"/><path fill="none" stroke="#404040" stroke-linecap="round" stroke-linejoin="round" stroke-miterlimit="10" stroke-width=".98078" d="M150.86 374.77v-59.88250368"/><path fill="#404040" d="M150.76 307.04l2.9425 7.8463h-5.8848z"/><path fill="none" stroke="#404040" stroke-miterlimit="10" stroke-width=".98078" d="M150.76 307.04l2.94234 7.84624h-5.88468z"/></g></g><g clip-path="url(#i)" transform="matrix(.35278 0 0 -.35278 -.35278 206.951)"><text font-family="Times" font-size="18" transform="matrix(.98078 0 0 -.98078 28.23473128 277.1124055)"><tspan x="0 12.996 21.996 29.988001 35.981998 43.973999 48.978001 53.981998 62.981998 71.982002 79.973999 84.977997 89.477997 101.484 109.476 118.476 127.476 133.47 138.474 143.478 152.478" y="0">Operational Reporting</tspan></text><g><text x="47.522369" y="-32.979084" font-family="Times" style="font-variant-numeric:normal;font-variant-ligatures:normal;font-variant-caps:normal;font-feature-settings:normal" font-size="18" transform="matrix(.98078 0 0 -.98078 -17.348 224.42)"><tspan x="47.522369" y="-32.979084">and New Applications</tspan></text></g></g><g clip-path="url(#j)" transform="matrix(.35278 0 0 -.35278 -.35278 206.951)"><g clip-path="url(#k)"><path fill="none" stroke="#404040" stroke-linecap="round" stroke-linejoin="round" stroke-miterlimit="10" stroke-width=".98078" d="M161.64 363.27v-48.38089662"/><path fill="#404040" d="M161.85 307.04l2.9422 7.8463h-5.8845z"/><path fill="none" stroke="#404040" stroke-miterlimit="10" stroke-width=".98078" d="M161.85 307.04l2.94234 7.84624h-5.88468z"/><path fill="none" stroke="#404040" stroke-linecap="round" stroke-linejoin="round" stroke-miterlimit="10" stroke-width=".98078" d="M255.8 307.98v15.34332232"/><path fill="#404040" d="M255.11 331.17l-2.9422-7.8463h5.8848z"/><path fill="none" stroke="#404040" stroke-miterlimit="10" stroke-width=".98078" d="M255.11 331.17l-2.94234-7.84624h5.88468z"/></g></g><g clip-path="url(#l)" transform="matrix(.35278 0 0 -.35278 -.35278 206.951)"><g clip-path="url(#m)"><g clip-path="url(#n)"><path fill="url(#o)" d="M1 248h593v342H1z"/></g></g></g><g clip-path="url(#p)" transform="matrix(.35278 0 0 -.35278 -.35278 206.951)"><path fill="none" stroke="#3d3d3d" stroke-linecap="round" stroke-linejoin="round" stroke-miterlimit="10" stroke-width=".98078" d="M426.46 418.32v11.49768394L403.6617689 418.32v-11.49670316z"/></g><g clip-path="url(#q)" transform="matrix(.35278 0 0 -.35278 -.35278 206.951)"><g clip-path="url(#r)"><g clip-path="url(#s)"><path fill="url(#t)" d="M1 248h593v342H1z"/></g></g></g><g clip-path="url(#u)" transform="matrix(.35278 0 0 -.35278 -.35278 206.951)"><path fill="none" stroke="#3d3d3d" stroke-linecap="round" stroke-linejoin="round" stroke-miterlimit="10" stroke-width=".98078" d="M426.55 429.82l-22.8914052 11.49670316L380.76817038 429.82l22.89042442-11.49768394z"/></g><g clip-path="url(#v)" transform="matrix(.35278 0 0 -.35278 -.35278 206.951)"><g clip-path="url(#w)"><g clip-path="url(#x)"><path fill="url(#y)" d="M1 248h593v342H1z"/></g></g></g><g clip-path="url(#z)" transform="matrix(.35278 0 0 -.35278 -.35278 206.951)"><path fill="none" stroke="#3d3d3d" stroke-linecap="round" stroke-linejoin="round" stroke-miterlimit="10" stroke-width=".98078" d="M381.34 418.32v11.49768394L403.6576489 418.32v-11.49670316z"/></g><g clip-path="url(#A)" transform="matrix(.35278 0 0 -.35278 -.35278 206.951)"><g clip-path="url(#B)"><g clip-path="url(#C)"><path fill="url(#D)" d="M1 248h593v342H1z"/></g></g></g><g clip-path="url(#E)" transform="matrix(.35278 0 0 -.35278 -.35278 206.951)"><path fill="none" stroke="#3d3d3d" stroke-linecap="round" stroke-linejoin="round" stroke-miterlimit="10" stroke-width=".98078" d="M426.46 429.45v11.49768394L403.6617689 429.45v-11.49670316z"/></g><g clip-path="url(#F)" transform="matrix(.35278 0 0 -.35278 -.35278 206.951)"><g clip-path="url(#G)"><g clip-path="url(#H)"><path fill="url(#I)" d="M1 248h593v342H1z"/></g></g></g><g clip-path="url(#J)" transform="matrix(.35278 0 0 -.35278 -.35278 206.951)"><path fill="none" stroke="#3d3d3d" stroke-linecap="round" stroke-linejoin="round" stroke-miterlimit="10" stroke-width=".98078" d="M426.55 440.95l-22.8914052 11.49670316L380.76817038 440.95l22.89042442-11.49768394z"/></g><g clip-path="url(#K)" transform="matrix(.35278 0 0 -.35278 -.35278 206.951)"><g clip-path="url(#L)"><g clip-path="url(#M)"><path fill="url(#N)" d="M1 248h593v342H1z"/></g></g></g><g clip-path="url(#O)" transform="matrix(.35278 0 0 -.35278 -.35278 206.951)"><path fill="none" stroke="#3d3d3d" stroke-linecap="round" stroke-linejoin="round" stroke-miterlimit="10" stroke-width=".98078" d="M381.34 429.45v11.49768394L403.6576489 429.45v-11.49670316z"/></g><g clip-path="url(#P)" transform="matrix(.35278 0 0 -.35278 -.35278 206.951)"><g clip-path="url(#Q)"><g clip-path="url(#R)"><path fill="url(#S)" d="M1 248h593v342H1z"/></g></g></g><g clip-path="url(#T)" transform="matrix(.35278 0 0 -.35278 -.35278 206.951)"><path fill="none" stroke="#3d3d3d" stroke-linecap="round" stroke-linejoin="round" stroke-miterlimit="10" stroke-width=".98078" d="M426.46 439.5v11.49670316L403.6617689 439.5v-11.49768394z"/></g><g clip-path="url(#U)" transform="matrix(.35278 0 0 -.35278 -.35278 206.951)"><g clip-path="url(#V)"><g clip-path="url(#W)"><path fill="url(#X)" d="M1 248h593v342H1z"/></g></g></g><g clip-path="url(#Y)" transform="matrix(.35278 0 0 -.35278 -.35278 206.951)"><path fill="none" stroke="#3d3d3d" stroke-linecap="round" stroke-linejoin="round" stroke-miterlimit="10" stroke-width=".98078" d="M426.55 451l-22.8914052 11.49670316L380.76817038 451l22.89042442-11.49670316z"/></g><g clip-path="url(#Z)" transform="matrix(.35278 0 0 -.35278 -.35278 206.951)"><g clip-path="url(#aa)"><g clip-path="url(#ab)"><path fill="url(#ac)" d="M1 248h593v342H1z"/></g></g></g><g clip-path="url(#ad)" transform="matrix(.35278 0 0 -.35278 -.35278 206.951)"><path fill="none" stroke="#3d3d3d" stroke-linecap="round" stroke-linejoin="round" stroke-miterlimit="10" stroke-width=".98078" d="M381.34 439.5v11.49670316L403.6576489 439.5v-11.49768394z"/></g><g clip-path="url(#ae)" transform="matrix(.35278 0 0 -.35278 -.35278 206.951)"><g clip-path="url(#af)"><g clip-path="url(#ag)"><path fill="url(#ah)" d="M1 248h593v342H1z"/></g></g></g><g clip-path="url(#ai)" transform="matrix(.35278 0 0 -.35278 -.35278 206.951)"><path fill="none" stroke="#3d3d3d" stroke-linecap="round" stroke-linejoin="round" stroke-miterlimit="10" stroke-width=".98078" d="M375.45 348.62v11.49670316L352.80084746 348.62v-11.49768394z"/></g><g clip-path="url(#aj)" transform="matrix(.35278 0 0 -.35278 -.35278 206.951)"><g clip-path="url(#ak)"><g clip-path="url(#al)"><path fill="url(#am)" d="M1 248h593v342H1z"/></g></g></g><g clip-path="url(#an)" transform="matrix(.35278 0 0 -.35278 -.35278 206.951)"><path fill="none" stroke="#3d3d3d" stroke-linecap="round" stroke-linejoin="round" stroke-miterlimit="10" stroke-width=".98078" d="M375.7 360.12l-22.89042442 11.49768394L329.91817038 360.12l22.8914052-11.49670316z"/></g><g clip-path="url(#ao)" transform="matrix(.35278 0 0 -.35278 -.35278 206.951)"><g clip-path="url(#ap)"><g clip-path="url(#aq)"><path fill="url(#ar)" d="M1 248h593v342H1z"/></g></g></g><g clip-path="url(#as)" transform="matrix(.35278 0 0 -.35278 -.35278 206.951)"><g clip-path="url(#at)"><path fill="none" stroke="#3d3d3d" stroke-linecap="round" stroke-linejoin="round" stroke-miterlimit="10" stroke-width=".98078" d="M330.34 348.62v11.49670316L352.80672746 348.62v-11.49768394z"/><path fill="none" stroke="#404040" stroke-linecap="round" stroke-linejoin="round" stroke-miterlimit="10" stroke-width=".98078" d="M263.65 335.8v-20.9102296"/><path fill="#404040" d="M263.42 307.04l2.9425 7.8463h-5.8848z"/><path fill="none" stroke="#404040" stroke-miterlimit="10" stroke-width=".98078" d="M263.42 307.04l2.94234 7.84624h-5.88468z"/></g></g><g clip-path="url(#au)" transform="matrix(.35278 0 0 -.35278 -3.41120621 207.25684262)"><text font-family="Times" font-size="18" transform="matrix(.98078 0 0 -.98078 25.7719927 574.55846)"><tspan x="0 12.006 21.006001 28.007999 33.012001 42.012001 56.015999 64.008003 70.001999 77.003998" y="0">Customers</tspan></text><text font-family="Times" font-size="18" transform="matrix(.98078 0 0 -.98078 173.7275596 574.55846)"><tspan x="0 10.008 18 23.004 30.996 37.998001 42.498001 58.5 66.491997 75.491997 83.484001 92.484001 100.476 106.47" y="0">Sales Managers</tspan></text><text font-family="Times" font-size="18" transform="matrix(.98078 0 0 -.98078 332.8689224 574.55846)"><tspan x="0 12.996 20.988001 28.98 33.984001 40.986 45.990002 54.990002 63.990002 68.489998 78.498001 87.498001 96.498001 105.498 114.498 120.492" y="0">Decision Support</tspan></text></g><g clip-path="url(#av)" transform="matrix(.35278 0 0 -.35278 -.35278 206.951)"><g clip-path="url(#aw)"><path fill="none" stroke="#404040" stroke-linecap="round" stroke-linejoin="round" stroke-miterlimit="10" stroke-width=".98078" d="M192.05 307.98v15.34332232"/><path fill="#404040" d="M192.06 331.17l-2.9426-7.8463h5.8848z"/><path fill="none" stroke="#404040" stroke-miterlimit="10" stroke-width=".98078" d="M192.06 331.17l-2.94234-7.84624h5.88468z"/><path fill="none" stroke="#404040" stroke-linecap="round" stroke-linejoin="round" stroke-miterlimit="10" stroke-width=".98078" d="M18.451 532.57v19.75094764"/><path fill="#404040" d="M18.504 560.16l-2.9423-7.8463h5.8847z"/><path fill="none" stroke="#404040" stroke-miterlimit="10" stroke-width=".98078" d="M18.504 560.16l-2.94234-7.84624h5.88468z"/><path fill="none" stroke="#404040" stroke-linecap="round" stroke-linejoin="round" stroke-miterlimit="10" stroke-width=".98078" d="M41.009 532.57v19.75094764"/><path fill="#404040" d="M40.596 560.16l-2.9423-7.8463h5.8847z"/><path fill="none" stroke="#404040" stroke-miterlimit="10" stroke-width=".98078" d="M40.596 560.16l-2.94234-7.84624h5.88468z"/><path fill="none" stroke="#404040" stroke-linecap="round" stroke-linejoin="round" stroke-miterlimit="10" stroke-width=".98078" d="M62.586 532.57v19.75094764"/><path fill="#404040" d="M62.687 560.16l-2.9423-7.8463h5.8847z"/><path fill="none" stroke="#404040" stroke-miterlimit="10" stroke-width=".98078" d="M62.687 560.16l-2.94234-7.84624h5.88468z"/><path fill="none" stroke="#404040" stroke-linecap="round" stroke-linejoin="round" stroke-miterlimit="10" stroke-width=".98078" d="M85.144 532.57v19.75094764"/><path fill="#404040" d="M84.778 560.16l-2.9422-7.8463h5.8845z"/><path fill="none" stroke="#404040" stroke-miterlimit="10" stroke-width=".98078" d="M84.778 560.16l-2.94234-7.84624h5.88468z"/><path fill="none" stroke="#404040" stroke-linecap="round" stroke-linejoin="round" stroke-miterlimit="10" stroke-width=".98078" d="M106.72 532.57v19.75094764"/><path fill="#404040" d="M106.87 560.16l-2.9423-7.8463h5.8848z"/><path fill="none" stroke="#404040" stroke-miterlimit="10" stroke-width=".98078" d="M106.87 560.16l-2.94234-7.84624h5.88468z"/><path fill="none" stroke="#404040" stroke-linecap="round" stroke-linejoin="round" stroke-miterlimit="10" stroke-width=".98078" d="M489.14 346.93c18.66522418 13.89961416 50.54743964 28.93889468 56.002538 41.70374638 4.29189328 10.04024486-7.77071994 18.67797432-16.88707004 27.56776424"/><path fill="#404040" d="M523.1 422.12l2.9383-7.8472 4.4351 3.8663z"/><path fill="none" stroke="#404040" stroke-miterlimit="10" stroke-width=".98078" d="M523.1 422.12l2.93841688-7.84722078 4.43508716 3.86623476z"/></g></g><g clip-path="url(#ax)" transform="matrix(.35278 0 0 -.35278 -.35278 206.951)"><text font-family="Times" font-size="18" transform="matrix(.98078 0 0 -.98078 510.0272138 337.1214298)"><tspan x="0 10.152 14.652 23.652 32.652 42.66 50.652 58.644001 67.643997 76.643997" y="0">&lt; 1 Second</tspan></text></g><g clip-path="url(#ay)" transform="matrix(.35278 0 0 -.35278 -43.42992 192.111)"><text font-family="Times" font-size="18" transform="matrix(.98078 0 0 -.98078 208.5452496 372.125468)"></text><text font-family="Times" font-size="18" transform="matrix(.98078 0 0 -.98078 139.233527 463.8185902)"></text><text x="215.17517" y="-223.63498" font-family="Times" font-size="18" transform="matrix(.98078 0 0 -.98078 -17.348 224.42)"><tspan x="215.17517" y="-223.63498">OLAP, Search and Read-only Applications</tspan></text></g><g clip-path="url(#az)" transform="matrix(.35278 0 0 -.35278 137.23708 155.391)"><text font-family="Times" font-size="18" transform="matrix(.98078 0 0 -.98078 73.9325712 321.0987446)"><tspan x="0" y="0">Read-only</tspan></text></g></svg>