<svg xmlns="http://www.w3.org/2000/svg" width="540.56" height="344.81">
  <defs>
    <clipPath id="a">
      <path d="M0 0h602v385H0z" clip-rule="evenodd"/>
    </clipPath>
    <clipPath id="b">
      <path d="M0 0h602v384H0z" clip-rule="evenodd"/>
    </clipPath>
    <clipPath id="c">
      <path d="M0 0h602v385H0z" clip-rule="evenodd"/>
    </clipPath>
    <clipPath id="d">
      <path d="M0 0h602v384H0z" clip-rule="evenodd"/>
    </clipPath>
    <clipPath id="e">
      <path d="M0 0h602v385H0z" clip-rule="evenodd"/>
    </clipPath>
    <clipPath id="f">
      <path d="M0 0h602v384H0z" clip-rule="evenodd"/>
    </clipPath>
    <clipPath id="g">
      <path d="M0 612h792V0H0z"/>
    </clipPath>
    <clipPath id="h">
      <path d="M331.02 424.87h116.24V311.11H331.02z"/>
    </clipPath>
  </defs>
  <g clip-path="url(#a)" transform="scale(.89794)">
    <g clip-path="url(#b)">
      <path fill="#fff" d="M14 189h574a13 13 0 0 1 13 13v104a13 13 0 0 1-13 13H14a13 13 0 0 1-13-13V202a13 13 0 0 1 13-13z"/>
      <path fill="none" stroke="#429bf9" stroke-dasharray="6 6" stroke-miterlimit="10" stroke-width="2" d="M14 189h574a13 13 0 0 1 13 13v104a13 13 0 0 1-13 13H14a13 13 0 0 1-13-13V202a13 13 0 0 1 13-13z"/>
      <path fill="#fff" d="M14 38h574a13 13 0 0 1 13 13v104a13 13 0 0 1-13 13H14a13 13 0 0 1-13-13V51a13 13 0 0 1 13-13z"/>
      <path fill="none" stroke="#429bf9" stroke-dasharray="6 6" stroke-miterlimit="10" stroke-width="2" d="M14 38h574a13 13 0 0 1 13 13v104a13 13 0 0 1-13 13H14a13 13 0 0 1-13-13V51a13 13 0 0 1 13-13z"/>
      <path fill="#fff2cc" d="M461.5 260.5h90v40h-90z"/>
      <path fill="none" stroke="#d6b656" stroke-miterlimit="10" d="M461.5 260.5h90v40h-90z"/>
      <path fill="#d5e8d4" d="M152.5 68.5h99c5.8 0 10.5 4.7 10.5 10.5v49c0 5.8-4.7 10.5-10.5 10.5h-99c-5.8 0-10.5-4.7-10.5-10.5V79c0-5.8 4.7-10.5 10.5-10.5z"/>
      <path fill="none" stroke="#82b366" stroke-miterlimit="10" d="M152.5 68.5h99c5.8 0 10.5 4.7 10.5 10.5v49c0 5.8-4.7 10.5-10.5 10.5h-99c-5.8 0-10.5-4.7-10.5-10.5V79c0-5.8 4.7-10.5 10.5-10.5z"/>
      <path fill="#f8cecc" d="M461.5 110.5h90v40h-90z"/>
      <path fill="none" stroke="#b85450" stroke-miterlimit="10" d="M461.5 110.5h90v40h-90z"/>
      <path fill="none" stroke="#429bf9" stroke-dasharray="3 3" stroke-miterlimit="10" d="M307.75.5h94.5a20.25 20.25 0 0 1 20.25 20.25v342.5a20.25 20.25 0 0 1-20.25 20.25h-94.5a20.25 20.25 0 0 1-20.25-20.25V20.75A20.25 20.25 0 0 1 307.75.5z"/>
      <path fill="#ffe6cc" d="M309.5 60.5h90v40h-90z"/>
      <path fill="none" stroke="#d79b00" stroke-miterlimit="10" d="M309.5 60.5h90v40h-90z"/>
      <path fill="#f8cecc" d="M309.5 109.5h90v40h-90z"/>
      <path fill="none" stroke="#b85450" stroke-miterlimit="10" d="M309.5 109.5h90v40h-90z"/>
    </g>
  </g>
  <g clip-path="url(#c)" transform="scale(.89794)">
    <g clip-path="url(#d)">
      <path fill="#ffe6cc" d="M461.5 205.5h90v40h-90z"/>
      <path fill="none" stroke="#d79b00" stroke-miterlimit="10" d="M461.5 205.5h90v40h-90z"/>
    </g>
  </g>
  <g clip-path="url(#e)" transform="scale(.89794)">
    <g clip-path="url(#f)">
      <path fill="none" stroke="#429bf9" stroke-dasharray="3 3" stroke-miterlimit="10" d="M459.75.5h94.5a20.25 20.25 0 0 1 20.25 20.25v340.5a20.25 20.25 0 0 1-20.25 20.25h-94.5a20.25 20.25 0 0 1-20.25-20.25V20.75A20.25 20.25 0 0 1 459.75.5z"/>
    </g>
  </g>
  <path fill="#252f3e" d="M40.88 228.83a3.8 3.8 0 0 0 .54 2.04c.07.1.09.2.09.3 0 .12-.08.25-.24.37l-.8.54a.6.6 0 0 1-.33.11c-.13 0-.25-.06-.38-.18a3.68 3.68 0 0 1-.46-.6 9.82 9.82 0 0 1-.4-.74 4.69 4.69 0 0 1-3.72 1.75c-1.07 0-1.92-.3-2.54-.91a3.26 3.26 0 0 1-.94-2.44c0-1.08.38-1.95 1.15-2.61.78-.66 1.8-1 3.11-1a10.6 10.6 0 0 1 2.81.39v-.93c0-.96-.2-1.64-.6-2.03-.4-.4-1.09-.58-2.07-.58-.44 0-.9.05-1.37.16a10.11 10.11 0 0 0-1.81.6.78.78 0 0 1-.2.03c-.18 0-.27-.12-.27-.39v-.62c0-.2.02-.36.09-.44a.95.95 0 0 1 .35-.27 7.3 7.3 0 0 1 1.6-.57 7.7 7.7 0 0 1 1.98-.24c1.51 0 2.62.34 3.33 1.02.7.69 1.05 1.73 1.05 3.13v4.1zm-5.16 1.93c.42 0 .85-.08 1.31-.23.46-.15.86-.43 1.2-.81.2-.24.36-.51.44-.82.07-.3.12-.67.12-1.1v-.53a10.6 10.6 0 0 0-2.36-.3c-.85 0-1.47.17-1.89.51-.42.35-.62.83-.62 1.46 0 .6.15 1.04.47 1.35.3.32.75.47 1.33.47zm10.2 1.37c-.23 0-.39-.04-.49-.13-.1-.07-.19-.25-.26-.5l-2.99-9.8a2.22 2.22 0 0 1-.11-.51c0-.2.1-.32.3-.32h1.25c.24 0 .4.04.5.13.1.07.17.25.25.5l2.13 8.4 1.98-8.4c.06-.26.14-.43.24-.5.1-.08.28-.13.5-.13h1.02c.24 0 .4.04.51.13.1.07.19.25.24.5l2 8.5 2.2-8.5c.08-.26.17-.43.26-.5.1-.08.26-.13.5-.13h1.17c.2 0 .32.1.32.32l-.03.2a1.8 1.8 0 0 1-.09.32l-3.05 9.8c-.08.26-.17.43-.27.5a.81.81 0 0 1-.48.13h-1.1c-.24 0-.4-.04-.5-.13-.1-.08-.2-.25-.24-.5l-1.97-8.19-1.96 8.17c-.06.26-.13.42-.24.51-.1.09-.28.13-.5.13zm16.3.34a8.4 8.4 0 0 1-3.41-.74.95.95 0 0 1-.4-.35.9.9 0 0 1-.07-.36v-.64c0-.27.1-.4.3-.4.07 0 .14.02.22.04l.32.13a6.9 6.9 0 0 0 2.9.6c.8 0 1.42-.14 1.86-.42.43-.28.66-.69.66-1.2 0-.36-.12-.66-.35-.9a3.18 3.18 0 0 0-1.28-.66l-1.84-.57a3.87 3.87 0 0 1-2.03-1.3 3.02 3.02 0 0 1 .62-4.28c.38-.3.81-.51 1.32-.66a6.37 6.37 0 0 1 3.27-.03c.26.06.5.13.73.2.23.08.4.16.53.23.18.1.3.2.38.32.08.1.12.24.12.42v.6c0 .26-.1.4-.3.4-.1 0-.26-.05-.48-.15a5.8 5.8 0 0 0-2.43-.5c-.73 0-1.3.12-1.69.36-.4.24-.6.6-.6 1.13 0 .35.13.66.38.9.26.24.73.48 1.4.7l1.8.57c.92.3 1.58.7 1.97 1.22.4.52.58 1.11.58 1.77 0 .55-.11 1.05-.33 1.48a3.41 3.41 0 0 1-.92 1.11c-.4.32-.87.55-1.41.71-.57.18-1.17.27-1.82.27z"/>
  <g fill="#f90" fill-rule="evenodd" clip-rule="evenodd">
    <path d="M64.62 238.64c-4.17 3.08-10.24 4.72-15.46 4.72-7.3 0-13.9-2.7-18.87-7.2-.4-.35-.04-.83.43-.55a38.06 38.06 0 0 0 18.89 5c4.63 0 9.72-.96 14.4-2.94.7-.31 1.3.46.61.97z" class="st1"/>
    <path d="M66.36 236.66c-.53-.69-3.53-.33-4.89-.17-.4.06-.47-.3-.1-.57 2.39-1.67 6.31-1.19 6.77-.63.45.57-.13 4.5-2.36 6.37-.35.3-.68.14-.52-.24.5-1.26 1.63-4.09 1.1-4.76z" class="st1"/>
  </g>
  <g font-family="sans-serif" font-size="16" letter-spacing="0" text-anchor="middle" word-spacing="0">
    <path d="M172.74 70.36v1.11q-.54-.5-1.14-.74-.61-.25-1.3-.25-1.34 0-2.06.82t-.71 2.39q0 1.55.71 2.38.72.82 2.06.82.69 0 1.3-.25.6-.25 1.14-.75V77q-.56.38-1.18.57-.62.19-1.32.19-1.78 0-2.8-1.09-1.04-1.1-1.04-2.98 0-1.9 1.03-2.98 1.03-1.1 2.81-1.1.71 0 1.33.19.63.18 1.17.56zm1.61-.94h.97v8.19h-.97zm5.27 2.97q-.78 0-1.23.61-.45.6-.45 1.67 0 1.05.45 1.67.45.6 1.23.6t1.23-.61q.45-.6.45-1.66t-.45-1.66q-.45-.62-1.23-.62zm0-.82q1.26 0 1.98.82t.72 2.28q0 1.44-.72 2.27-.72.82-1.98.82t-1.98-.82q-.72-.83-.72-2.27 0-1.46.72-2.28.72-.82 1.98-.82zm4.21 3.71V71.7h.97v3.53q0 .84.32 1.26.33.41.98.41.78 0 1.24-.5.45-.5.45-1.35v-3.34h.97v5.89h-.97v-.91q-.35.54-.82.8-.46.26-1.08.26-1 0-1.54-.63-.52-.63-.52-1.85zm2.43-3.7zm8.38 1.02v-3.18h.97v8.19h-.97v-.89q-.3.52-.77.79-.47.25-1.11.25-1.07 0-1.75-.85-.66-.86-.66-2.24t.67-2.25q.67-.85 1.74-.85.65 0 1.11.26.48.25.77.77zm-3.3 2.07q0 1.06.44 1.68.44.6 1.21.6t1.21-.6q.44-.61.44-1.7 0-1.06-.44-1.66-.44-.6-1.2-.6-.78 0-1.22.6-.43.6-.43 1.68zm-44.6 8.55h1.58l2 5.35 2.03-5.35h1.57v7.86h-1.03v-6.9l-2.02 5.38h-1.07l-2.02-5.38v6.9h-1.04zm11.94 4.89q-1.17 0-1.63.27-.45.27-.45.92 0 .51.33.82.34.3.93.3.81 0 1.3-.57.48-.58.48-1.52v-.22zm1.93-.4v3.37h-.97v-.9q-.33.54-.83.8-.49.25-1.2.25-.91 0-1.45-.5-.53-.52-.53-1.37 0-1 .67-1.5t1.98-.5h1.36v-.1q0-.67-.44-1.03-.44-.37-1.23-.37-.51 0-.99.12-.47.12-.92.36v-.9q.54-.2 1.04-.3.5-.1.97-.1 1.28 0 1.9.66.64.66.64 2.01zm6.89-.19v3.56h-.96v-3.53q0-.84-.33-1.25-.32-.41-.98-.41-.78 0-1.23.5-.46.5-.46 1.35v3.34h-.97v-5.9h.97v.92q.35-.54.82-.8t1.09-.26q1.01 0 1.53.63.53.63.53 1.85zm4.62.59q-1.17 0-1.61.27-.46.27-.46.92 0 .51.33.82.34.3.93.3.81 0 1.28-.57.5-.58.5-1.52v-.22zm1.93-.4v3.37h-.96v-.9q-.34.54-.83.8-.5.25-1.2.25-.91 0-1.45-.5-.53-.52-.53-1.37 0-1 .66-1.5t2-.5h1.35v-.1q0-.67-.44-1.03-.44-.37-1.24-.37-.5 0-.98.12t-.92.36v-.9q.54-.2 1.03-.3.5-.1.98-.1 1.28 0 1.9.66.63.66.63 2.01zm5.88.35q0-1.05-.43-1.63-.43-.58-1.22-.58-.78 0-1.2.58-.45.58-.45 1.63 0 1.04.44 1.62.43.58 1.2.58.8 0 1.23-.58.43-.58.43-1.62zm.97 2.28q0 1.5-.67 2.24-.67.74-2.04.74-.51 0-.96-.08-.46-.07-.88-.24v-.94q.42.24.84.34.41.12.84.12.95 0 1.43-.5.47-.5.47-1.5v-.48q-.3.52-.76.78-.48.26-1.12.26-1.09 0-1.75-.83-.66-.83-.66-2.19 0-1.37.66-2.2.66-.82 1.75-.82.64 0 1.12.26t.76.77v-.88h.97zm7.03-2.45v.47h-4.44q.06 1 .6 1.53.53.51 1.5.51.56 0 1.08-.13t1.04-.4v.9q-.52.23-1.07.34-.54.12-1.1.12-1.42 0-2.25-.83-.82-.81-.82-2.22 0-1.44.78-2.29.79-.85 2.11-.85 1.2 0 1.89.77.68.76.68 2.08zm-.96-.29q-.01-.8-.45-1.26-.43-.47-1.14-.47-.81 0-1.3.45t-.56 1.29zm7.14-1.29q.36-.65.88-.96.5-.3 1.18-.3.92 0 1.42.64.5.64.5 1.83v3.56h-.97v-3.53q0-.85-.3-1.26-.3-.4-.92-.4-.75 0-1.18.5-.44.5-.44 1.35v3.34h-.98v-3.53q0-.85-.3-1.26-.3-.4-.92-.4-.74 0-1.18.5-.44.5-.44 1.35v3.34h-.97v-5.9h.97v.92q.34-.54.8-.8t1.1-.26 1.08.33q.46.32.68.94zm10.96 1.58v.47h-4.45q.06 1 .6 1.53.53.51 1.5.51.56 0 1.08-.13.53-.13 1.04-.4v.9q-.52.23-1.07.34-.54.12-1.1.12-1.42 0-2.24-.83-.82-.81-.82-2.22 0-1.44.78-2.29.78-.85 2.1-.85 1.2 0 1.88.77.7.76.7 2.08zm-.97-.29q0-.8-.45-1.26-.43-.47-1.14-.47-.8 0-1.3.45-.49.45-.56 1.29zm7.45-.08v3.56h-.96v-3.53q0-.84-.33-1.25-.32-.41-.98-.41-.78 0-1.24.5-.45.5-.45 1.35v3.34h-.97v-5.9h.97v.92q.35-.54.82-.8t1.09-.26q1.01 0 1.54.63.51.63.51 1.85zm2.91-4.02v1.69h1.99v.74h-2v3.2q0 .72.2.93.2.2.81.2h.99v.81h-1q-1.11 0-1.55-.4-.42-.43-.42-1.54v-3.2h-.7v-.74h.7V83.5zm-53.87 14.06v2.96h1.34q.74 0 1.14-.39.4-.38.4-1.1 0-.7-.4-1.08-.4-.39-1.14-.39zm-1.06-.87h2.4q1.32 0 1.99.6.67.6.67 1.75 0 1.16-.67 1.75-.67.6-2 .6h-1.33v3.16h-1.06zm6.46-.33h.97v8.19h-.97zm5.66 5.22q-1.17 0-1.62.27-.45.27-.45.92 0 .51.33.81.34.3.93.3.8 0 1.29-.56.48-.58.48-1.52v-.22zm1.93-.4v3.37h-.97v-.9q-.33.54-.82.8-.5.25-1.21.25-.9 0-1.44-.5-.53-.52-.53-1.37 0-1 .66-1.5.67-.5 1.99-.5h1.35v-.1q0-.67-.43-1.03-.44-.37-1.24-.37-.5 0-.98.12t-.92.36v-.9q.53-.2 1.03-.3.5-.1.97-.1 1.28 0 1.91.66.63.66.63 2.01zm2.96-4.2v1.67h2v.75h-2v3.2q0 .72.2.93.2.2.8.2h1v.81h-1q-1.12 0-1.55-.41-.42-.42-.42-1.53v-3.2h-.71v-.75h.71v-1.67zm6.26-.62v.8h-.93q-.52 0-.72.2-.2.22-.2.77v.52h1.59v.75h-1.6v5.15h-.97V99.4h-.92v-.75h.92v-.4q0-.99.46-1.44.45-.45 1.45-.45zm3.09 2.97q-.78 0-1.23.61-.46.6-.46 1.66t.45 1.67q.45.61 1.24.61.77 0 1.22-.61.45-.6.45-1.67 0-1.05-.45-1.65-.45-.62-1.22-.62zm0-.82q1.26 0 1.98.82t.72 2.27q0 1.45-.72 2.27-.72.83-1.98.83-1.28 0-2-.83-.71-.82-.71-2.27 0-1.45.71-2.27.72-.82 2-.82zm7.71 1.05q-.16-.1-.35-.14-.2-.04-.43-.04-.82 0-1.26.53-.43.53-.43 1.53v3.1h-.98v-5.89h.98v.92q.3-.54.8-.8.48-.26 1.18-.26l.22.02q.12 0 .27.03zm5.43.22q.36-.65.87-.96.5-.3 1.19-.3.91 0 1.41.64.5.64.5 1.82v3.57h-.97v-3.53q0-.85-.3-1.26-.3-.4-.91-.4-.76 0-1.2.5-.43.5-.43 1.35v3.34h-.97v-3.53q0-.85-.3-1.26-.3-.4-.93-.4-.74 0-1.18.5-.43.5-.43 1.35v3.34h-.98v-5.9h.98v.92q.33-.54.8-.8.46-.26 1.09-.26.65 0 1.09.33.45.32.67.94z" aria-label="Cloud Management Platform" style="line-height:1.25;text-align:center"/>
    <path d="M290.36 113.22v6.1h1.28q1.63 0 2.38-.73.76-.74.76-2.33 0-1.57-.76-2.3-.75-.75-2.38-.75zm-1.07-.88h2.19q2.29 0 3.35.96 1.07.94 1.07 2.96 0 2.04-1.08 2.99-1.07.95-3.34.95h-2.19zm8.25 1.97h.97v5.9h-.97zm0-2.3h.97v1.23h-.97zm6.76 2.47v.91q-.42-.2-.86-.31-.45-.1-.92-.1-.72 0-1.08.22-.36.21-.36.66 0 .34.26.53t1.03.36l.34.07q1.03.23 1.46.63.43.4.43 1.12 0 .82-.65 1.3t-1.78.48q-.47 0-.99-.1-.51-.08-1.08-.26v-1q.54.27 1.06.42.52.13 1.03.13.68 0 1.05-.23t.37-.66q0-.4-.27-.6-.27-.22-1.16-.41l-.34-.08q-.9-.2-1.3-.58-.4-.4-.4-1.08 0-.83.59-1.28.6-.46 1.68-.46.53 0 1 .08t.88.24zm2.79 4.83v3.13h-.97v-8.13h.97v.89q.3-.53.76-.78.48-.26 1.12-.26 1.08 0 1.75.86.67.85.67 2.24t-.67 2.24q-.68.85-1.75.85-.64 0-1.12-.25-.45-.26-.76-.79zm3.3-2.05q0-1.07-.45-1.68-.44-.6-1.21-.6-.76 0-1.2.6-.44.6-.44 1.68 0 1.06.43 1.68.45.6 1.22.6.76 0 1.2-.6.44-.61.44-1.69zm5.28-.02q-1.18 0-1.63.27-.45.27-.45.9 0 .53.34.83.34.3.92.3.81 0 1.3-.56.48-.58.48-1.53v-.21zm1.93-.4v3.36h-.97v-.9q-.33.55-.82.8-.5.25-1.21.25-.9 0-1.45-.5-.53-.52-.53-1.36 0-1 .67-1.5t1.99-.51h1.35v-.1q0-.67-.44-1.03-.44-.37-1.23-.37-.5 0-.98.12t-.93.37v-.9q.54-.2 1.03-.3.5-.1.98-.1 1.28 0 1.9.66.64.66.64 2zm2.96-4.21v1.68h1.99v.75h-2v3.2q0 .72.2.93.2.2.81.2h.99v.8h-.99q-1.13 0-1.55-.4-.42-.43-.42-1.53v-3.2h-.72v-.75h.72v-1.68zm7.51 1.9v.9q-.4-.22-.83-.33-.4-.12-.82-.12-.95 0-1.47.6t-.52 1.68.52 1.68q.52.59 1.47.59.41 0 .82-.1.42-.12.83-.35v.9q-.4.18-.84.28-.43.1-.92.1-1.34 0-2.12-.84t-.78-2.26q0-1.44.79-2.27.8-.83 2.17-.83.45 0 .88.1.42.09.82.27zm6.6 2.11v3.56h-.97v-3.53q0-.83-.33-1.25-.33-.42-.98-.42-.78 0-1.23.5-.46.5-.46 1.37v3.33h-.97v-8.19h.97v3.2q.35-.52.82-.78.47-.27 1.08-.27 1.02 0 1.54.63.53.63.53 1.85zm6.98.37v.47h-4.45q.06 1 .6 1.53.54.52 1.5.52.56 0 1.08-.14.52-.13 1.04-.4v.91q-.52.22-1.07.34-.55.11-1.11.11-1.4 0-2.24-.82-.81-.82-.81-2.22 0-1.44.77-2.3.79-.85 2.11-.85 1.2 0 1.89.77.68.77.68 2.09zm-.97-.28q-.01-.8-.45-1.27-.43-.47-1.15-.47-.8 0-1.3.45-.48.46-.56 1.3zm5.97-1.52q-.17-.1-.36-.13-.19-.05-.42-.05-.82 0-1.26.54-.44.52-.44 1.53v3.1h-.97v-5.89h.97v.9q.3-.53.8-.78.48-.27 1.18-.27l.23.02q.12 0 .27.04zm82.3-.75v6.1h1.28q1.63 0 2.39-.73.75-.74.75-2.33 0-1.57-.75-2.3-.76-.75-2.39-.75zm-1.06-.88h2.18q2.3 0 3.36.96 1.07.94 1.07 2.96 0 2.04-1.08 2.99-1.08.95-3.35.95h-2.18zm8.25 1.97h.97v5.9h-.97zm0-2.3h.97v1.23h-.97zm6.75 2.47v.91q-.41-.2-.86-.31-.44-.1-.91-.1-.72 0-1.08.22-.36.21-.36.66 0 .33.25.53.26.19 1.04.36l.34.07q1.03.23 1.46.63.43.4.43 1.12 0 .82-.65 1.3t-1.78.48q-.47 0-1-.1-.5-.08-1.07-.26v-1q.54.27 1.06.42.52.13 1.03.13.68 0 1.05-.23t.37-.66q0-.4-.27-.61-.27-.2-1.17-.4l-.33-.08q-.9-.2-1.3-.58-.4-.4-.4-1.08 0-.83.59-1.28.59-.46 1.67-.46.54 0 1.01.08t.88.24zm2.79 4.83v3.13h-.97v-8.13h.97v.89q.31-.53.77-.78.47-.26 1.12-.26 1.08 0 1.74.86.68.85.68 2.24t-.68 2.24q-.67.85-1.75.85-.64 0-1.1-.25-.47-.26-.78-.79zm3.3-2.05q0-1.07-.44-1.68-.44-.6-1.21-.6-.76 0-1.2.6-.45.6-.45 1.68 0 1.06.44 1.68.45.6 1.21.6.77 0 1.2-.6.45-.61.45-1.69zm5.28-.02q-1.17 0-1.62.27-.45.27-.45.9 0 .53.34.83.33.3.92.3.8 0 1.3-.56.48-.58.48-1.53v-.21zm1.94-.4v3.36h-.97v-.9q-.33.54-.82.8-.5.25-1.22.25-.9 0-1.44-.5-.53-.52-.53-1.37 0-1 .67-1.5t1.98-.5h1.36v-.1q0-.67-.44-1.03-.44-.37-1.23-.37-.5 0-.99.12t-.92.37v-.9q.54-.2 1.03-.3.5-.1.98-.1 1.28 0 1.9.66.64.66.64 2zm2.95-4.21v1.68h2v.75h-2v3.2q0 .72.2.92.2.2.8.2h1v.82h-1q-1.12 0-1.54-.42-.43-.42-.43-1.52v-3.2h-.71v-.75h.71v-1.68zm7.52 1.9v.9q-.41-.22-.83-.33-.4-.12-.83-.12-.94 0-1.46.6t-.52 1.68.52 1.68q.52.59 1.46.59.42 0 .83-.1.42-.12.83-.35v.9q-.4.18-.84.28-.43.09-.93.09-1.33 0-2.11-.84-.78-.83-.78-2.25 0-1.44.79-2.27.8-.83 2.17-.83.45 0 .88.1.41.09.82.27zm6.59 2.11v3.56h-.97v-3.53q0-.83-.32-1.25-.33-.42-.98-.42-.79 0-1.24.5-.45.5-.45 1.37v3.33h-.97v-8.19h.97v3.2q.35-.52.82-.78.47-.27 1.08-.27 1.02 0 1.54.63t.52 1.85zm6.99.37v.47h-4.46q.07 1 .6 1.53.54.52 1.5.52.56 0 1.08-.14.53-.13 1.05-.4v.9q-.52.23-1.07.35-.55.11-1.11.11-1.41 0-2.24-.82-.82-.82-.82-2.22 0-1.45.78-2.3.79-.85 2.1-.85 1.2 0 1.9.77.68.77.68 2.09zm-.97-.28q-.02-.8-.45-1.27-.44-.47-1.15-.47-.8 0-1.3.45-.48.46-.56 1.3zm5.96-1.52q-.16-.1-.35-.13-.2-.05-.42-.05-.82 0-1.27.54-.43.52-.43 1.53v3.1h-.97v-5.9h.97v.92q.3-.54.79-.79.5-.27 1.2-.27l.21.02q.13 0 .27.03z" aria-label="Dispatcher" style="line-height:1.25;text-align:center"/>
    <path d="M300.66 68.88h1.58l2 5.35 2.02-5.35h1.58v7.86h-1.04v-6.9l-2.02 5.39h-1.07l-2.02-5.4v6.91h-1.04zm11.94 4.9q-1.18 0-1.63.27-.46.27-.46.9 0 .53.34.83.34.3.93.3.8 0 1.29-.56.49-.58.49-1.53v-.21zm1.93-.4v3.36h-.97v-.9q-.34.55-.83.8-.5.25-1.21.25-.9 0-1.44-.5-.54-.52-.54-1.37 0-1 .67-1.5t1.99-.5h1.36v-.1q0-.67-.45-1.03-.43-.37-1.23-.37-.5 0-.98.12-.47.13-.92.37v-.9q.53-.2 1.03-.3.5-.1.97-.1 1.28 0 1.92.66.63.66.63 2zm5.75-2.36v.91q-.4-.2-.85-.31-.44-.1-.91-.1-.73 0-1.09.22-.36.21-.36.66 0 .34.26.53t1.04.36l.33.07q1.03.23 1.46.63.44.4.44 1.12 0 .82-.66 1.3-.64.48-1.78.48-.47 0-.98-.1-.52-.08-1.08-.26v-1q.53.27 1.05.42.52.13 1.04.13.68 0 1.05-.23.36-.24.36-.66 0-.4-.27-.61-.26-.2-1.16-.4l-.33-.08q-.9-.2-1.3-.58-.4-.4-.4-1.08 0-.83.58-1.28.6-.46 1.68-.46.54 0 1.01.08t.88.24zm2.82-1.85v1.68h2v.75h-2v3.2q0 .72.2.93.2.2.8.2h1v.8h-1q-1.12 0-1.55-.4-.42-.43-.42-1.53v-3.2h-.71v-.75h.7v-1.68zm8.31 4.38v.47h-4.44q.06 1 .59 1.53.54.52 1.5.52.57 0 1.09-.14.52-.13 1.04-.4v.9q-.53.23-1.07.35-.55.11-1.11.11-1.42 0-2.24-.82-.82-.82-.82-2.22 0-1.44.78-2.3.78-.85 2.11-.85 1.2 0 1.89.77.68.77.68 2.09zm-.96-.28q-.01-.8-.45-1.27-.43-.47-1.15-.47-.8 0-1.3.45-.48.46-.56 1.3zm5.97-1.52q-.17-.1-.36-.13-.19-.05-.42-.05-.82 0-1.26.54-.44.52-.44 1.53v3.1h-.97v-5.9h.97v.92q.3-.54.8-.79.48-.27 1.18-.27l.23.02q.12 0 .27.04zm100.59 127.1h1.58l2 5.35 2.03-5.35h1.57v7.86h-1.03v-6.9l-2.02 5.38h-1.08l-2.02-5.38v6.9h-1.03zm11.94 4.9q-1.17 0-1.63.27-.45.27-.45.9 0 .52.33.83.35.3.93.3.81 0 1.29-.57.5-.57.5-1.52v-.21zm1.93-.4v3.36h-.97v-.9q-.34.54-.83.8-.49.25-1.21.25-.9 0-1.44-.5-.53-.52-.53-1.37 0-1 .66-1.5.68-.5 1.99-.5h1.36v-.1q0-.67-.44-1.03-.44-.37-1.24-.37-.5 0-.98.12-.47.12-.92.37v-.9q.53-.2 1.04-.3.5-.11.96-.11 1.28 0 1.92.67.63.66.63 2zm5.75-2.36v.91q-.4-.2-.85-.31-.44-.1-.91-.1-.72 0-1.09.22-.35.21-.35.66 0 .33.25.53.26.19 1.04.36l.34.07q1.02.23 1.45.63.44.4.44 1.12 0 .82-.65 1.3-.65.48-1.79.48-.47 0-.98-.1-.51-.08-1.08-.27v-1q.53.28 1.05.43.53.13 1.04.13.68 0 1.05-.24.36-.23.36-.66 0-.4-.27-.6-.25-.21-1.16-.4l-.33-.09q-.9-.19-1.3-.58-.4-.39-.4-1.07 0-.83.59-1.28.59-.46 1.67-.46.54 0 1.01.08t.88.24zm2.82-1.85v1.68h2v.74h-2v3.2q0 .72.2.93.2.2.8.2h1v.81h-1q-1.12 0-1.55-.4-.42-.43-.42-1.54v-3.2h-.71v-.74h.7v-1.68zm8.31 4.38v.47h-4.44q.06 1 .6 1.53.53.52 1.5.52.56 0 1.08-.14.52-.13 1.04-.4v.9q-.52.23-1.07.34-.54.12-1.11.12-1.41 0-2.24-.82-.82-.82-.82-2.23 0-1.44.78-2.29.79-.85 2.11-.85 1.2 0 1.89.77.68.76.68 2.08zm-.96-.28q-.01-.8-.45-1.27-.43-.47-1.14-.47-.81 0-1.3.45-.49.46-.56 1.3zm5.98-1.52q-.17-.1-.37-.13-.19-.05-.42-.05-.82 0-1.26.54-.44.52-.44 1.53v3.1h-.97v-5.9h.97v.92q.31-.54.8-.8.49-.26 1.19-.26l.22.02q.12 0 .27.03z" aria-label="Master" style="line-height:1.25;text-align:center"/>
    <path d="M441.88 252.2q.35.12.67.5.32.38.65 1.04l1.08 2.15h-1.14l-1-2.02q-.4-.79-.76-1.04-.37-.26-1-.26h-1.16v3.32h-1.06v-7.86h2.4q1.34 0 2.01.57.66.56.66 1.7 0 .73-.34 1.23t-1 .67zm-2.66-3.3v2.8h1.34q.77 0 1.15-.36.4-.36.4-1.05t-.4-1.03q-.38-.35-1.15-.35zm10.95 3.8v.47h-4.45q.06 1 .6 1.53.53.52 1.5.52.56 0 1.08-.14.53-.13 1.04-.4v.9q-.52.23-1.07.34-.54.12-1.1.12-1.42 0-2.24-.82-.83-.82-.83-2.23 0-1.44.79-2.29.78-.85 2.1-.85 1.2 0 1.88.77.7.76.7 2.08zm-.97-.28q-.01-.8-.45-1.27-.43-.47-1.14-.47-.81 0-1.3.45-.49.46-.56 1.3zm3.5 2.58v3.13h-.98V250h.97v.89q.3-.53.77-.78.47-.26 1.12-.26 1.08 0 1.74.85.67.86.67 2.25t-.67 2.24q-.67.85-1.74.85-.65 0-1.12-.25-.46-.26-.77-.79zm3.3-2.05q0-1.07-.46-1.68-.43-.6-1.2-.6t-1.21.6q-.44.6-.44 1.68 0 1.06.44 1.67.44.61 1.21.61t1.2-.6q.45-.61.45-1.69zm2.6-5.25h.96v8.19h-.96zm2.98 2.3h.97v5.89h-.97zm0-2.3h.97v1.23h-.97zm7.24 2.52v.9q-.42-.22-.83-.33-.4-.12-.83-.12-.94 0-1.46.6-.53.6-.53 1.68t.53 1.67q.52.6 1.46.6.42 0 .83-.11.41-.12.83-.34v.9q-.4.18-.85.27-.43.1-.92.1-1.33 0-2.11-.84-.79-.83-.79-2.25 0-1.44.8-2.27.79-.83 2.16-.83.45 0 .88.1t.83.27zm4.37 2.71q-1.18 0-1.63.27-.45.27-.45.9 0 .52.33.83.35.3.93.3.8 0 1.29-.57t.49-1.52v-.21zm1.93-.4v3.36h-.97v-.9q-.34.54-.83.8-.5.25-1.21.25-.9 0-1.44-.5-.53-.52-.53-1.37 0-1 .67-1.5.66-.5 1.98-.5h1.36v-.1q0-.67-.45-1.03-.43-.37-1.22-.37-.5 0-1 .12-.46.12-.9.37v-.9q.53-.2 1.02-.3.5-.11.97-.11 1.28 0 1.92.67.63.66.63 2z" aria-label="Replica" style="line-height:1.25;text-align:center"/>
    <path d="M295.53 306.49h1.06v3.22h3.87v-3.22h1.06v7.86h-1.06v-3.75h-3.87v3.75h-1.06zm10.51 8.39q-.4 1.06-.8 1.39-.38.31-1.04.31h-.77v-.8h.57q.4 0 .62-.2.22-.18.49-.89l.17-.44-2.38-5.8h1.02l1.85 4.61 1.84-4.6h1.03zm7.34-5.52q-.16-.1-.35-.14-.2-.05-.43-.05-.81 0-1.26.54-.43.53-.43 1.53v3.1h-.97v-5.89h.97v.91q.3-.54.79-.79.5-.26 1.2-.26l.2.02q.13 0 .28.03zm1.02-.91h.98v5.9h-.97zm0-2.3h.98v1.23h-.97zm6.76 2.47v.92q-.4-.21-.86-.32-.44-.1-.9-.1-.74 0-1.1.22-.36.22-.36.66 0 .34.27.53.25.2 1.03.37l.33.07q1.03.22 1.46.63.44.4.44 1.12 0 .82-.65 1.3-.65.47-1.79.47-.47 0-.99-.09-.5-.09-1.07-.27v-1q.54.27 1.05.42.53.14 1.03.14.7 0 1.06-.24.37-.24.37-.66 0-.4-.27-.6-.27-.21-1.16-.41l-.34-.08q-.9-.19-1.3-.58-.4-.39-.4-1.08 0-.83.59-1.28.59-.45 1.67-.45.54 0 1.01.08t.88.23zm6.9 2.53v.48h-4.45q.06 1 .6 1.52t1.5.52q.56 0 1.08-.13.53-.14 1.04-.4v.9q-.52.23-1.06.34-.55.11-1.12.11-1.41 0-2.23-.82-.82-.82-.82-2.22 0-1.44.78-2.29.78-.85 2.1-.85 1.2 0 1.88.76.7.77.7 2.1zm-.97-.28q0-.8-.45-1.27-.43-.47-1.14-.47-.8 0-1.3.45-.49.46-.56 1.3zm2.07.09h2.83v.86h-2.83zm8.14-.3q.35.12.67.5.33.37.66 1.04l1.07 2.15h-1.14l-1-2.02q-.4-.8-.76-1.05t-1-.25h-1.15v3.32h-1.07v-7.86h2.4q1.35 0 2.01.56.66.56.66 1.7 0 .74-.34 1.23-.34.5-1 .68zm-2.65-3.3v2.79h1.34q.76 0 1.15-.35.4-.36.4-1.05t-.4-1.04q-.39-.35-1.15-.35zm-35.01 13.2v1.12q-.53-.5-1.14-.74-.6-.25-1.29-.25-1.34 0-2.06.82t-.72 2.39q0 1.55.72 2.37.72.83 2.06.83.68 0 1.29-.25.6-.25 1.14-.75v1.11q-.55.38-1.18.57-.62.18-1.31.18-1.79 0-2.81-1.09t-1.03-2.97q0-1.9 1.03-2.99 1.02-1.1 2.8-1.1.71 0 1.33.2.63.18 1.17.55zm1.61-.93h.97v8.19h-.97zm2.9 5.86v-3.57h.96v3.53q0 .84.33 1.25.33.42.98.42.78 0 1.23-.5.46-.5.46-1.36v-3.34h.97v5.9h-.97v-.91q-.35.54-.82.8-.46.25-1.08.25-1 0-1.54-.63-.53-.63-.53-1.84zm2.43-3.7zm8.27.31v.9q-.42-.2-.86-.3-.44-.11-.92-.11-.72 0-1.07.22-.37.22-.37.66 0 .34.26.53.26.2 1.04.37l.33.06q1.03.23 1.46.64.43.4.43 1.12 0 .82-.64 1.3-.65.47-1.79.47-.47 0-.99-.09-.5-.09-1.07-.27v-1q.53.27 1.05.42.52.14 1.03.14.68 0 1.05-.24t.37-.66q0-.4-.26-.6-.27-.21-1.17-.41l-.34-.08q-.9-.19-1.3-.58-.4-.4-.4-1.08 0-.83.6-1.28.59-.46 1.67-.46.54 0 1.01.09t.88.23zm2.81-1.85v1.67h2v.75h-2v3.2q0 .72.2.93.2.2.8.2h1v.8h-1q-1.12 0-1.55-.4-.42-.43-.42-1.53v-3.2h-.71v-.75h.71v-1.67zm8.31 4.37v.47h-4.44q.06 1 .6 1.53.53.52 1.5.52.56 0 1.07-.13.53-.14 1.05-.4v.9q-.52.22-1.07.34-.54.11-1.1.11-1.42 0-2.24-.82-.82-.82-.82-2.22 0-1.44.77-2.29.79-.86 2.11-.86 1.19 0 1.88.78.7.76.7 2.07zm-.96-.28q-.02-.8-.45-1.27t-1.15-.47q-.8 0-1.3.45-.48.46-.56 1.3zm5.97-1.51q-.17-.1-.36-.14-.2-.05-.42-.05-.82 0-1.27.54-.43.53-.43 1.53v3.1h-.97v-5.89h.97v.91q.3-.54.8-.79.48-.27 1.18-.27l.23.02.26.04zm7.12-1.83l-1.44 3.91h2.9zm-.6-1.04h1.21l3 7.86h-1.11l-.72-2.02h-3.54l-.72 2.02h-1.12z" aria-label="Hyrise-R Cluster A" style="line-height:1.25;text-align:center"/>
    <path d="M435.6 305.38h1.07v3.22h3.87v-3.22h1.06v7.86h-1.06v-3.74h-3.87v3.74h-1.06zm10.52 8.4q-.4 1.06-.8 1.38-.38.32-1.04.32h-.77v-.81h.56q.4 0 .63-.19.22-.19.49-.9l.17-.44-2.38-5.8H444l1.85 4.62 1.83-4.61h1.03zm7.34-5.53q-.16-.1-.35-.13-.2-.05-.43-.05-.81 0-1.26.54-.44.52-.44 1.53v3.1h-.97v-5.9h.97v.92q.3-.54.8-.79.49-.27 1.2-.27l.2.02q.13 0 .28.03zm1.03-.9h.97v5.9h-.97zm0-2.3h.97v1.23h-.97zm6.74 2.47v.91q-.4-.2-.85-.31-.44-.1-.91-.1-.73 0-1.08.22-.37.21-.37.66 0 .33.26.53.26.19 1.04.36l.33.07q1.03.23 1.46.63.44.4.44 1.12 0 .82-.65 1.3-.65.48-1.79.48-.47 0-.99-.1-.5-.08-1.07-.26v-1q.53.27 1.05.42.53.13 1.03.13.69 0 1.06-.23.36-.24.36-.66 0-.4-.27-.61-.26-.2-1.15-.4l-.34-.09q-.9-.18-1.3-.57-.4-.4-.4-1.08 0-.83.59-1.28.58-.46 1.67-.46.54 0 1 .08t.88.24zm6.91 2.53v.47h-4.45q.06 1 .6 1.53.53.52 1.5.52.56 0 1.08-.14.53-.13 1.04-.4v.9q-.52.23-1.07.35-.54.11-1.1.11-1.42 0-2.24-.82-.82-.82-.82-2.22 0-1.45.78-2.3.78-.85 2.1-.85 1.2 0 1.88.77.7.77.7 2.09zm-.97-.28q0-.8-.45-1.27-.43-.47-1.14-.47-.81 0-1.3.45-.49.46-.56 1.3zm2.07.08h2.83v.87h-2.83zm8.14-.29q.35.11.67.49.32.38.65 1.04l1.08 2.15h-1.14l-1-2.02q-.4-.79-.76-1.04-.36-.26-1-.26h-1.16v3.32h-1.06v-7.86h2.4q1.35 0 2.01.57.66.56.66 1.7 0 .74-.34 1.23t-1 .67zm-2.66-3.3v2.79h1.34q.77 0 1.16-.35.4-.37.4-1.05t-.4-1.04q-.39-.35-1.16-.35zm-35 13.2v1.12q-.54-.5-1.15-.74-.6-.25-1.3-.25-1.34 0-2.05.82-.72.82-.72 2.38 0 1.55.72 2.38.71.82 2.06.82.69 0 1.29-.25.6-.25 1.14-.75v1.12q-.55.37-1.18.56-.62.19-1.31.19-1.79 0-2.82-1.1-1.02-1.08-1.02-2.97 0-1.9 1.02-2.98 1.03-1.1 2.82-1.1.7 0 1.32.19.62.19 1.18.56zm1.61-.94h.97v8.2h-.97zm2.89 5.86v-3.57h.96v3.54q0 .83.33 1.25.32.42.98.42.78 0 1.23-.5.46-.5.46-1.36v-3.34h.97v5.9h-.97v-.92q-.35.54-.82.8-.46.26-1.08.26-1.01 0-1.55-.63-.51-.63-.51-1.85zm2.43-3.7zm8.26.31v.91q-.41-.2-.86-.31-.43-.1-.91-.1-.72 0-1.08.22-.36.21-.36.66 0 .33.26.53.26.19 1.04.36l.33.07q1.03.23 1.46.63.44.4.44 1.12 0 .82-.66 1.3-.64.48-1.78.48-.47 0-1-.1-.5-.08-1.07-.26v-1q.54.27 1.06.42.52.13 1.03.13.69 0 1.05-.23.37-.24.37-.66 0-.4-.27-.61-.26-.2-1.16-.4l-.33-.09q-.9-.18-1.3-.57-.4-.4-.4-1.08 0-.83.58-1.28.59-.46 1.67-.46.54 0 1.01.08t.88.24zm2.82-1.85v1.68h2v.75h-2v3.2q0 .72.2.92.2.2.8.2h1v.81h-1q-1.12 0-1.55-.4-.42-.43-.42-1.54v-3.2h-.71v-.74h.7v-1.68zm8.32 4.38v.47h-4.46q.07 1 .6 1.53.55.52 1.5.52.56 0 1.09-.14.52-.13 1.03-.4v.9q-.51.23-1.06.34-.55.12-1.11.12-1.42 0-2.24-.82-.82-.82-.82-2.22 0-1.45.78-2.3.78-.85 2.11-.85 1.2 0 1.88.77.7.77.7 2.08zm-.98-.28q0-.8-.44-1.27-.43-.47-1.15-.47-.8 0-1.3.45-.48.46-.56 1.3zm5.98-1.52q-.16-.1-.36-.13-.19-.05-.42-.05-.82 0-1.26.54-.44.52-.44 1.53v3.1h-.97v-5.9h.97v.92q.3-.54.8-.79.48-.27 1.19-.27l.21.02q.12 0 .27.03zm5.56 1.24v2.88h1.7q.86 0 1.27-.36.42-.36.42-1.09 0-.74-.42-1.08-.4-.36-1.27-.36zm0-3.23v2.36h1.57q.78 0 1.16-.29.38-.29.38-.89 0-.6-.38-.89-.38-.3-1.16-.3zm-1.06-.88h2.71q1.21 0 1.87.5.66.51.66 1.44 0 .72-.33 1.15-.34.43-1 .54.79.16 1.22.7.44.53.44 1.33 0 1.05-.72 1.62-.71.58-2.03.58h-2.82z" aria-label="Hyrise-R Cluster B" style="line-height:1.25;text-align:center"/>
  </g>
  <g clip-path="url(#g)" transform="matrix(.14882 0 0 -.14882 -5.6 137.9)">
    <path fill="#4e4640" d="M624.62 215.96a5.26 5.26 0 1 0 .01 10.52 5.26 5.26 0 0 0-.01-10.52m6.96 5.25a6.97 6.97 0 1 1-13.94-.01 6.97 6.97 0 0 1 13.94.01"/>
    <path fill="#4e4640" d="M625.8 222.43c0-.61-.39-1.02-1.11-1.02h-1.04v2.05h1c.74 0 1.15-.33 1.15-1.02zm1.42.04v.04c0 .67-.2 1.2-.57 1.58-.43.43-1.06.65-1.85.65h-2.57v-6.82h1.42v2.24h.88l1.27-2.24h1.62l-1.46 2.53c.75.33 1.26.99 1.26 2.02m-453.11 19.27v.63c0 10.39 5.35 18.05 13.64 18.05 8.08 0 13.85-7.77 13.85-18.16v-.62c0-10.38-5.35-18.15-13.64-18.15-8.08-.01-13.85 7.86-13.85 18.25m39.35-.2v.94c0 16.47-10.8 28.43-25.5 28.43-14.8 0-25.7-12.17-25.7-28.54v-.94c0-16.48 10.8-28.34 25.5-28.34 14.79 0 25.7 12.07 25.7 28.44m18.35 0v1.05c0 10.91 6.09 17.84 13.22 17.84 7.14 0 12.9-6.82 12.9-17.95v-.94c0-11.12-5.66-17.84-12.9-17.84-7.12 0-13.22 6.94-13.22 17.84m38.09-.21v1.47c0 18.78-10.5 28.12-21.62 28.12-7.97 0-12.8-4.62-16.26-9.97v8.92h-11.86V198.4h11.86v24.24c3.36-4.93 8.19-9.44 16.26-9.44 11.23 0 21.63 9.43 21.63 28.12m30.18 19.62c6.92 0 10.91-6.4 11.54-15.21h-23.5c.84 9.44 5.46 15.21 11.96 15.21m21.2-39.24l-6.2 7.34c-3.67-3.56-7.55-5.87-12.8-5.87-7.24 0-13 5.03-14.06 14.37h34.84c.1 1.68.1 3.36.1 4.1 0 16.67-7.97 29.26-23.08 29.26-13.64 0-23.71-11.96-23.71-28.65v-.83c0-17.42 11.12-28.34 25.39-28.34 8.29 0 14.48 3.26 19.52 8.6m36.7 49.23c-7.55 0-12.07-4.3-15.21-9.23v8.18h-11.86v-55.61h11.86v33.68c0 7.66 4.3 12.28 10.49 12.28 6.3 0 9.97-4.3 9.97-12.07v-33.9h11.85v37.26c0 11.85-6.4 19.41-17.1 19.41m64.9-40.82v.1c0 8.71-6.5 12.7-15.11 16.58-6.5 2.94-10.91 4.83-10.91 8.5v.21c0 3.05 2.62 5.46 7.03 5.46 4.4 0 9.02-2.1 13.22-4.93l5.04 8.7a31.76 31.76 0 0 1-18.05 5.99c-10.39 0-18.36-6.3-18.36-16.27v-.2c0-9.14 6.92-12.91 15.21-16.48 6.61-2.83 10.91-4.62 10.91-8.6v-.1c0-3.47-2.83-6.1-7.76-6.1s-10.29 2.42-15.32 6.5l-5.56-8.49a32.82 32.82 0 0 1 20.67-7.76c10.69-.01 18.99 5.98 18.99 16.89m36.71-14.27v9.76c-2-1.06-4.1-1.57-6.4-1.57-3.78 0-5.98 1.78-5.98 6.08v29.59h12.48v10.18h-12.5v15h-11.85v-15h-6.09l1.95-10.18h4.14v-32c0-10.81 6.2-14.27 14.38-14.27 3.98 0 7.13.94 9.86 2.41m39.57 17.1c0-6.3-5.25-10.91-12.07-10.8-5.14.1-9.02 3.25-9.02 8.8v.22c0 5.87 3.99 9.34 10.8 9.34 4 0 7.56-.84 10.29-2zm5.88 31.9c-3.57 3.67-9.13 5.67-16.37 5.67-7.45 0-13.01-1.79-18.37-4.41l3.36-9.45c3.68 1.68 8.08 3.36 13.43 3.36 7.57 0 11.97-3.87 11.97-11.33v-2.3a37.8 37.8 0 0 1-12.8 2.2c-11.76 0-19.73-5.88-19.73-17.84v-.53c0-10.8 7.76-17 17-17 7.24 0 12.17 3.15 15.42 7.87v-6.82h11.65v34.52c0 6.93-1.9 12.39-5.56 16.06M561 221.48l-6.4 7.87c-3.25-3.25-6.5-5.67-11.33-5.67-8.08 0-13.75 7.24-13.75 18.05v.53c0 10.49 5.67 17.94 13.43 17.94 5.04 0 8.3-2.52 11.23-5.56l6.61 8.7c-4.62 4.62-9.86 7.56-17.84 7.56-14.58 0-25.39-11.96-25.39-28.54v-1.05c0-16.58 10.5-28.22 24.97-28.22 8.5-.01 14.07 3.46 18.47 8.39m36.29 21.63l-8.32-8.95 11.16-19.91h13.76z"/>
    <path fill="#4e4640" d="M599.29 269.86l-19-24.45v44.6h-11.85v-75.76h11.86v16.05l33.05 39.56z"/>
    <g clip-path="url(#h)" opacity=".98">
      <path fill="#ed1844" d="M436.46 424.87h-94.64c-5.94 0-10.8-4.86-10.8-10.8v-25.45h26.25v4.16a5.84 5.84 0 0 0 5.84 5.84h52.06a5.84 5.84 0 0 0 5.84-5.84v-4.16h26.25v25.45c0 5.94-4.86 10.8-10.8 10.8m-15.45-81.67a5.84 5.84 0 0 0-5.84-5.84h-52.06a5.84 5.84 0 0 0-5.84 5.84v4.16h-26.25V321.9c0-5.94 4.86-10.8 10.8-10.8h94.64c5.94 0 10.8 4.86 10.8 10.8v25.46h-26.25zm-63.73 37.92h-26.25v-26.25h26.25zm89.98 0h-26.25v-26.25h26.25z"/>
    </g>
  </g>
</svg>
