<svg xmlns="http://www.w3.org/2000/svg" width="371.73" height="181.94" viewBox="0 0 98.35 48.14">
  <path fill="none" stroke="#bdbcbd" stroke-linejoin="round" stroke-miterlimit="10" stroke-width=".1" d="M39.08 41.3H7.07V.98h64.02V41.3zm31.99 0h-64m64-4.49h-64m64-4.49h-64m64-4.47h-64m64-4.49h-64m64-4.46h-64m64-4.5h-64m64-4.46h-64m64-4.49h-64m64-4.47h-64m0 43.82v-3.5m15.99 3.5v-3.5m16.02 3.5v-3.5m16 3.5v-3.5m15.99 3.5v-3.5m-64 6.05V41.3m32.01 6.05V41.3m31.99 6.05V41.3m-64 .95v-.95m0 .95v-.95m16 .95v-.95m0 .95v-.95m16.02.95v-.95m0 .95v-.95m15.99.95v-.95m0 .95v-.95m16 .95v-.95m0 .95v-.95m-64.01 0h64m-64.94 0h.94m-.94 0h.94m-.94-4.5h.94m-.94 0h.94m-.94-4.48h.94m-.94 0h.94m-.94-4.47h.94m-.94 0h.94m-.94-4.49h.94m-.94 0h.94m-.94-4.46h.94m-.94 0h.94m-.94-4.5h.94m-.94 0h.94m-.94-4.46h.94m-.94 0h.94m-.94-4.49h.94m-.94 0h.94M6.13.98h.94m-.94 0h.94m0 40.32V.98"/>
  <path fill="#4f4c4d" d="M43.07 41.3h8V23.36h-8zm-16 0h8V23.36h-8zm-16.01 0h8V23.36h-8z"/>
  <path fill="#a7a5a6" d="M59.09 41.3h7.99V18.9h-7.99zM43.07 23.37h8V5.46h-8zm-16 0h8V18.9h-8z"/>
  <path fill="#4f4c4d" fill-rule="evenodd" d="M76.59 25.31h-.68v-1.35h1.36v1.35h-.68"/>
  <path fill="#a7a5a6" fill-rule="evenodd" d="M76.59 22.1h-.68v-1.33h1.36v1.33h-.68"/>
  <g fill="#231f20" stroke-width=".35">
    <path d="M4.17 1.33h.21q.01.12.1.2.1.07.22.07.38 0 .4-.68-.07.1-.18.17-.1.07-.23.07-.27 0-.41-.16-.15-.16-.15-.43 0-.25.16-.4.16-.17.42-.17.6 0 .6.84 0 .94-.6.94-.24 0-.38-.11-.14-.12-.16-.34zm.89-.74q0-.17-.1-.29-.1-.1-.26-.1-.18 0-.26.12-.08.11-.08.3 0 .14.1.25.1.11.24.11.16 0 .26-.1.1-.12.1-.28zm-.63 4.34q0 .14.09.21.09.07.22.07t.2-.07q.09-.08.09-.21t-.08-.2q-.08-.07-.21-.07t-.22.07q-.09.07-.09.2zm-.22 0q0-.21.15-.33.15-.12.36-.12.27 0 .4.13t.13.31q0 .12-.06.22-.07.1-.18.15.31.1.31.43 0 .25-.16.4-.17.14-.42.14-.26 0-.43-.14-.16-.14-.16-.4 0-.15.07-.27.08-.11.23-.16-.1-.05-.18-.15-.06-.1-.06-.22zm.16.8q0 .16.1.25.1.1.27.1.16 0 .26-.1t.1-.25q0-.14-.1-.24-.11-.1-.26-.1-.16 0-.27.1-.1.1-.1.24zm.93 3.26v.18q-.27.26-.46.7-.19.43-.21.84h-.24q.03-.43.22-.82.19-.4.48-.7h-.92v-.2zm-.02 4.89h-.21q-.01-.12-.1-.19-.07-.07-.2-.07-.4 0-.42.66.15-.22.44-.22.25 0 .4.16.14.16.14.4 0 .11-.03.2-.03.1-.1.2-.06.08-.18.14-.12.05-.28.05-.6 0-.6-.84 0-.2.03-.35.04-.16.1-.3.08-.13.2-.21.14-.08.32-.08.21 0 .34.12.13.12.15.33zm-.53.36q-.17 0-.26.12-.1.1-.1.28 0 .17.1.28.1.1.26.1.17 0 .26-.1.1-.12.1-.28 0-.17-.1-.28-.08-.12-.26-.12zm.46 3.7v.19h-.7l-.1.5q.12-.12.33-.12.25 0 .4.15.17.16.17.45 0 .24-.17.41-.16.17-.45.17-.23 0-.4-.13-.15-.14-.15-.37h.2q.02.14.12.23.1.09.25.09.16 0 .27-.11.1-.11.1-.3 0-.18-.1-.3-.12-.1-.3-.1t-.32.16l-.18-.01.17-.91zm-.91 5.61h.59v-.86zm.79-1.16v1.16h.23v.19H5.1v.4h-.2v-.4h-.77v-.2l.8-1.15zm-.51 5.41v-.18h.09q.14 0 .24-.07.1-.08.1-.21 0-.14-.1-.21-.08-.07-.22-.07-.16 0-.24.1-.09.11-.09.28h-.2q0-.26.14-.42.14-.15.4-.15.23 0 .38.12t.15.35q0 .11-.07.2-.07.1-.18.15.16.04.24.15.08.12.08.28 0 .25-.17.4-.17.13-.43.13-.27 0-.43-.15-.16-.15-.15-.42h.2q.01.18.1.28.1.1.28.1.16 0 .27-.09.1-.09.1-.24 0-.16-.1-.25t-.26-.09h-.13zm-.22 4.17h-.21q-.01-.27.14-.44.15-.18.42-.18.24 0 .4.13.15.14.15.37 0 .12-.03.2-.04.1-.1.17l-.13.12-.16.11-.17.1-.15.1q-.06.05-.11.12-.05.07-.06.15h.9v.18H4.1q.01-.15.05-.26.04-.11.12-.2.07-.08.14-.13l.18-.13q.26-.15.35-.26.1-.1.1-.27 0-.14-.1-.23-.1-.08-.24-.08-.17 0-.26.13-.08.12-.08.3zm.57 3.86v1.75h-.21v-1.25h-.45v-.17q.44 0 .5-.33zm-.56 5.37v.15l.01.15.03.15.07.13q.04.06.1.1.06.03.15.03t.15-.04q.06-.03.1-.1l.06-.12q.03-.06.04-.15v-.15l.01-.15v-.14l-.01-.15q-.01-.1-.04-.16l-.06-.13q-.03-.06-.1-.1-.06-.02-.15-.02t-.15.03q-.06.03-.1.1l-.07.12-.03.16v.15l-.01.14zm-.22 0V41l.03-.2q.01-.11.05-.2l.1-.14q.07-.08.17-.11.1-.04.23-.04t.23.04q.1.03.17.1l.1.16q.04.08.05.2l.03.2v.44q-.01.1-.05.23-.03.13-.09.21-.06.08-.17.14-.11.06-.27.06-.16 0-.27-.06-.11-.06-.17-.14-.06-.08-.1-.21-.03-.13-.03-.23l-.01-.25z" aria-label="9876543210"/>
    <path d="M2.04 32.71H.02v-.29l1.64-1.06H.02v-.26h2.02v.3L.42 32.45h1.62zM.58 29.5h1.46v.23H1.8q.26.15.26.48 0 .27-.14.38-.14.12-.39.12H.58v-.24h.99q.13 0 .21-.08.08-.08.08-.22 0-.21-.12-.32-.13-.11-.34-.11H.58zm1.46-.36H.58v-.23H.8q-.25-.17-.25-.47 0-.32.25-.4-.12-.08-.19-.2-.06-.12-.06-.26 0-.49.42-.49h1.07v.24h-.96q-.15 0-.24.06-.08.06-.08.23t.1.28q.1.1.27.1h.91v.24h-.96q-.15 0-.24.06-.08.06-.08.21 0 .19.13.29.13.1.24.1h.91zm0-2.36H.02v-.24h.76q-.23-.12-.23-.47 0-.32.22-.5.22-.17.54-.17.33 0 .55.17.21.17.21.5 0 .12-.05.26-.06.13-.17.2v.01h.19zm-.74-1.13q-.23 0-.38.12-.16.11-.16.33 0 .23.16.34.16.1.39.1t.4-.1q.15-.12.15-.35 0-.23-.16-.33t-.4-.1zm-.13-.61v-.84q-.17.01-.3.13-.11.12-.11.3 0 .17.12.29t.29.12zm.4-.83v-.24q.25.05.38.21.12.16.12.41 0 .34-.2.52-.21.17-.56.18-.33 0-.55-.19-.21-.2-.21-.5 0-.14.05-.26t.14-.2q.08-.07.2-.11.1-.05.22-.07.11-.02.22-.01v1.09q.2 0 .34-.11.14-.12.14-.34 0-.32-.28-.38zm.47-.56H.58v-.23h.3q-.17-.09-.25-.22-.09-.13-.08-.32H.8q0 .28.15.4t.44.13h.65zM.91 21.62q.15.13.4.13.26 0 .4-.13.15-.13.15-.32 0-.2-.14-.33-.15-.13-.4-.13-.26 0-.41.13-.15.13-.15.33 0 .19.15.32zm.4.38q-.33 0-.55-.18-.21-.19-.21-.52 0-.34.21-.53.22-.18.55-.18.34 0 .55.18.22.19.22.53 0 .33-.22.52-.21.18-.55.18zm.73-1.75H.79v.25H.6v-.25H.35q-.17 0-.26-.1-.1-.1-.1-.3 0-.09.03-.16h.2q-.02.06-.02.14 0 .09.04.13.04.05.13.05h.2v-.28H.8V20h1.25zm.56-1.47H.58v-.24h.2q-.23-.12-.23-.47 0-.32.22-.5.22-.17.55-.17.32 0 .54.17.22.17.22.5 0 .12-.06.26-.05.13-.17.2v.01h.75zm-1.3-1.13q-.22 0-.38.12-.16.11-.16.33 0 .23.16.34.16.1.39.1t.4-.1q.15-.12.15-.35 0-.23-.16-.33t-.4-.1zm.74-.43H.58v-.23h.3q-.17-.09-.25-.22-.09-.13-.08-.32H.8q0 .28.15.4.15.13.44.13h.65zM.91 15.97q.15.13.4.13.26 0 .4-.13.15-.13.15-.32 0-.2-.14-.33-.15-.13-.4-.13-.26 0-.41.13-.15.13-.15.33 0 .19.15.32zm.4.38q-.33 0-.55-.18-.21-.19-.21-.52 0-.34.21-.53t.55-.18q.34 0 .55.18.22.19.22.53 0 .33-.22.52-.21.18-.55.18zm-1.29-1.9h.3v.24h-.3zm.56 0h1.64q.37 0 .37.35v.12h-.21v-.09q0-.08-.04-.11t-.16-.03H.58zm.59-.55v-.84q-.17.01-.3.13-.11.12-.11.3 0 .17.12.29t.29.12zm.4-.83v-.24q.25.05.38.21.12.16.12.41 0 .34-.2.52-.21.17-.56.18-.33 0-.55-.19-.21-.2-.21-.5 0-.14.05-.26t.14-.2q.08-.07.2-.11.1-.05.22-.07.11-.02.22-.01v1.09q.2 0 .34-.11.14-.12.14-.34 0-.32-.28-.38zm-.52-1.8v.25q-.3.06-.3.36 0 .24.17.35.16.1.4.1.24 0 .39-.1.15-.1.15-.32 0-.35-.35-.4v-.25q.27.04.42.2.14.17.14.45 0 .32-.2.5t-.54.18q-.34 0-.56-.18-.22-.18-.22-.51 0-.26.12-.43.13-.17.38-.2zm-.91-.5h.44v-.3h.2v.3h.92q.08 0 .1-.03.02-.04.02-.15v-.11h.22v.18q0 .2-.07.27-.06.08-.25.08H.79v.25H.58V11H.14zm1.44-.36v-.24q.15 0 .22-.12.06-.1.06-.27 0-.35-.22-.35-.08 0-.14.07-.05.07-.07.17l-.06.23-.06.23q-.04.1-.13.18-.09.07-.22.07-.2 0-.3-.16-.11-.17-.11-.39 0-.26.1-.42.1-.16.35-.17v.24q-.08 0-.14.06-.06.05-.08.12-.02.07-.02.15 0 .13.04.22.04.1.15.1.05 0 .1-.05.04-.04.07-.11l.04-.15.04-.17.05-.18.07-.15q.05-.07.12-.1.08-.05.17-.05.24 0 .35.18.11.19.11.44 0 .27-.11.44-.13.17-.38.18z" aria-label="Number of projects"/>
    <path d="M9.82 43.74h-.23q-.04-.18-.17-.28-.14-.1-.33-.1-.3 0-.45.21-.15.2-.15.5 0 .33.15.54.15.2.45.2.23 0 .36-.13.14-.15.15-.37h.24q-.04.33-.23.52-.2.18-.54.18-.39 0-.6-.25-.21-.26-.21-.66t.22-.67q.22-.26.61-.26.29 0 .49.15t.24.42zm.43.47h.73q0-.15-.11-.26-.1-.1-.25-.1-.16 0-.26.1t-.11.26zm.73.36h.2q-.04.2-.18.32-.14.11-.36.11-.3 0-.45-.18-.15-.19-.16-.5 0-.28.17-.47.17-.19.43-.19.13 0 .23.05t.17.12q.06.08.1.18.05.1.06.2.02.09.02.19h-.96q0 .17.1.3.1.11.3.11.27 0 .33-.24zm.49.4v-1.28h.2v.2q.13-.23.42-.23.23 0 .34.13.1.12.1.34v.84h-.21v-.86q0-.12-.07-.2-.07-.06-.2-.06-.18 0-.27.11-.1.1-.1.29v.72zm1.66-1.66v.38h.25v.19h-.25v.8q0 .06.03.08.03.02.13.02h.1v.19h-.17q-.17 0-.23-.05-.07-.06-.07-.23v-.81h-.22v-.19h.22v-.38zm.39 1.66v-1.28h.2v.27q.08-.16.19-.23t.28-.07v.23q-.24 0-.35.13-.11.13-.11.38v.57zm1.93-.17v.16q-.06.04-.15.04-.18 0-.18-.2-.16.2-.45.2-.19 0-.3-.09-.12-.09-.12-.27 0-.1.03-.18.04-.07.1-.11l.14-.06q.07-.03.16-.04l.11-.02.1-.02.1-.01.06-.03.04-.04q.02-.03.02-.07 0-.21-.28-.21-.3 0-.32.24h-.21q0-.22.16-.32.15-.1.38-.1.48 0 .48.34v.78q.02.02.07.02l.06-.01zm-.34-.28v-.21q-.05.04-.17.06t-.21.02q-.1.01-.18.07-.08.06-.08.16t.07.15q.07.04.18.04.19 0 .29-.09.1-.1.1-.2zm.6.45v-1.76h.21v1.76zm.76-1.76v.26h-.21v-.26zm-.21 1.76V43.7h.21v1.27zm.45-.4h.21q0 .13.1.19t.24.06q.31 0 .31-.2 0-.07-.06-.12-.06-.05-.16-.06l-.2-.05-.2-.06q-.09-.03-.15-.1-.06-.08-.06-.2 0-.18.14-.27.14-.1.33-.1.24 0 .37.1.14.09.16.3h-.21q0-.07-.05-.12-.05-.05-.11-.07-.06-.02-.14-.02-.11 0-.2.04-.07.04-.07.12 0 .06.04.1l.1.06.13.03.15.04.15.04q.07.02.13.06.07.04.1.1.03.07.03.16 0 .2-.16.3-.15.1-.38.1t-.38-.1q-.15-.1-.16-.33zm1.47-.36h.73q0-.15-.11-.26-.1-.1-.25-.1-.16 0-.26.1t-.11.26zm.73.36h.2q-.04.2-.18.32-.14.11-.36.11-.3 0-.45-.18-.15-.19-.16-.5 0-.28.17-.47.17-.19.43-.19.13 0 .23.05t.17.12q.06.08.1.18.05.1.06.2.02.09.02.19h-.96q0 .17.1.3.1.11.3.11.27 0 .33-.24zm.64-.23q0 .2.1.33.1.14.3.14.2 0 .29-.14.1-.14.1-.34t-.1-.34q-.1-.14-.3-.14-.2 0-.3.14-.09.14-.09.35zm.99-1.14v1.77h-.21v-.18q-.1.2-.41.2-.29 0-.44-.19-.15-.19-.15-.47 0-.3.15-.48.15-.19.43-.19.11 0 .23.05.12.05.18.15v-.66zm37.99 1.77v-1.76h.23v1.56h.94v.2zm1.56-1.76v.26h-.21v-.26zm-.21 1.76V43.7h.21v1.27zm.54 0v-1.76h.21v.66q.1-.2.41-.2.28 0 .44.19.15.19.15.48t-.15.47q-.15.19-.43.19-.12 0-.23-.05-.12-.05-.19-.15v.17zm.99-.65q0-.2-.1-.33t-.3-.14q-.2 0-.3.14-.09.14-.09.34t.1.35q.1.13.3.13.2 0 .3-.14.09-.14.09-.35zm.37.65v-1.28h.2v.27q.08-.16.19-.23t.28-.07v.23q-.24 0-.35.13-.11.13-.11.38v.57zm1.93-.17v.16q-.06.04-.15.04-.18 0-.18-.2-.16.2-.45.2-.19 0-.3-.09-.12-.09-.12-.27 0-.1.03-.18.04-.07.1-.11l.14-.06q.07-.03.16-.04l.11-.02.1-.02.1-.01.06-.03.04-.04q.02-.03.02-.07 0-.21-.28-.21-.3 0-.32.24h-.21q0-.22.16-.32.15-.1.38-.1.48 0 .48.34v.78q.02.02.07.02l.06-.01zm-.34-.28v-.21q-.05.04-.17.06l-.21.02q-.1.01-.18.07-.08.06-.08.16t.07.15q.07.04.18.04.19 0 .29-.09.1-.1.1-.2zm.58.45v-1.28h.2v.27q.08-.16.19-.23t.28-.07v.23q-.24 0-.35.13-.11.13-.11.38v.57zm1.09-1.76v.26h-.21v-.26zm-.21 1.76V43.7h.21v1.27zm.69-.76h.73q0-.15-.11-.26-.1-.1-.25-.1-.16 0-.26.1t-.11.26zm.73.36h.2q-.04.2-.18.32-.14.11-.36.11-.3 0-.45-.18-.15-.19-.16-.5 0-.28.17-.47.17-.19.43-.19.13 0 .23.05t.17.12q.06.08.1.18.05.1.06.2.02.09.02.19h-.96q0 .17.1.3.1.11.3.11.27 0 .33-.24zm.41 0h.21q0 .13.1.19t.24.06q.31 0 .31-.2 0-.07-.06-.12-.06-.05-.16-.06l-.2-.05-.2-.06q-.09-.03-.15-.1-.06-.08-.06-.2 0-.18.14-.27.14-.1.33-.1.24 0 .37.1.14.09.16.3h-.21q0-.07-.05-.12-.05-.05-.11-.07-.06-.02-.14-.02-.11 0-.2.04-.07.04-.07.12 0 .06.04.1l.1.06.13.03.15.04.15.04q.07.02.13.06.07.04.1.1.03.07.03.16 0 .2-.16.3-.15.1-.38.1t-.38-.1q-.15-.1-.16-.33zm-22.77-.85h-.22q-.04-.36-.44-.36-.17 0-.28.07-.11.07-.11.23 0 .09.06.15.06.05.16.08l.22.06.24.06.22.08q.1.05.16.15.06.1.06.24 0 .18-.1.3-.11.13-.26.18-.15.05-.32.05-.32 0-.53-.16-.2-.16-.2-.46h.22q0 .2.15.32.15.1.36.1.19 0 .32-.07.13-.08.13-.25 0-.13-.12-.2-.11-.08-.28-.11L43 44.1q-.17-.04-.28-.15-.12-.1-.12-.28 0-.25.19-.38.19-.14.45-.14.29 0 .46.14.18.14.19.42zm.53.49h.73q0-.15-.11-.26-.1-.1-.25-.1-.16 0-.26.1t-.11.26zm.73.36h.2q-.04.2-.18.32-.14.11-.36.11-.3 0-.45-.18-.15-.19-.16-.5 0-.28.17-.47.17-.19.43-.19.13 0 .23.05t.17.12.1.18q.05.1.06.2.02.09.02.19h-.96q0 .17.1.3.1.11.3.11.27 0 .33-.24zm.48.4v-1.28h.2v.27q.08-.16.19-.23t.28-.07v.23q-.24 0-.35.13-.11.13-.11.38v.57zm1.95-1.28l-.47 1.28h-.22l-.48-1.28h.24l.36 1.06.35-1.06zm.41-.48v.26h-.21v-.26zm-.21 1.76V43.7h.21v1.27zm1.62-.87h-.22q-.05-.25-.31-.25-.21 0-.3.14-.1.14-.1.35 0 .2.09.34.1.13.28.13.3 0 .35-.31h.22q-.04.24-.18.37-.15.13-.39.13-.28 0-.44-.18-.15-.18-.15-.48t.15-.49q.16-.19.45-.19.23 0 .38.11t.17.33zm.3.11h.73q0-.15-.11-.26-.1-.1-.25-.1-.16 0-.26.1t-.11.26zm.73.36h.2q-.04.2-.18.32-.14.11-.36.11-.3 0-.45-.18-.15-.19-.16-.5 0-.28.17-.47.17-.19.43-.19.13 0 .23.05t.17.12q.06.08.1.18.05.1.06.2.02.09.02.19h-.96q0 .17.1.3.1.11.3.11.27 0 .33-.24zM24.21 43.4v.65h.46q.38 0 .38-.33 0-.32-.38-.32zm-.23 1.57V43.2h.77q.26 0 .4.14.14.13.14.38t-.14.4q-.14.13-.4.12h-.54v.73zm1.63-.76h.73q0-.15-.11-.26-.1-.1-.25-.1-.16 0-.26.1t-.11.26zm.73.36h.2q-.04.2-.18.32-.14.11-.36.11-.3 0-.45-.18-.15-.19-.16-.5 0-.28.17-.47.17-.19.43-.19.13 0 .23.05t.17.12.1.18q.05.1.06.2.02.09.02.19h-.96q0 .17.1.3.1.11.3.11.27 0 .33-.24zm.65-.36h.73q0-.15-.11-.26-.1-.1-.25-.1-.16 0-.26.1t-.11.26zm.73.36h.2q-.04.2-.18.32-.14.11-.36.11-.3 0-.45-.18-.15-.19-.16-.5 0-.28.17-.47.17-.19.43-.19.13 0 .23.05t.17.12.1.18q.05.1.06.2.02.09.02.19h-.96q0 .17.1.3.1.11.3.11.27 0 .33-.24zm.48.4v-1.28h.2v.27q.08-.16.19-.23t.28-.07v.23q-.24 0-.35.13-.11.13-.11.38v.57zm.8-.59v-.2h.71v.2zm1.14-1.07v.38h.25v.19h-.25v.8q0 .06.03.08.03.02.13.02h.1v.19h-.17q-.17 0-.23-.05-.07-.06-.07-.23v-.81h-.22v-.19h.22v-.38zm.67.67q-.11.13-.11.35t.11.36q.11.12.28.12t.29-.12q.11-.13.11-.36t-.11-.35q-.12-.13-.29-.13t-.28.13zm-.34.35q0-.3.17-.48.16-.19.45-.19t.46.2q.16.18.16.47 0 .3-.16.48-.16.19-.46.19t-.45-.19q-.17-.19-.17-.48zm1.41.05v-.2h.71v.2zm.86 1.08v-1.77h.21v.18q.1-.2.41-.2.28 0 .44.19.15.19.15.48t-.15.47q-.15.2-.43.2-.12 0-.23-.06-.12-.05-.19-.15v.66zm.99-1.14q0-.2-.1-.33-.1-.14-.3-.14-.2 0-.3.14-.09.14-.09.34t.1.35q.1.14.3.14.2 0 .3-.15.09-.14.09-.35zm.53-.11h.73q0-.15-.11-.26-.1-.1-.25-.1-.16 0-.26.1t-.11.26zm.73.36h.2q-.04.2-.18.32-.14.11-.36.11-.3 0-.45-.18-.15-.19-.16-.5 0-.28.17-.47.17-.19.43-.19.13 0 .23.05t.17.12.1.18q.05.1.06.2.02.09.02.19h-.96q0 .17.1.3.1.11.3.11.27 0 .33-.24zm.64-.36h.73q0-.15-.11-.26-.1-.1-.25-.1-.16 0-.26.1t-.11.26zm.73.36h.2q-.04.2-.18.32-.14.11-.36.11-.3 0-.45-.18-.15-.19-.16-.5 0-.28.17-.47.17-.19.43-.19.13 0 .23.05t.17.12q.06.08.1.18.05.1.06.2.02.09.02.19h-.96q0 .17.1.3.1.11.3.11.27 0 .33-.24zm.49.4v-1.28h.2v.27q.08-.16.19-.23t.28-.07v.23q-.24 0-.35.13-.11.13-.11.38v.57zM17.44 48.1v-1.76h1.16v.2h-.93v.55h.81v.2h-.8v.81zm1.56-.76h.73q0-.15-.11-.26-.1-.1-.25-.1-.16 0-.26.1t-.11.26zm.73.36h.2q-.04.2-.18.32-.14.11-.36.11-.3 0-.45-.18-.15-.19-.16-.5 0-.28.17-.47.17-.19.43-.19.13 0 .23.05t.17.12q.06.08.1.18.05.1.06.2.02.09.02.19H19q0 .17.1.3.1.11.3.11.27 0 .33-.24zm.64-.23q0 .2.1.33.1.14.3.14.2 0 .29-.14.1-.14.1-.34t-.1-.34q-.1-.14-.3-.14-.2 0-.3.14-.09.14-.09.35zm.99-1.14v1.77h-.21v-.18q-.1.2-.41.2-.29 0-.44-.19-.15-.19-.15-.47 0-.3.15-.48.15-.19.43-.19.11 0 .23.05.12.05.18.15v-.66zm.38 1.01h.73q0-.15-.11-.26-.1-.1-.25-.1-.16 0-.26.1t-.11.26zm.73.36h.2q-.04.2-.18.32-.14.11-.36.11-.3 0-.45-.18-.15-.19-.16-.5 0-.28.17-.47.17-.19.43-.19.13 0 .23.05t.17.12q.06.08.1.18.05.1.06.2.02.09.02.19h-.96q0 .17.1.3.1.11.3.11.27 0 .33-.24zm.49.4v-1.28h.2v.27q.08-.16.19-.23t.28-.07v.23q-.24 0-.35.13-.11.13-.11.38v.57zm1.93-.17v.16q-.06.04-.15.04-.18 0-.18-.2-.16.2-.45.2-.19 0-.3-.09-.12-.09-.12-.27 0-.1.03-.18.04-.07.1-.11l.14-.06q.07-.03.16-.04l.11-.02.1-.02.1-.01.06-.03.04-.04q.02-.03.02-.07 0-.21-.28-.21-.3 0-.32.24h-.21q0-.22.16-.32.15-.1.38-.1.48 0 .48.34v.78q.02.02.07.02l.06-.01zm-.34-.28v-.21q-.05.04-.17.06t-.21.02q-.1.01-.18.07-.08.06-.08.16t.07.15q.07.04.18.04.19 0 .29-.09.1-.1.1-.2zm.88-1.21v.38h.25v.19h-.25v.8q0 .06.03.08.03.02.13.02h.1v.19h-.17q-.17 0-.23-.05-.07-.06-.07-.23v-.81H25v-.19h.22v-.38zm.61-.11v.26h-.21v-.26zm-.21 1.76v-1.27h.21v1.27zm.81-.98q-.11.13-.11.35t.11.36q.11.12.28.12t.29-.12q.11-.13.11-.36t-.11-.35q-.12-.13-.29-.13t-.28.13zm-.34.35q0-.3.17-.48t.45-.19q.3 0 .46.2.16.18.16.47 0 .3-.16.48-.16.19-.46.19-.29 0-.45-.19t-.17-.48zm1.44.64v-1.28h.2v.2q.13-.23.42-.23.23 0 .34.13.1.12.1.34v.84h-.21v-.86q0-.12-.07-.2-.07-.06-.2-.06-.18 0-.27.11-.1.1-.1.29v.72zm21.16 0v-1.76h.32l.56 1.48.55-1.48h.33v1.76h-.23v-1.47l-.55 1.47h-.2l-.55-1.47v1.47zm3.07-1.28v1.28h-.2v-.2q-.13.23-.42.23-.23 0-.34-.12-.1-.13-.1-.35v-.84h.21v.86q0 .12.07.2.07.06.2.06.18 0 .27-.1.1-.12.1-.3v-.72zm.33 1.28v-1.76h.21v1.76zm.83-1.66v.38h.25v.19h-.25v.8q0 .06.03.08.03.02.13.02h.1v.19h-.17q-.17 0-.23-.05-.07-.06-.07-.23v-.81h-.22v-.19h.22v-.38zm.61-.11v.26h-.21v-.26zm-.21 1.76v-1.27h.21v1.27zm.5-.58v-.2h.71v.2zm2.37-.65h-.23q-.04-.18-.17-.28-.14-.1-.33-.1-.3 0-.45.21-.15.2-.15.5 0 .33.15.54.15.2.45.2.23 0 .36-.13.14-.15.15-.37h.24q-.04.33-.23.52-.2.18-.54.18-.39 0-.6-.25-.21-.26-.21-.66t.22-.67q.22-.26.61-.26.29 0 .49.15t.24.42zm.29 1.24v-1.76h.21v1.76zm.8-.99q-.11.13-.11.35t.11.36q.11.12.28.12.17 0 .29-.12t.11-.36-.11-.35q-.12-.13-.29-.13-.17 0-.28.13zm-.34.35q0-.3.17-.48.16-.19.45-.19.3 0 .46.2t.16.47q0 .3-.16.48t-.46.19q-.29 0-.45-.19-.17-.19-.17-.48zm2.5-.64v1.28h-.2v-.2q-.13.23-.42.23-.23 0-.34-.12-.1-.13-.1-.35v-.84h.21v.86q0 .12.07.2.07.06.2.06.18 0 .27-.1.1-.12.1-.3v-.72zm.47.65q0 .2.1.33.1.14.3.14.2 0 .29-.14.1-.14.1-.34t-.1-.34q-.1-.14-.3-.14-.2 0-.3.14-.09.14-.09.35zm.99-1.14v1.77h-.21v-.18q-.1.2-.41.2-.29 0-.44-.19-.15-.19-.15-.47 0-.3.15-.48.15-.19.43-.19.11 0 .23.05.12.05.18.15v-.66zm17.35-24.16v-1.76h.23v1.76zm.64 0v-1.28h.2v.2q.13-.23.42-.23.23 0 .34.13.1.12.1.34v.84h-.21v-.86q0-.12-.07-.2-.07-.06-.2-.06-.18 0-.27.11-.1.1-.1.29v.72zm1.53-.62q0 .2.1.33.1.14.3.14.2 0 .29-.14.1-.14.1-.34t-.1-.34q-.1-.14-.3-.14-.2 0-.3.14-.09.14-.09.35zm.99-1.14v1.77h-.21V22q-.1.2-.41.2-.29 0-.44-.19-.15-.19-.15-.47 0-.3.15-.48.15-.19.43-.19.11 0 .23.05.12.05.18.15v-.66zm1.28.49v1.28h-.2v-.2q-.13.23-.42.23-.23 0-.34-.12-.1-.13-.1-.35v-.84h.21v.86q0 .12.07.2.07.06.2.06.18 0 .27-.1.1-.12.1-.3v-.72zm.24.87h.21q0 .13.1.19t.24.06q.31 0 .31-.2 0-.07-.06-.12-.06-.05-.16-.06l-.2-.05-.2-.06q-.09-.03-.15-.1-.06-.08-.06-.2 0-.18.14-.27.14-.1.33-.1.24 0 .37.1.14.09.16.3h-.21q0-.07-.05-.12-.05-.05-.11-.07-.06-.02-.14-.02-.11 0-.2.04-.07.04-.07.12 0 .06.04.1l.1.06.13.03.15.04.15.04q.07.02.13.06.07.04.1.1.03.07.03.16 0 .21-.16.3-.15.1-.38.1t-.38-.1q-.15-.1-.16-.33zm1.6-1.26v.38h.25v.19h-.25v.8q0 .06.03.08.03.02.13.02h.1v.19h-.17q-.17 0-.23-.05-.07-.06-.07-.23v-.81h-.22v-.19h.22v-.38zm.39 1.66v-1.28h.2v.27q.08-.16.19-.23t.28-.07v.23q-.24 0-.35.13-.11.13-.11.38v.57zm1.96-1.27l-.56 1.45q-.07.19-.15.26-.08.08-.22.08-.08 0-.14-.02v-.2l.12.03q.12 0 .17-.11l.1-.22-.52-1.27h.24l.37 1.04h.01l.36-1.04zm1.14-.29v.65h.46q.38 0 .38-.33 0-.32-.38-.32zM88 22.18V20.4h.77q.26 0 .4.14.14.13.14.38t-.14.4q-.14.13-.4.12h-.54v.73zm1.6-.01v-1.28h.2v.27q.08-.16.19-.23t.28-.07v.23q-.24 0-.35.13-.11.13-.11.38v.57zm1.09-.99q-.11.13-.11.35t.11.36.28.12q.17 0 .29-.12.11-.13.11-.36t-.11-.35q-.12-.13-.29-.13-.17 0-.28.13zm-.34.35q0-.3.17-.48t.45-.19q.3 0 .46.2.16.18.16.47 0 .3-.16.48-.16.19-.46.19-.29 0-.45-.19-.17-.19-.17-.48zm1.67-1.12v.26h-.21v-.26zm0 .49v1.44q0 .32-.3.32h-.11v-.19h.08q.07 0 .1-.03.02-.04.02-.14v-1.4zm.48.51h.73q0-.15-.11-.26-.1-.1-.25-.1-.16 0-.26.1t-.11.26zm.73.36h.2q-.04.2-.18.32-.14.11-.36.11-.3 0-.45-.18-.15-.19-.16-.5 0-.28.17-.47.17-.19.43-.19.13 0 .23.05t.17.12.1.18q.05.1.06.2.02.09.02.19h-.96q0 .17.1.3.1.11.3.11.27 0 .33-.24zm1.57-.46h-.22q-.05-.25-.31-.25-.21 0-.3.14-.1.14-.1.35 0 .2.09.34.1.13.28.13.3 0 .35-.31h.22q-.04.24-.18.37-.15.13-.39.13-.28 0-.44-.18-.15-.18-.15-.48t.15-.49q.16-.19.45-.19.23 0 .38.11t.17.33zm.45-.8v.38h.25v.19h-.25v.8q0 .06.03.08.03.02.13.02h.1v.19h-.17q-.17 0-.23-.05-.07-.06-.07-.23v-.81h-.22v-.19h.22v-.38zm.31 1.26h.21q0 .13.1.19t.24.06q.31 0 .31-.2 0-.07-.06-.12-.06-.05-.16-.06l-.2-.05-.2-.06q-.09-.03-.15-.1-.06-.08-.06-.2 0-.18.14-.27.14-.1.33-.1.24 0 .37.1.14.09.16.3h-.21q0-.07-.05-.12-.05-.05-.11-.07-.06-.02-.14-.02-.11 0-.2.04-.07.04-.07.12 0 .06.04.1l.1.06.13.03.15.04.15.04q.07.02.13.06.07.04.1.1.03.07.03.16 0 .21-.16.3-.15.1-.38.1t-.38-.1q-.15-.1-.16-.33zm-17.11 3.6v-1.76h.83q.25 0 .4.12.14.13.14.34 0 .17-.08.29-.08.11-.23.16.14.03.2.12.05.09.06.24l.01.18q0 .08.03.17.02.09.07.14h-.26q-.04-.04-.05-.21 0-.17-.02-.22l-.03-.13q0-.04-.04-.1-.03-.05-.09-.07-.05-.02-.13-.02h-.58v.75zm.23-.95h.5q.18 0 .29-.07.11-.07.11-.24 0-.14-.08-.22-.07-.09-.23-.09h-.59zm1.67.19h.73q0-.15-.11-.26-.1-.1-.25-.1-.16 0-.26.1t-.11.26zm.73.36h.2q-.04.2-.18.32-.14.11-.36.11-.3 0-.45-.18-.15-.19-.16-.5 0-.28.17-.47.17-.19.43-.19.13 0 .23.05t.17.12q.06.08.1.18.05.1.06.2.02.09.02.19h-.96q0 .17.1.3.1.12.3.12.27 0 .33-.25zm.41 0h.21q0 .13.1.19t.24.06q.31 0 .31-.2 0-.07-.06-.12-.06-.05-.16-.06l-.2-.05-.2-.06q-.09-.03-.15-.1-.06-.08-.06-.2 0-.18.14-.27.14-.1.33-.1.24 0 .37.1.14.09.16.3h-.21q0-.07-.05-.12-.05-.05-.11-.07-.06-.02-.14-.02-.11 0-.2.04-.07.04-.07.12 0 .06.04.1l.1.06.13.03.15.04.15.04q.07.02.13.06.07.04.1.1.03.07.03.16 0 .2-.16.3-.15.1-.38.1t-.38-.1q-.15-.1-.16-.33zm1.47-.36h.73q0-.15-.11-.26-.1-.1-.25-.1-.16 0-.26.1t-.11.26zm.73.36h.2q-.04.2-.18.32-.14.11-.36.11-.3 0-.45-.18-.15-.19-.16-.5 0-.28.17-.47.17-.19.43-.19.13 0 .23.05t.17.12q.06.08.1.18.05.1.06.2.02.09.02.19h-.96q0 .17.1.3.1.12.3.12.27 0 .33-.25zm1.62.23v.16q-.06.04-.15.04-.18 0-.18-.2-.16.2-.45.2-.19 0-.3-.09-.12-.09-.12-.27 0-.1.03-.18.04-.07.1-.11l.14-.06q.07-.03.16-.04l.11-.02.1-.02.1-.01.06-.03.04-.04q.02-.03.02-.07 0-.21-.28-.21-.3 0-.32.24h-.21q0-.22.16-.32.15-.1.38-.1.48 0 .48.34v.78q.02.02.07.02l.06-.01zm-.34-.28v-.21q-.05.04-.17.06l-.21.02q-.1.01-.18.07-.08.06-.08.16t.07.15q.07.04.18.04.19 0 .29-.09.1-.09.1-.2zm.57.45v-1.28h.2v.27q.08-.16.19-.23t.28-.07v.23q-.24 0-.35.13-.11.13-.11.38v.57zm1.92-.87h-.22q-.05-.25-.31-.25-.21 0-.3.14-.1.14-.1.35 0 .2.09.34.1.13.28.13.3 0 .35-.31h.22q-.04.24-.18.37-.15.13-.39.13-.28 0-.44-.18-.15-.18-.15-.48t.15-.49q.16-.19.45-.19.23 0 .38.11t.17.33zm.15.87v-1.76h.21v.67q.05-.1.17-.16.11-.06.24-.06.23 0 .34.13.1.12.1.34v.84h-.21v-.86q0-.12-.07-.2-.07-.06-.2-.06-.18 0-.27.11-.1.1-.1.29v.72zm2.33-1.57v.65h.46q.38 0 .38-.33 0-.32-.38-.32zm-.23 1.57V23.6h.77q.26 0 .4.14.14.13.14.38t-.14.4q-.14.13-.4.12h-.54v.73zm1.6 0v-1.28h.2v.27q.08-.16.19-.23t.28-.07v.23q-.24 0-.35.13-.11.13-.11.38v.57zm1.09-.99q-.11.13-.11.35 0 .23.11.36.11.12.28.12t.29-.12q.11-.13.11-.36 0-.22-.11-.35-.12-.13-.29-.13t-.28.13zm-.34.35q0-.3.17-.48.16-.19.45-.19.3 0 .46.2.16.18.16.47 0 .3-.16.48-.16.19-.46.19-.29 0-.45-.19-.17-.19-.17-.48zm1.67-1.12v.26h-.21v-.26zm0 .49v1.44q0 .32-.3.32h-.11v-.19h.08q.07 0 .1-.03.02-.04.02-.14v-1.4zm.48.51h.73q0-.15-.11-.26-.1-.1-.25-.1-.16 0-.26.1t-.11.26zm.73.36h.2q-.04.2-.18.32-.14.11-.36.11-.3 0-.45-.18-.15-.19-.16-.5 0-.28.17-.47.17-.19.43-.19.13 0 .23.05t.17.12q.06.08.1.18.05.1.06.2.02.09.02.19h-.96q0 .17.1.3.1.12.3.12.27 0 .33-.25zm1.57-.47h-.22q-.05-.25-.31-.25-.21 0-.3.14-.1.14-.1.35 0 .2.09.34.1.13.28.13.3 0 .35-.31h.22q-.04.24-.18.37-.15.13-.39.13-.28 0-.44-.18-.15-.18-.15-.48t.15-.49q.16-.19.45-.19.23 0 .38.11t.17.33zm.45-.79v.38h.25v.19h-.25v.8q0 .06.03.08.03.02.13.02h.1v.19h-.17q-.17 0-.23-.05-.07-.06-.07-.23v-.81h-.22v-.19h.22v-.38zm.31 1.26h.21q0 .13.1.19t.24.06q.31 0 .31-.2 0-.07-.06-.12-.06-.05-.16-.06l-.2-.05-.2-.06q-.09-.03-.15-.1-.06-.08-.06-.2 0-.18.14-.27.14-.1.33-.1.24 0 .37.1.14.09.16.3h-.21q0-.07-.05-.12-.05-.05-.11-.07-.06-.02-.14-.02-.11 0-.2.04-.07.04-.07.12 0 .06.04.1l.1.06.13.03.15.04.15.04q.07.02.13.06.07.04.1.1.03.07.03.16 0 .2-.16.3-.15.1-.38.1t-.38-.1q-.15-.1-.16-.33z" aria-label="CentralisedLibrariesServicePeer-to-peer FederationMulti-Cloud Industry Projects Research Projects"/>
  </g>
</svg>
