<svg xmlns="http://www.w3.org/2000/svg" width="2137.35" height="1367.87" viewBox="0 0 2003.76 1282.38">
  <defs>
    <marker id="g" orient="auto" overflow="visible">
      <path fill-rule="evenodd" stroke="#000" stroke-linejoin="round" stroke-width=".38" d="M-5.23-2.42L1.32-.01-5.23 2.4a4.1 4.1 0 0 0 0-4.82z"/>
    </marker>
    <marker id="f" orient="auto" overflow="visible">
      <path fill-rule="evenodd" stroke="#000" stroke-linejoin="round" stroke-width=".38" d="M-5.23-2.42L1.32-.01-5.23 2.4a4.1 4.1 0 0 0 0-4.82z"/>
    </marker>
    <marker id="e" orient="auto" overflow="visible">
      <path fill-rule="evenodd" stroke="#000" stroke-linejoin="round" stroke-width=".38" d="M-5.23-2.42L1.32-.01-5.23 2.4a4.1 4.1 0 0 0 0-4.82z"/>
    </marker>
    <marker id="b" orient="auto" overflow="visible">
      <path fill-rule="evenodd" stroke="#000" stroke-linejoin="round" stroke-width=".69" d="M-10.69-4.44L1.33-.02-10.7 4.4a7.52 7.52 0 0 0 0-8.84z"/>
    </marker>
    <clipPath id="a">
      <path d="M0 0h960v540H0V0z"/>
    </clipPath>
    <clipPath id="c">
      <path d="M213 43h27V17h-27v26z"/>
    </clipPath>
    <clipPath id="d">
      <path d="M0 0h240v120H0V0z"/>
    </clipPath>
  </defs>
  <path fill="none" stroke="#000" stroke-width="10" d="M1106.33 1119.73H887.56m606.74-97.54l116.77-184.98"/>
  <path d="M1382.57 673.9c-12.3-4.85-28.52-7.52-45.68-7.52s-33.38 2.67-45.68 7.51c-14.09 5.55-21.85 13.63-21.85 22.76V802.7c0 9.13 7.76 17.22 21.85 22.76 12.3 4.85 28.52 7.52 45.68 7.52s33.39-2.67 45.69-7.52c14.08-5.54 21.84-13.63 21.84-22.76V696.65c0-9.13-7.76-17.21-21.84-22.76zm-86.92 11.28c10.92-4.3 25.57-6.67 41.24-6.67 15.68 0 30.32 2.37 41.24 6.67 10.45 4.11 14.16 8.75 14.16 11.47 0 2.72-3.7 7.36-14.16 11.48-10.92 4.3-25.56 6.67-41.24 6.67-15.67 0-30.32-2.37-41.24-6.67-10.45-4.12-14.16-8.76-14.16-11.48 0-2.72 3.71-7.36 14.16-11.47zm96.64 117.52c0 2.72-3.7 7.36-14.16 11.48-10.92 4.3-25.56 6.67-41.24 6.67-15.67 0-30.32-2.37-41.24-6.67-10.45-4.12-14.16-8.76-14.16-11.48v-15.9a58.69 58.69 0 0 0 9.72 4.84c12.3 4.84 28.52 7.5 45.68 7.5s33.39-2.66 45.69-7.5a57.5 57.5 0 0 0 9.71-4.85v15.91zm0-33.83c0 2.72-3.7 7.36-14.16 11.48-10.92 4.3-25.56 6.67-41.24 6.67-15.67 0-30.32-2.37-41.24-6.67-10.45-4.12-14.16-8.76-14.16-11.48v-18.16a57.92 57.92 0 0 0 9.72 4.84c12.3 4.84 28.52 7.51 45.68 7.51s33.39-2.67 45.69-7.51a57.52 57.52 0 0 0 9.71-4.84v18.16zm-14.16-24.6c-10.92 4.3-25.56 6.66-41.24 6.66-15.67 0-30.32-2.37-41.24-6.67-10.45-4.11-14.16-8.75-14.16-11.47v-18.22c2.8 1.77 6.04 3.4 9.72 4.85 12.3 4.84 28.52 7.5 45.68 7.5s33.39-2.66 45.69-7.5a57.5 57.5 0 0 0 9.71-4.85v18.22c0 2.72-3.7 7.36-14.16 11.47z"/>
  <path fill="none" stroke="#000" stroke-width="10" d="M1344.97 1047.92V829.16"/>
  <path d="M1666.13 684.62c-12.3-4.85-28.52-7.51-45.68-7.51s-33.39 2.66-45.69 7.5c-14.08 5.56-21.84 13.64-21.84 22.77v106.05c0 9.13 7.76 17.21 21.84 22.76 12.3 4.85 28.53 7.52 45.69 7.52 17.16 0 33.38-2.67 45.68-7.52 14.09-5.55 21.85-13.63 21.85-22.76V707.38c0-9.13-7.76-17.21-21.85-22.76zm-86.92 11.29c10.92-4.3 25.56-6.67 41.24-6.67 15.67 0 30.32 2.37 41.24 6.67 10.45 4.11 14.16 8.75 14.16 11.47 0 2.72-3.71 7.36-14.16 11.48-10.92 4.3-25.57 6.67-41.24 6.67-15.68 0-30.32-2.37-41.24-6.67-10.45-4.12-14.16-8.76-14.16-11.48 0-2.72 3.7-7.36 14.16-11.47zm96.64 117.52c0 2.72-3.71 7.36-14.16 11.48-10.92 4.3-25.57 6.66-41.24 6.66-15.68 0-30.32-2.36-41.24-6.66-10.45-4.12-14.16-8.76-14.16-11.48v-15.9a58.18 58.18 0 0 0 9.71 4.83c12.3 4.85 28.53 7.52 45.69 7.52 17.16 0 33.38-2.67 45.68-7.52a57.5 57.5 0 0 0 9.72-4.84v15.91zm0-33.83c0 2.72-3.71 7.36-14.16 11.48-10.92 4.3-25.57 6.67-41.24 6.67-15.68 0-30.32-2.37-41.24-6.67-10.45-4.12-14.16-8.76-14.16-11.48v-18.16a58.18 58.18 0 0 0 9.71 4.84c12.3 4.84 28.53 7.51 45.69 7.51 17.16 0 33.38-2.67 45.68-7.51a57.52 57.52 0 0 0 9.72-4.84v18.16zm-14.16-24.6c-10.92 4.3-25.57 6.66-41.24 6.66-15.68 0-30.32-2.37-41.24-6.67-10.45-4.12-14.16-8.75-14.16-11.47V725.3a56.69 56.69 0 0 0 9.71 4.84c12.3 4.85 28.53 7.52 45.69 7.52 17.16 0 33.38-2.67 45.68-7.52a57.5 57.5 0 0 0 9.72-4.84v18.22c0 2.72-3.71 7.35-14.16 11.47z"/>
  <g fill="#fff" stroke-width="6.63" clip-path="url(#a)" transform="matrix(.7537 0 0 -.7537 967.01 1312.85)">
    <path d="M96.36 359.83c-10.94 54.83 45.38 105.33 125.8 112.78 32.58 3.03 65.7-1.5 94.08-12.83 30.07 38.65 100.32 53.33 156.92 32.8 9.9-3.58 18.98-8.13 26.97-13.5 23.41 32.03 80.44 45.05 127.38 29.07 13-4.42 24.33-10.82 33.13-18.7 37.74 30.3 104.43 34.04 148.96 8.36 18.71-10.8 31.32-25.68 35.67-42.1 61.84-11.51 98.32-55.1 81.48-97.35a64.6 64.6 0 0 0-5.31-10.41c49.6-44.03 37.45-107.14-27.12-140.96-20.1-10.53-43.84-17.34-68.93-19.79-.56-47.37-57.36-85.46-126.88-85.08-23.23.13-45.95 4.63-65.65 13.01-23.52-53.1-105.53-83.12-183.2-67.04C417.13 54.83 389 69.08 370.1 88.4c-79.51-32.7-182.72-15.11-230.51 39.3-.6.68-1.2 1.37-1.78 2.07-52.04-4.16-99.17 21.17-105.28 56.56-3.26 18.86 5.87 37.75 24.96 51.61-45.06 18.1-60.2 57.8-33.8 88.69 15.22 17.82 41.91 29.6 71.88 31.72l.8 1.47z"/>
    <path stroke="#000" stroke-width="6.74" d="M96.36 359.83c-10.94 54.83 45.38 105.33 125.8 112.78 32.58 3.03 65.7-1.5 94.08-12.83 30.07 38.65 100.32 53.33 156.92 32.8a124.4 124.4 0 0 0 26.97-13.5c23.41 32.03 80.44 45.05 127.38 29.07 13-4.42 24.33-10.82 33.13-18.7 37.74 30.3 104.43 34.04 148.96 8.36 18.71-10.8 31.32-25.68 35.67-42.1 61.84-11.51 98.32-55.1 81.48-97.35a64.6 64.6 0 0 0-5.31-10.41c49.6-44.03 37.45-107.14-27.12-140.96-20.1-10.53-43.84-17.34-68.93-19.79-.56-47.37-57.36-85.46-126.88-85.08-23.23.13-45.95 4.63-65.65 13.01-23.52-53.1-105.53-83.12-183.2-67.04C417.13 54.83 389 69.08 370.1 88.4c-79.51-32.7-182.72-15.11-230.51 39.3-.6.68-1.2 1.37-1.78 2.07-52.04-4.16-99.17 21.17-105.28 56.56-3.26 18.86 5.87 37.75 24.96 51.61-45.06 18.1-60.2 57.8-33.8 88.69 15.22 17.82 43.02 29.6 72.98 31.72z"/>
    <path stroke="#000" stroke-width="6.74" d="M112.69 229.24c-19.24-1.03-38.47 2-55.12 8.69M161.98 134c-7.73-2.1-15.84-3.5-24.11-4.15m232.18-41.4a95.51 95.51 0 0 0-14.53 18.96m283.23 28.74a73.05 73.05 0 0 0-5.8-20.82m121.7 149.97c43.62-14.48 71.14-44.74 70.75-77.8m96.8 161.6c-7.07-11.26-17.85-21.24-31.5-29.17m-45.82 137.15a49.62 49.62 0 0 0 1.66-13.78m-202.31 28.39a74.71 74.71 0 0 0 16.13 17.57m-167.08-24.22a53 53 0 0 0 7.82 15.15m-184.96-20.3a154.96 154.96 0 0 0 28.28-14.7M101.3 344.36a73.82 73.82 0 0 0-4.94 15.46"/>
  </g>
  <path fill="none" stroke="#000" stroke-width="5" marker-end="url(#b)" d="M-758.92 334.4C537.1 297.62-258.78 217.92 691.28 206.98" transform="translate(1070.97 802.1)"/>
  <path d="M421.56 1068.37l-57.38 15.3v68.85l57.38 15.3 57.37-15.3v-68.85zm0 5.85l49.78 13.27-49.78 13.28-49.79-13.28zm-49.79 20.92l45.96 12.26v51.74l-45.91-12.25zm99.57 0l-.04 51.75-45.92 12.25v-51.74l15.3-4.08 15.3-4.08z"/>
  <path fill="#fff" d="M394.7 1153.03l-22.9-6.11-.03-25.87c-.02-19.1 0-25.88.13-25.88.14 0 43.2 11.45 45.16 12.01l.75.21v25.82c0 14.2-.04 25.85-.1 25.88-.06.03-10.41-2.7-23-6.06zm30.66 6.05c-.05-.04-.08-11.66-.08-25.8 0-20.41.03-25.76.18-25.86.16-.12 45.52-12.25 45.79-12.25.16 0 .13 51.64-.03 51.74-.07.05-10.2 2.77-22.5 6.05l-22.82 6.08c-.25.07-.5.09-.54.04zm-28.5-64.85l-24.7-6.6c-.33-.1-.34-.1-.06-.22.15-.07 11.35-3.08 24.88-6.68l24.6-6.55 24.64 6.57c13.55 3.6 24.72 6.61 24.83 6.67.14.08-.05.19-.57.33-3.36.96-48.8 13.02-49.02 13-.15 0-11.22-2.94-24.6-6.52z"/>
  <path d="M1878.08 616.13h-43.68c0-47.54-23.77-24.94-23.77-66.6 0-15.04 9.85-23.2 22.49-23.2 18.68 0 31.68 17.83 13.99 51.18-5.81 10.96 6.19 13.56 19.08 16.53 12.88 2.97 11.9 9.77 11.9 22.1zm-213.21-22.09c12.89-2.97 24.89-5.57 19.08-16.53-17.7-33.35-4.7-51.18 13.99-51.18 12.64 0 22.49 8.16 22.49 23.2 0 41.66-23.77 19.06-23.77 66.6h-43.69c0-12.32-1-19.12 11.89-22.09zm142.26-5.7c-16.22-3.73-31.3-7-24-20.79 22.25-41.95 5.9-64.38-17.6-64.38-23.96 0-39.9 23.3-17.6 64.38 7.53 13.87-8.13 17.14-24 20.8-16.2 3.73-14.95 12.28-14.95 27.79h113.09c0-15.51 1.25-24.06-14.96-27.8z"/>
  <g clip-path="url(#c)" transform="matrix(6.24023 0 0 -6.24023 -1201.19 1303.73)">
    <g clip-path="url(#d)">
      <path d="M236.43 22.08c-3.34.74-7.4 2.64-6.2 5.12.76-1.22 3.14-1.92 5-.87-5.34 1.3 2.62 10.26-4.36 15.28a7.58 7.58 0 0 1-8.74 0c-6.98-5.02.98-13.98-4.36-15.28 1.86-1.05 4.24-.32 5 .87 1.2-2.48-2.86-4.38-6.2-5.12-3.86-.85-3.56-3.3-3.56-5.08h26.98c0 1.79.3 4.23-3.56 5.08z"/>
    </g>
  </g>
  <path d="M684.25 1104.32a7.22 7.22 0 0 1 7.21-7.22h192.45a7.22 7.22 0 0 1 7.22 7.22v28.86a7.22 7.22 0 0 1-7.22 7.22H691.46a7.22 7.22 0 0 1-7.21-7.22v-28.86z"/>
  <path d="M698.68 1140.7a5.1 5.1 0 0 1 5.1-5.11h9.04a5.1 5.1 0 0 1 5.1 5.1v4.23a5.1 5.1 0 0 1-5.1 5.1h-9.03a5.1 5.1 0 0 1-5.11-5.1v-4.23zm158.77 0a5.1 5.1 0 0 1 5.1-5.11h4.23a5.1 5.1 0 0 1 5.1 5.1v4.23a5.1 5.1 0 0 1-5.1 5.1h-4.23a5.1 5.1 0 0 1-5.1-5.1v-4.23z"/>
  <path fill="#fff" d="M799.71 1111.53a4.82 4.82 0 1 1 9.63 0 4.82 4.82 0 0 1-9.63 0zm33.74 0a4.81 4.81 0 1 1 9.62 0 4.81 4.81 0 0 1-9.62 0zm16.87 0a4.81 4.81 0 1 1 9.62 0 4.81 4.81 0 0 1-9.62 0zm-156.45 14.44H881.5v4.8H693.87v-4.8zm173.31-14.44a4.81 4.81 0 1 1 9.62 0 4.81 4.81 0 0 1-9.62 0zm-50.6 0a4.81 4.81 0 1 1 9.62 0 4.81 4.81 0 0 1-9.62 0z"/>
  <path fill="#4d4d4d" d="M1429.87 816.5h-31.46v-5.6h31.46v5.6zm0-10.37h-31.46v-5.61h31.46v5.61zm0-10.36h-31.46v-5.61h31.46v5.61zm-7.8-31.74v16.05h16.07v46.1h-47.81v-62.15h31.73m4.68-7.5h-43.9v77.15h62.79V775.4l-18.89-18.86z"/>
  <path fill="#fff" d="M1390.31 795.19v-31.12h31.99v15.7h15.7v46.53h-47.69v-31.1zm39.54 18.6v-2.6h-31.4v5.23h31.4v-2.62zm0-10.46v-2.63h-31.4v5.24h31.4v-2.61zm0-10.47v-2.62h-31.4v5.24h31.4v-2.62z"/>
  <path d="M437.12 1190.15h-31.45v-5.62h31.45v5.62zm0-10.38h-31.45v-5.62h31.45v5.62zm0-10.36h-31.45v-5.62h31.45v5.62zm-7.8-31.75v16.06h16.07v46.1h-47.81v-62.16h31.73m4.69-7.49h-43.91v77.14h62.79v-58.27L434 1130.17z"/>
  <path fill="#fff" d="M397.56 1168.82v-31.11h31.98v15.7h15.71v46.53h-47.69v-31.12zm39.54 18.61v-2.61h-31.4v5.23h31.4v-2.62zm0-10.47v-2.61h-31.4v5.23h31.4v-2.62zm0-10.46v-2.62h-31.4v5.22h31.4v-2.61z"/>
  <path d="M395.42 1134.28l7.34 8.3-.45 6.75-10.49-11.87 3.6-3.18zm-13.55 8.03l19.58-17.31c-7.17-8.12-12.65-3.98-17.7-9.7-3.87-4.38-1.95-7.72-4.37-10.7l-15.05 13.3c2.69 2.8 6.19 1.23 10.1 5.65 5.06 5.73.24 10.62 7.44 18.76zm-8.53-24.46l2.16-1.91 7.15 8.08-2.16 1.91-7.15-8.08z"/>
  <path fill="#999" d="M1456.76 839.3h-31.46v-5.63h31.46v5.62zm0-10.38h-31.46v-5.62h31.45v5.62zm0-10.36h-31.46v-5.62h31.45v5.62zm-7.81-31.75v16.05h16.08v46.1h-47.82v-62.15h31.74m4.68-7.49h-43.9v77.14h62.78v-58.28l-18.88-18.86z"/>
  <path fill="#fff" d="M1417.19 817.97v-31.12h31.99v15.71h15.7v46.52h-47.69v-31.11zm39.55 18.61v-2.62h-31.4v5.24h31.4v-2.62zm0-10.47v-2.61h-31.4v5.24h31.4v-2.64zm0-10.47v-2.61h-31.4v5.23h31.4v-2.62z"/>
  <path fill="#4d4d4d" d="M1711.12 854h-31.45v-5.6h31.46v5.6zm0-10.37h-31.46v-5.61h31.46v5.61zm0-10.36h-31.46v-5.61h31.46v5.61zm-7.8-31.74v16.05h16.07v46.1h-47.81v-62.14h31.73m4.68-7.5h-43.9v77.15h62.79V812.9l-18.89-18.86z"/>
  <path fill="#fff" d="M1671.56 832.69v-31.12h31.99v15.7h15.7v46.53h-47.69v-31.1zm39.54 18.6v-2.61h-31.4v5.23h31.4v-2.61zm0-10.46v-2.63h-31.4v5.24h31.4v-2.62zm0-10.47v-2.62h-31.4v5.24h31.4v-2.62z"/>
  <path fill="#999" d="M1738.01 876.8h-31.46v-5.63h31.46v5.62zm0-10.38h-31.46v-5.62H1738v5.62zm0-10.36h-31.46v-5.62H1738v5.62zm-7.81-31.75v16.05h16.08v46.1h-47.82v-62.14h31.74m4.68-7.49h-43.9v77.14h62.78v-58.29l-18.88-18.86z"/>
  <path fill="#fff" d="M1698.44 855.47v-31.12h31.99v15.71h15.7v46.52h-47.69v-31.11zm39.55 18.61v-2.62h-31.4v5.24h31.4v-2.62zm0-10.47V861h-31.4v5.24h31.4v-2.64zm0-10.47v-2.61h-31.4v5.23h31.4v-2.62z"/>
  <path d="M1916.44 912.53c-12.3-4.84-28.52-7.51-45.69-7.51-17.16 0-33.38 2.67-45.68 7.51-14.09 5.55-21.84 13.63-21.84 22.76v106.05c0 9.13 7.75 17.22 21.84 22.76 12.3 4.85 28.52 7.52 45.68 7.52 17.17 0 33.39-2.67 45.69-7.52 14.09-5.54 21.84-13.63 21.84-22.76V935.3c0-9.13-7.75-17.21-21.84-22.76zm-86.92 11.29c10.91-4.3 25.56-6.67 41.23-6.67 15.68 0 30.33 2.37 41.24 6.67 10.45 4.11 14.16 8.75 14.16 11.47 0 2.72-3.7 7.36-14.16 11.48-10.91 4.3-25.56 6.67-41.24 6.67-15.67 0-30.32-2.37-41.23-6.67-10.46-4.12-14.16-8.76-14.16-11.48 0-2.72 3.7-7.36 14.16-11.47zm96.63 117.52c0 2.72-3.7 7.36-14.16 11.48-10.91 4.3-25.56 6.67-41.24 6.67-15.67 0-30.32-2.37-41.23-6.67-10.46-4.12-14.16-8.76-14.16-11.48v-15.9a57.42 57.42 0 0 0 9.71 4.83c12.3 4.85 28.52 7.52 45.68 7.52 17.17 0 33.39-2.67 45.69-7.52a57.5 57.5 0 0 0 9.71-4.84v15.91zm0-33.83c0 2.72-3.7 7.36-14.16 11.48-10.91 4.3-25.56 6.67-41.24 6.67-15.67 0-30.32-2.37-41.23-6.67-10.46-4.12-14.16-8.76-14.16-11.48v-18.16a57.42 57.42 0 0 0 9.71 4.84c12.3 4.84 28.52 7.51 45.68 7.51 17.17 0 33.39-2.67 45.69-7.51a57.52 57.52 0 0 0 9.71-4.84v18.16zm-14.16-24.6c-10.91 4.3-25.56 6.66-41.24 6.66-15.67 0-30.32-2.37-41.23-6.67-10.46-4.11-14.16-8.75-14.16-11.47V953.2a56.69 56.69 0 0 0 9.71 4.84c12.3 4.85 28.52 7.52 45.68 7.52 17.17 0 33.39-2.67 45.69-7.52a57.5 57.5 0 0 0 9.71-4.84v18.22c0 2.72-3.7 7.36-14.16 11.47z"/>
  <path fill="#4d4d4d" d="M1961.12 1079h-31.45v-5.6h31.46v5.6zm0-10.37h-31.46v-5.61h31.46v5.61zm0-10.36h-31.46v-5.61h31.46v5.61zm-7.8-31.74v16.05h16.07v46.1h-47.81v-62.15h31.73m4.68-7.5h-43.9v77.15h62.79v-58.28l-18.89-18.86z"/>
  <path fill="#fff" d="M1921.56 1057.69v-31.12h31.99v15.7h15.7v46.53h-47.69v-31.1zm39.54 18.6v-2.61h-31.4v5.23h31.4v-2.61zm0-10.46v-2.62h-31.4v5.24h31.4v-2.62zm0-10.47v-2.62h-31.4v5.24h31.4v-2.62z"/>
  <path fill="#999" d="M1988.01 1101.8h-31.46v-5.62h31.46v5.61zm0-10.38h-31.46v-5.62H1988v5.62zm0-10.36h-31.46v-5.62H1988v5.62zm-7.81-31.75v16.05h16.08v46.1h-47.82v-62.15h31.74m4.68-7.49h-43.9v77.14h62.78v-58.28l-18.88-18.86z"/>
  <path fill="#fff" d="M1948.44 1080.47v-31.12h31.99v15.71h15.7v46.52h-47.69v-31.11zm39.55 18.61v-2.62h-31.4v5.24h31.4v-2.62zm0-10.47v-2.62h-31.4v5.24h31.4v-2.62zm0-10.47v-2.61h-31.4v5.23h31.4v-2.62z"/>
  <path fill="#4d4d4d" d="M751.49 1183.32h-31.46v-5.62h31.46v5.62zm0-10.37h-31.46v-5.62h31.46v5.62zm0-10.36h-31.46v-5.62h31.46v5.62zm-7.8-31.75v16.05h16.07v46.1h-47.81v-62.15h31.73m4.68-7.49h-43.9v77.14h62.79v-58.29l-18.89-18.86z"/>
  <path fill="#fff" d="M711.93 1162v-31.12h31.99v15.71h15.7v46.51h-47.69V1162zm39.54 18.6v-2.6h-31.4v5.23h31.4v-2.62zm0-10.46v-2.62h-31.4v5.24h31.4v-2.62zm0-10.47v-2.62h-31.4v5.24h31.4v-2.62z"/>
  <path fill="none" stroke="#000" stroke-dasharray="10 10" stroke-width="5" marker-end="url(#e)" d="M213.8 58.23s-97.23 196.66-384.5 227.6" transform="translate(1070.97 802.1)"/>
  <path fill="#999" d="M1122.98 1032.16h-31.45v-5.62h31.44v5.62zm0-10.38h-31.45v-5.62h31.44v5.62zm0-10.36h-31.45v-5.62h31.44v5.62zm-7.8-31.75v16.06h16.07v46.1h-47.81v-62.16h31.73m4.69-7.49h-43.91v77.14h62.79v-58.27l-18.88-18.87z"/>
  <path fill="#fff" d="M1083.42 1010.83v-31.11h31.99v15.7h15.7v46.53h-47.69v-31.12zm39.54 18.61v-2.61h-31.39v5.23h31.4v-2.62zm0-10.47v-2.61h-31.39v5.23h31.4v-2.62zm0-10.46v-2.62h-31.39v5.23h31.4v-2.61z"/>
  <ellipse cx="287.18" cy="1202.14" fill="#fff" stroke="#000" stroke-width="1.9" rx="17.8" ry="17.8" transform="translate(878.38 125.4) scale(.70957)"/>
  <path fill="none" stroke="#000" stroke-dasharray="10 10" stroke-width="5" marker-end="url(#f)" d="M492.22 47.18s-22.1 291.68-647.45 298.31" transform="translate(1070.97 802.1)"/>
  <path fill="#999" d="M1246.73 1124.96h-31.46v-5.61h31.46v5.61zm0-10.37h-31.46v-5.62h31.45v5.62zm0-10.36h-31.46v-5.62h31.45v5.62zm-7.81-31.75v16.06h16.07v46.1h-47.8v-62.16h31.73m4.68-7.49h-43.9v77.14h62.78v-58.28l-18.88-18.86z"/>
  <path fill="#fff" d="M1207.16 1103.64v-31.11h31.99v15.7h15.7v46.53h-47.69v-31.12zm39.55 18.61v-2.62h-31.4v5.24h31.4v-2.62zm0-10.47v-2.61h-31.4v5.23h31.4v-2.62zm0-10.47v-2.61h-31.4v5.23h31.4v-2.62z"/>
  <ellipse cx="287.18" cy="1202.14" fill="#fff" stroke="#000" stroke-width="1.9" rx="17.8" ry="17.8" transform="translate(1002.13 218.2) scale(.70957)"/>
  <path fill="none" stroke="#000" stroke-dasharray="10 10" stroke-width="5" marker-end="url(#g)" d="M730.87 274.78s-260.75 95.02-886.1 101.65" transform="translate(1070.97 802.1)"/>
  <path fill="#999" d="M1580.39 1131.6h-31.46v-5.62h31.46v5.61zm0-10.38h-31.46v-5.62h31.46v5.62zm0-10.36h-31.46v-5.62h31.46v5.62zm-7.8-31.75v16.05h16.07v46.1h-47.81v-62.15h31.73m4.68-7.49h-43.9v77.14h62.79v-58.28l-18.89-18.86z"/>
  <path fill="#fff" d="M1540.83 1110.27v-31.12h31.99v15.71h15.7v46.52h-47.69v-31.11zm39.54 18.61v-2.62h-31.4v5.24h31.4v-2.62zm0-10.47v-2.62h-31.4v5.24h31.4v-2.62zm0-10.47v-2.61h-31.4v5.23h31.4v-2.62z"/>
  <ellipse cx="287.18" cy="1202.14" fill="#fff" stroke="#000" stroke-width="1.9" rx="17.8" ry="17.8" transform="translate(1335.79 224.83) scale(.70957)"/>
  <path fill="#4d4d4d" d="M104.05 1167.85H72.59v-5.61h31.46v5.61zm0-10.37H72.59v-5.62h31.45v5.62zm0-10.36H72.59v-5.62h31.45v5.62zm-7.81-31.75v16.06h16.07v46.1h-47.8v-62.16h31.73m4.68-7.49h-43.9v77.14h62.78v-58.28l-18.88-18.86z"/>
  <path fill="#fff" d="M64.48 1146.53v-31.11h31.99v15.7h15.7v46.53H64.48v-31.12zm39.55 18.61v-2.62h-31.4v5.24h31.4v-2.62zm0-10.47v-2.61h-31.4v5.23h31.4v-2.62zm0-10.47v-2.61h-31.4v5.23h31.4v-2.62z"/>
  <path d="M128.12 1191.89H96.66v-5.62h31.46v5.62zm0-10.38H96.66v-5.61h31.46v5.61zm0-10.36H96.66v-5.61h31.46v5.61zm-7.8-31.74v16.05h16.07v46.1H88.58v-62.15h31.73m4.68-7.5h-43.9v77.15h62.79v-58.28l-18.89-18.86z"/>
  <path fill="#fff" d="M88.56 1170.57v-31.12h31.99v15.71h15.7v46.52H88.56v-31.11zm39.54 18.6v-2.6H96.7v5.23h31.4v-2.62zm0-10.46v-2.62H96.7v5.24h31.4v-2.62zm0-10.47v-2.62H96.7v5.24h31.4v-2.62z"/>
  <path fill="#4d4d4d" d="M1925.8 628.36h-31.46v-5.62h31.46v5.62zm0-10.37h-31.46v-5.62h31.45v5.62zm0-10.36h-31.46v-5.62h31.45v5.62zm-7.81-31.75v16.05h16.08v46.1h-47.82v-62.15h31.74m4.68-7.49h-43.9v77.14h62.79v-58.28l-18.89-18.85z"/>
  <path fill="#fff" d="M1886.23 607.04v-31.12h31.99v15.71h15.7v46.52h-47.69v-31.11zm39.55 18.61v-2.62h-31.4v5.24h31.4v-2.62zm0-10.47v-2.62h-31.4v5.24h31.4v-2.62zm0-10.47v-2.61h-31.4v5.23h31.4v-2.62z"/>
  <path fill="#999" d="M1948.94 656.49h-31.47v-5.62h31.46v5.62zm-.01-10.38h-31.45v-5.61h31.45v5.61zm0-10.36h-31.45v-5.61h31.45v5.61zm-7.8-31.74v16.05h16.07v46.1h-47.8v-62.15h31.73m4.68-7.5h-43.9v77.15h62.78v-58.28l-18.88-18.86z"/>
  <path fill="#fff" d="M1909.37 635.17v-31.12h31.99v15.71h15.7v46.52h-47.69v-31.11zm39.55 18.6v-2.6h-31.4v5.23h31.4v-2.62zm0-10.46v-2.62h-31.4v5.24h31.4v-2.62zm0-10.47v-2.62h-31.4v5.24h31.4v-2.62z"/>
  <text x="-385.96" y="-186.82" font-family="sans-serif" font-size="40" font-weight="400" letter-spacing="0" style="line-height:125%" transform="translate(1070.97 802.1)" word-spacing="0">
    <tspan x="-385.96" y="-186.82">provider offering</tspan>
  </text>
  <text x="-895.54" y="-184.18" font-family="sans-serif" font-size="40" font-weight="400" letter-spacing="0" style="line-height:125%" transform="translate(1070.97 802.1)" word-spacing="0">
    <tspan x="-895.54" y="-184.18">policy definition</tspan>
  </text>
  <text x="-895.31" y="-96.68" font-family="sans-serif" font-size="40" font-weight="400" letter-spacing="0" style="line-height:125%" transform="translate(1070.97 802.1)" word-spacing="0">
    <tspan x="-895.31" y="-96.68">user expectations</tspan>
  </text>
  <text x="-894.12" y="-5.3" font-family="sans-serif" font-size="40" font-weight="400" letter-spacing="0" style="line-height:125%" transform="translate(1070.97 802.1)" word-spacing="0">
    <tspan x="-894.12" y="-5.3">data annotation</tspan>
  </text>
  <text x="-384.54" y="-99.32" font-family="sans-serif" font-size="40" font-weight="400" letter-spacing="0" style="line-height:125%" transform="translate(1070.97 802.1)" word-spacing="0">
    <tspan x="-384.54" y="-99.32">data center offering</tspan>
  </text>
  <path fill="#4d4d4d" d="M136.3 624.72h-26.21v-4.68h26.2zm0-8.64h-26.22v-4.68h26.2v4.68zm0-8.64h-26.22v-4.68h26.2v4.68zM129.8 581v13.38h13.4v38.42h-39.85V581h26.45m3.9-6.25H97.1v64.3h52.34v-48.58z"/>
  <path fill="#fff" d="M103.33 606.95v-25.93h26.66v13.1h13.08v38.76h-39.74zm32.96 15.51v-2.18h-26.17v4.36h26.17zm0-8.72v-2.18h-26.17v4.36h26.17zm0-8.73v-2.18h-26.17v4.37h26.17z"/>
  <path d="M136.3 712.22h-26.21v-4.68h26.2zm0-8.64h-26.22v-4.68h26.2v4.68zm0-8.64h-26.22v-4.68h26.2v4.68zm-6.5-26.45v13.38h13.4v38.42h-39.85v-51.8h26.45m3.9-6.25H97.1v64.3h52.34v-48.58z"/>
  <path fill="#fff" d="M103.33 694.45v-25.93h26.66v13.1h13.08v38.76h-39.74zm32.96 15.51v-2.18h-26.17v4.36h26.17zm0-8.72v-2.18h-26.17v4.36h26.17zm0-8.73v-2.18h-26.17v4.37h26.17z"/>
  <path d="M136.3 799.72h-26.21v-4.68h26.2zm0-8.64h-26.22v-4.68h26.2v4.68zm0-8.64h-26.22v-4.68h26.2v4.68zM129.8 756v13.38h13.4v38.42h-39.85V756h26.45m3.9-6.25H97.1v64.3h52.34v-48.58z"/>
  <path fill="#fff" d="M103.33 781.95v-25.93h26.66v13.1h13.08v38.76h-39.74zm32.96 15.51v-2.18h-26.17v4.36h26.17zm0-8.72v-2.18h-26.17v4.36h26.17zm0-8.73v-2.18h-26.17v4.37h26.17z"/>
  <path d="M101.55 753.16l6.1 6.92-.36 5.63-8.74-9.9zm-11.3 6.7l16.33-14.43c-5.98-6.77-10.55-3.32-14.76-8.08-3.23-3.65-1.62-6.44-3.64-8.93l-12.54 11.1c2.24 2.32 5.16 1.02 8.4 4.7 4.23 4.78.22 8.85 6.22 15.64zm-7.1-20.39l1.8-1.6 5.96 6.75-1.8 1.6z"/>
  <path fill="#999" d="M645.88 709.58h-26.21v-4.68h26.2zm0-8.64h-26.22v-4.68h26.2v4.68zm0-8.64h-26.22v-4.68h26.2v4.68zm-6.5-26.45v13.38h13.4v38.42h-39.85v-51.8h26.45m3.9-6.25h-36.6v64.29h52.34v-48.57z"/>
  <path fill="#fff" d="M612.9 691.8v-25.92h26.67v13.09h13.08v38.77H612.9zm32.97 15.52v-2.18H619.7v4.36h26.17zm0-8.72v-2.18H619.7v4.36h26.17zm0-8.73v-2.18H619.7v4.37h26.17z"/>
  <circle cx="287.18" cy="1202.14" r="17.8" fill="#fff" stroke="#000" stroke-width="1.9" transform="translate(442.03 -46.11) scale(.59135)"/>
  <path fill="#999" d="M645.88 622.08h-26.21v-4.68h26.2zm0-8.64h-26.22v-4.68h26.2v4.68zm0-8.64h-26.22v-4.68h26.2v4.68zm-6.5-26.45v13.38h13.4v38.42h-39.85v-51.8h26.45m3.9-6.25h-36.6v64.29h52.34v-48.57z"/>
  <path fill="#fff" d="M612.9 604.3v-25.92h26.67v13.09h13.08v38.77H612.9zm32.97 15.52v-2.18H619.7V622h26.17zm0-8.72v-2.18H619.7v4.36h26.17zm0-8.73v-2.18H619.7v4.37h26.17z"/>
  <text x="-324.08" y="281.78" font-family="sans-serif" font-size="40" font-weight="400" letter-spacing="0" style="line-height:125%" transform="translate(1070.97 802.1)" word-spacing="0">
    <tspan x="-324.08" y="281.78">PDP</tspan>
  </text>
  <text x="600.76" y="-145.78" font-family="sans-serif" font-size="40" font-weight="400" letter-spacing="0" style="line-height:125%" transform="translate(1070.97 802.1)" word-spacing="0">
    <tspan x="600.76" y="-145.78">Providers</tspan>
  </text>
</svg>
